<svg width="12" height="12" viewBox="0 0 12 12" fill="none" xmlns="http://www.w3.org/2000/svg">
<g clip-path="url(#clip0_8_811)">
<path d="M9.40494 6.51116C9.40585 6.65864 9.36104 6.80279 9.27667 6.92376C9.1923 7.04473 9.07251 7.13659 8.93379 7.18668L6.5984 8.04578L5.7393 10.3794C5.68842 10.5176 5.59638 10.6369 5.47558 10.7211C5.35479 10.8054 5.21105 10.8505 5.06378 10.8505C4.9165 10.8505 4.77277 10.8054 4.65197 10.7211C4.53117 10.6369 4.43913 10.5176 4.38825 10.3794L3.52689 8.04849L1.19286 7.18939C1.05465 7.13852 0.935366 7.04647 0.85111 6.92568C0.766855 6.80488 0.72168 6.66115 0.72168 6.51387C0.72168 6.36659 0.766855 6.22286 0.85111 6.10206C0.935366 5.98127 1.05465 5.88922 1.19286 5.83835L3.52825 4.97925L4.38735 2.64566C4.43822 2.50745 4.53027 2.38817 4.65106 2.30392C4.77186 2.21966 4.91559 2.17449 5.06287 2.17449C5.21015 2.17449 5.35388 2.21966 5.47468 2.30392C5.59547 2.38817 5.68752 2.50745 5.73839 2.64566L6.59749 4.98106L8.93108 5.84016C9.06958 5.88954 9.18944 5.98051 9.27426 6.10062C9.35908 6.22073 9.40472 6.36412 9.40494 6.51116ZM6.87286 2.17045H7.59631V2.8939C7.59631 2.98983 7.63442 3.08184 7.70226 3.14968C7.77009 3.21751 7.8621 3.25562 7.95803 3.25562C8.05397 3.25562 8.14598 3.21751 8.21381 3.14968C8.28165 3.08184 8.31976 2.98983 8.31976 2.8939V2.17045H9.04321C9.13915 2.17045 9.23115 2.13234 9.29899 2.0645C9.36683 1.99666 9.40494 1.90466 9.40494 1.80872C9.40494 1.71278 9.36683 1.62078 9.29899 1.55294C9.23115 1.4851 9.13915 1.44699 9.04321 1.44699H8.31976V0.723542C8.31976 0.627607 8.28165 0.5356 8.21381 0.467763C8.14598 0.399927 8.05397 0.361816 7.95803 0.361816C7.8621 0.361816 7.77009 0.399927 7.70226 0.467763C7.63442 0.5356 7.59631 0.627607 7.59631 0.723542V1.44699H6.87286C6.77692 1.44699 6.68491 1.4851 6.61708 1.55294C6.54924 1.62078 6.51113 1.71278 6.51113 1.80872C6.51113 1.90466 6.54924 1.99666 6.61708 2.0645C6.68491 2.13234 6.77692 2.17045 6.87286 2.17045ZM10.8518 3.61735H10.4901V3.25562C10.4901 3.15969 10.452 3.06768 10.3842 2.99985C10.3163 2.93201 10.2243 2.8939 10.1284 2.8939C10.0325 2.8939 9.94045 2.93201 9.87261 2.99985C9.80477 3.06768 9.76666 3.15969 9.76666 3.25562V3.61735H9.40494C9.309 3.61735 9.217 3.65546 9.14916 3.7233C9.08132 3.79113 9.04321 3.88314 9.04321 3.97908C9.04321 4.07501 9.08132 4.16702 9.14916 4.23485C9.217 4.30269 9.309 4.3408 9.40494 4.3408H9.76666V4.70253C9.76666 4.79846 9.80477 4.89047 9.87261 4.95831C9.94045 5.02614 10.0325 5.06425 10.1284 5.06425C10.2243 5.06425 10.3163 5.02614 10.3842 4.95831C10.452 4.89047 10.4901 4.79846 10.4901 4.70253V4.3408H10.8518C10.9478 4.3408 11.0398 4.30269 11.1076 4.23485C11.1755 4.16702 11.2136 4.07501 11.2136 3.97908C11.2136 3.88314 11.1755 3.79113 11.1076 3.7233C11.0398 3.65546 10.9478 3.61735 10.8518 3.61735Z" fill="url(#paint0_linear_8_811)"/>
</g>
<defs>
<linearGradient id="paint0_linear_8_811" x1="0.311971" y1="1.55198" x2="10.3736" y2="3.29673" gradientUnits="userSpaceOnUse">
<stop stop-color="#ED1522"/>
<stop offset="1" stop-color="#E66E48"/>
</linearGradient>
<clipPath id="clip0_8_811">
<rect width="11.5752" height="11.5752" fill="white"/>
</clipPath>
</defs>
</svg>
