<svg width="24" height="24" viewBox="0 0 24 24" fill="none" xmlns="http://www.w3.org/2000/svg">
<path d="M20.9832 10.7053L5.25003 1.70252C5.02067 1.56877 4.75992 1.49829 4.49441 1.49829C4.2289 1.49829 3.96815 1.56877 3.73878 1.70252C3.51281 1.83209 3.32532 2.01938 3.19552 2.24523C3.06571 2.47107 2.99825 2.72735 3.00003 2.98783V21.0122C2.99929 21.2724 3.06764 21.5282 3.19809 21.7533C3.32854 21.9785 3.51642 22.165 3.74253 22.2938C3.9719 22.4275 4.23265 22.498 4.49816 22.498C4.76367 22.498 5.02442 22.4275 5.25378 22.2938L20.9832 13.2938C21.2153 13.1665 21.4089 12.9792 21.5437 12.7514C21.6786 12.5236 21.7498 12.2638 21.7498 11.9991C21.7498 11.7344 21.6786 11.4745 21.5437 11.2468C21.4089 11.019 21.2153 10.8317 20.9832 10.7044V10.7053ZM4.50003 19.9378V4.0622L12.4397 12L4.50003 19.9378ZM13.5 13.0603L15.2738 14.8341L6.97691 19.5835L13.5 13.0603ZM6.97503 4.41564L15.2747 9.16595L13.5 10.9397L6.97503 4.41564ZM16.6228 14.0625L14.5603 12L16.6228 9.93752L20.2257 12L16.6228 14.0625Z" fill="black"/>
</svg>
