<svg xmlns="http://www.w3.org/2000/svg" width="25" height="25" viewBox="0 0 25 25" fill="none">
  <g clip-path="url(#clip0_2536_5249)">
    <g opacity="0.15">
      <path d="M20.4545 16.6977C18.8804 15.6168 18.2045 13.8036 18.2045 11.7496C18.2045 10.034 19.2995 8.48615 20.4545 7.39209C19.3792 6.37396 17.5482 5.74959 15.9545 5.74959C14.5913 5.74642 13.2681 6.20955 12.2045 7.06209C11.163 6.22704 9.8718 5.76495 8.53698 5.74959C5.07948 5.70271 2.36635 8.59021 2.45448 12.0486C2.49212 13.5313 2.82347 14.9917 3.42934 16.3453C4.03522 17.699 4.90358 18.9191 5.98417 19.9349C6.5412 20.4588 7.27728 20.7502 8.04198 20.7496H16.2639C16.6722 20.7513 17.0765 20.6689 17.4517 20.5076C17.8268 20.3463 18.1648 20.1096 18.4445 19.8121C19.9304 18.2183 20.4545 16.6996 20.4545 16.6996V16.6977Z" fill="#82101E"/>
      <path d="M20.4545 16.6977C18.8804 15.6168 18.2045 13.8036 18.2045 11.7496C18.2045 10.034 19.2995 8.48615 20.4545 7.39209C19.3792 6.37396 17.5482 5.74959 15.9545 5.74959C14.5913 5.74642 13.2681 6.20955 12.2045 7.06209C11.163 6.22704 9.8718 5.76495 8.53698 5.74959C5.07948 5.70271 2.36635 8.59021 2.45448 12.0486C2.49212 13.5313 2.82347 14.9917 3.42934 16.3453C4.03522 17.699 4.90358 18.9191 5.98417 19.9349C6.5412 20.4588 7.27728 20.7502 8.04198 20.7496H16.2639C16.6722 20.7513 17.0765 20.6689 17.4517 20.5076C17.8268 20.3463 18.1648 20.1096 18.4445 19.8121C19.9304 18.2183 20.4545 16.6996 20.4545 16.6996V16.6977Z" fill="black" fill-opacity="0.2"/>
    </g>
    <path d="M21.1389 16.3991C21.0827 16.2705 20.9918 16.1602 20.8764 16.0803C19.2855 14.9872 18.9546 13.1225 18.9546 11.75C18.9546 10.0934 20.2174 8.65063 20.9702 7.93719C21.0442 7.8671 21.1032 7.78265 21.1435 7.689C21.1838 7.59535 21.2046 7.49446 21.2046 7.3925C21.2046 7.29054 21.1838 7.18966 21.1435 7.09601C21.1032 7.00235 21.0442 6.9179 20.9702 6.84781C19.7814 5.72563 17.8127 5 15.9546 5C14.6198 5.00119 13.3152 5.39683 12.2046 6.13719C10.909 5.26847 9.35131 4.87832 7.79926 5.03385C6.24721 5.18938 4.79787 5.88086 3.70049 6.98938C3.04446 7.65912 2.52973 8.45387 2.18685 9.32643C1.84398 10.199 1.67997 11.1316 1.70456 12.0688C1.74136 13.6506 2.0931 15.2093 2.73923 16.6537C3.38537 18.0981 4.31292 19.3992 5.46768 20.4809C6.16312 21.138 7.08438 21.5028 8.04112 21.5H16.2611C16.7726 21.501 17.2788 21.3969 17.7484 21.1942C18.218 20.9915 18.641 20.6945 18.9911 20.3216C19.6397 19.6236 20.2007 18.8491 20.6617 18.0153C21.3199 16.8125 21.2355 16.625 21.1389 16.3991ZM17.8924 19.2997C17.683 19.522 17.4301 19.6989 17.1495 19.8194C16.8689 19.9398 16.5665 20.0013 16.2611 20H8.04112C7.46809 20.0018 6.91628 19.7833 6.49987 19.3897C5.48931 18.4436 4.67742 17.3056 4.11162 16.0421C3.54582 14.7787 3.23746 13.4152 3.20455 12.0313C3.18405 11.2959 3.31167 10.564 3.57983 9.87903C3.84799 9.19405 4.25121 8.57002 4.76549 8.04406C5.24598 7.55319 5.82001 7.16363 6.45365 6.89842C7.08728 6.63321 7.76766 6.49773 8.45455 6.5H8.52768C9.69605 6.51231 10.8262 6.91787 11.7358 7.65125C11.8688 7.75775 12.0342 7.81578 12.2046 7.81578C12.375 7.81578 12.5403 7.75775 12.6733 7.65125C13.6022 6.90181 14.761 6.49525 15.9546 6.5C17.1464 6.51383 18.3124 6.84906 19.3296 7.47031C18.1108 8.83156 17.4546 10.3269 17.4546 11.75C17.4546 13.9784 18.1708 15.7559 19.5339 16.9344C19.105 17.7986 18.552 18.5955 17.8924 19.2997ZM12.2261 3.3125C12.4341 2.50692 12.9041 1.79338 13.5621 1.28421C14.2201 0.775046 15.0288 0.499167 15.8608 0.500002H15.9546C16.1535 0.500002 16.3442 0.57902 16.4849 0.719672C16.6255 0.860324 16.7046 1.05109 16.7046 1.25C16.7046 1.44891 16.6255 1.63968 16.4849 1.78033C16.3442 1.92098 16.1535 2 15.9546 2H15.8608C15.362 1.99996 14.8772 2.1657 14.4828 2.47116C14.0885 2.77662 13.8068 3.20449 13.6821 3.6875C13.6323 3.8802 13.5081 4.04525 13.3367 4.14634C13.1652 4.24744 12.9607 4.27629 12.768 4.22656C12.5753 4.17684 12.4102 4.0526 12.3092 3.88118C12.2081 3.70976 12.1792 3.5052 12.2289 3.3125H12.2261Z" fill="#82101E"/>
    <path d="M21.1389 16.3991C21.0827 16.2705 20.9918 16.1602 20.8764 16.0803C19.2855 14.9872 18.9546 13.1225 18.9546 11.75C18.9546 10.0934 20.2174 8.65063 20.9702 7.93719C21.0442 7.8671 21.1032 7.78265 21.1435 7.689C21.1838 7.59535 21.2046 7.49446 21.2046 7.3925C21.2046 7.29054 21.1838 7.18966 21.1435 7.09601C21.1032 7.00235 21.0442 6.9179 20.9702 6.84781C19.7814 5.72563 17.8127 5 15.9546 5C14.6198 5.00119 13.3152 5.39683 12.2046 6.13719C10.909 5.26847 9.35131 4.87832 7.79926 5.03385C6.24721 5.18938 4.79787 5.88086 3.70049 6.98938C3.04446 7.65912 2.52973 8.45387 2.18685 9.32643C1.84398 10.199 1.67997 11.1316 1.70456 12.0688C1.74136 13.6506 2.0931 15.2093 2.73923 16.6537C3.38537 18.0981 4.31292 19.3992 5.46768 20.4809C6.16312 21.138 7.08438 21.5028 8.04112 21.5H16.2611C16.7726 21.501 17.2788 21.3969 17.7484 21.1942C18.218 20.9915 18.641 20.6945 18.9911 20.3216C19.6397 19.6236 20.2007 18.8491 20.6617 18.0153C21.3199 16.8125 21.2355 16.625 21.1389 16.3991ZM17.8924 19.2997C17.683 19.522 17.4301 19.6989 17.1495 19.8194C16.8689 19.9398 16.5665 20.0013 16.2611 20H8.04112C7.46809 20.0018 6.91628 19.7833 6.49987 19.3897C5.48931 18.4436 4.67742 17.3056 4.11162 16.0421C3.54582 14.7787 3.23746 13.4152 3.20455 12.0313C3.18405 11.2959 3.31167 10.564 3.57983 9.87903C3.84799 9.19405 4.25121 8.57002 4.76549 8.04406C5.24598 7.55319 5.82001 7.16363 6.45365 6.89842C7.08728 6.63321 7.76766 6.49773 8.45455 6.5H8.52768C9.69605 6.51231 10.8262 6.91787 11.7358 7.65125C11.8688 7.75775 12.0342 7.81578 12.2046 7.81578C12.375 7.81578 12.5403 7.75775 12.6733 7.65125C13.6022 6.90181 14.761 6.49525 15.9546 6.5C17.1464 6.51383 18.3124 6.84906 19.3296 7.47031C18.1108 8.83156 17.4546 10.3269 17.4546 11.75C17.4546 13.9784 18.1708 15.7559 19.5339 16.9344C19.105 17.7986 18.552 18.5955 17.8924 19.2997ZM12.2261 3.3125C12.4341 2.50692 12.9041 1.79338 13.5621 1.28421C14.2201 0.775046 15.0288 0.499167 15.8608 0.500002H15.9546C16.1535 0.500002 16.3442 0.57902 16.4849 0.719672C16.6255 0.860324 16.7046 1.05109 16.7046 1.25C16.7046 1.44891 16.6255 1.63968 16.4849 1.78033C16.3442 1.92098 16.1535 2 15.9546 2H15.8608C15.362 1.99996 14.8772 2.1657 14.4828 2.47116C14.0885 2.77662 13.8068 3.20449 13.6821 3.6875C13.6323 3.8802 13.5081 4.04525 13.3367 4.14634C13.1652 4.24744 12.9607 4.27629 12.768 4.22656C12.5753 4.17684 12.4102 4.0526 12.3092 3.88118C12.2081 3.70976 12.1792 3.5052 12.2289 3.3125H12.2261Z" fill="black" fill-opacity="0.2"/>
  </g>
  <defs>
    <clipPath id="clip0_2536_5249">
      <rect width="24" height="24" fill="white" transform="translate(0.20459 0.5)"/>
    </clipPath>
  </defs>
</svg>