<svg width="24" height="24" viewBox="0 0 24 24" fill="none" xmlns="http://www.w3.org/2000/svg">
<path d="M6.03187 18.3815L5.14594 19.8815C5.09583 19.9663 5.02951 20.0405 4.95075 20.0996C4.872 20.1588 4.78235 20.2019 4.68694 20.2265C4.49425 20.2761 4.28975 20.2471 4.11844 20.1459C3.94712 20.0447 3.82303 19.8796 3.77345 19.6869C3.72387 19.4942 3.75287 19.2897 3.85406 19.1184L4.74094 17.6184C4.78984 17.5313 4.85566 17.4548 4.93452 17.3935C5.01338 17.3322 5.1037 17.2872 5.20017 17.2613C5.29665 17.2353 5.39733 17.2289 5.49631 17.2424C5.5953 17.2559 5.69058 17.2891 5.77658 17.3399C5.86258 17.3907 5.93755 17.4582 5.99711 17.5385C6.05666 17.6187 6.09958 17.71 6.12336 17.807C6.14714 17.904 6.1513 18.0048 6.13559 18.1035C6.11988 18.2021 6.08462 18.2967 6.03187 18.3815ZM21.75 14.2499H17.2687L14.3878 9.37494C14.3389 9.28783 14.2731 9.21137 14.1942 9.15004C14.1154 9.08871 14.0251 9.04376 13.9286 9.01782C13.8321 8.99188 13.7314 8.98547 13.6324 8.99898C13.5335 9.01248 13.4382 9.04563 13.3522 9.09647C13.2662 9.1473 13.1912 9.21481 13.1316 9.29502C13.0721 9.37523 13.0292 9.46653 13.0054 9.56356C12.9816 9.66058 12.9774 9.76139 12.9932 9.86004C13.0089 9.9587 13.0441 10.0532 13.0969 10.1381L18.8541 19.8815C18.9553 20.0528 19.1204 20.1769 19.3131 20.2265C19.5058 20.2761 19.7103 20.2471 19.8816 20.1459C20.0529 20.0447 20.177 19.8796 20.2266 19.6869C20.2761 19.4942 20.2471 19.2897 20.1459 19.1184L18.1556 15.7499H21.75C21.9489 15.7499 22.1397 15.6709 22.2803 15.5303C22.421 15.3896 22.5 15.1989 22.5 14.9999C22.5 14.801 22.421 14.6103 22.2803 14.4696C22.1397 14.329 21.9489 14.2499 21.75 14.2499ZM13.3566 14.2499H8.47312L14.8959 3.3815C14.9971 3.21019 15.0261 3.00569 14.9766 2.813C14.927 2.62031 14.8029 2.4552 14.6316 2.354C14.4602 2.25281 14.2558 2.22381 14.0631 2.27339C13.8704 2.32297 13.7053 2.44706 13.6041 2.61838L12 5.33338L10.3959 2.61463C10.3458 2.5298 10.2795 2.45568 10.2008 2.39648C10.122 2.33729 10.0324 2.29419 9.93694 2.26964C9.74425 2.22006 9.53975 2.24906 9.36844 2.35025C9.19712 2.45145 9.07303 2.61656 9.02345 2.80925C8.97387 3.00194 9.00287 3.20644 9.10406 3.37775L11.1291 6.80432L6.73125 14.2499H2.25C2.05109 14.2499 1.86032 14.329 1.71967 14.4696C1.57902 14.6103 1.5 14.801 1.5 14.9999C1.5 15.1989 1.57902 15.3896 1.71967 15.5303C1.86032 15.6709 2.05109 15.7499 2.25 15.7499H13.3566C13.5555 15.7499 13.7462 15.6709 13.8869 15.5303C14.0275 15.3896 14.1066 15.1989 14.1066 14.9999C14.1066 14.801 14.0275 14.6103 13.8869 14.4696C13.7462 14.329 13.5555 14.2499 13.3566 14.2499Z" fill="#1D2129"/>
</svg>
