<svg xmlns="http://www.w3.org/2000/svg" width="25" height="25" viewBox="0 0 25 25" fill="none">
  <g opacity="0.15">
    <path d="M21.5162 12.5C21.5162 14.28 20.9884 16.0201 19.9995 17.5001C19.0105 18.9802 17.6049 20.1337 15.9604 20.8149C14.3159 21.4961 12.5063 21.6743 10.7604 21.3271C9.0146 20.9798 7.41095 20.1226 6.15228 18.864C4.89361 17.6053 4.03644 16.0016 3.68917 14.2558C3.3419 12.51 3.52013 10.7004 4.20132 9.05585C4.88251 7.41131 6.03607 6.00571 7.51611 5.01677C8.99615 4.02784 10.7362 3.5 12.5162 3.5C14.9032 3.5 17.1924 4.44821 18.8802 6.13604C20.568 7.82387 21.5162 10.1131 21.5162 12.5Z" fill="#82101E"/>
    <path d="M21.5162 12.5C21.5162 14.28 20.9884 16.0201 19.9995 17.5001C19.0105 18.9802 17.6049 20.1337 15.9604 20.8149C14.3159 21.4961 12.5063 21.6743 10.7604 21.3271C9.0146 20.9798 7.41095 20.1226 6.15228 18.864C4.89361 17.6053 4.03644 16.0016 3.68917 14.2558C3.3419 12.51 3.52013 10.7004 4.20132 9.05585C4.88251 7.41131 6.03607 6.00571 7.51611 5.01677C8.99615 4.02784 10.7362 3.5 12.5162 3.5C14.9032 3.5 17.1924 4.44821 18.8802 6.13604C20.568 7.82387 21.5162 10.1131 21.5162 12.5Z" fill="black" fill-opacity="0.2"/>
  </g>
  <path d="M12.5162 2.75C10.5879 2.75 8.70281 3.32183 7.09943 4.39317C5.49605 5.46451 4.24637 6.98726 3.50841 8.76884C2.77046 10.5504 2.57738 12.5108 2.95358 14.4021C3.32979 16.2934 4.25839 18.0307 5.62195 19.3943C6.98551 20.7579 8.72279 21.6865 10.6141 22.0627C12.5054 22.4389 14.4658 22.2458 16.2474 21.5078C18.029 20.7699 19.5517 19.5202 20.6231 17.9168C21.6944 16.3134 22.2662 14.4284 22.2662 12.5C22.2635 9.91498 21.2354 7.43661 19.4075 5.60872C17.5796 3.78084 15.1013 2.75273 12.5162 2.75ZM13.2662 20.7153V14.75H15.5162C15.7152 14.75 15.9059 14.671 16.0466 14.5303C16.1872 14.3897 16.2662 14.1989 16.2662 14C16.2662 13.8011 16.1872 13.6103 16.0466 13.4697C15.9059 13.329 15.7152 13.25 15.5162 13.25H13.2662V11C13.2662 10.6022 13.4243 10.2206 13.7056 9.93934C13.9869 9.65804 14.3684 9.5 14.7662 9.5H16.2662C16.4652 9.5 16.6559 9.42098 16.7966 9.28033C16.9372 9.13968 17.0162 8.94891 17.0162 8.75C17.0162 8.55109 16.9372 8.36032 16.7966 8.21967C16.6559 8.07902 16.4652 8 16.2662 8H14.7662C13.9706 8 13.2075 8.31607 12.6449 8.87868C12.0823 9.44129 11.7662 10.2044 11.7662 11V13.25H9.51624C9.31733 13.25 9.12656 13.329 8.98591 13.4697C8.84526 13.6103 8.76624 13.8011 8.76624 14C8.76624 14.1989 8.84526 14.3897 8.98591 14.5303C9.12656 14.671 9.31733 14.75 9.51624 14.75H11.7662V20.7153C9.65198 20.5223 7.69352 19.5217 6.29821 17.9215C4.90291 16.3214 4.17818 14.2449 4.27478 12.1241C4.37139 10.0032 5.28188 8.00127 6.81687 6.5346C8.35187 5.06793 10.3932 4.24947 12.5162 4.24947C14.6393 4.24947 16.6806 5.06793 18.2156 6.5346C19.7506 8.00127 20.6611 10.0032 20.7577 12.1241C20.8543 14.2449 20.1296 16.3214 18.7343 17.9215C17.339 19.5217 15.3805 20.5223 13.2662 20.7153Z" fill="#82101E"/>
  <path d="M12.5162 2.75C10.5879 2.75 8.70281 3.32183 7.09943 4.39317C5.49605 5.46451 4.24637 6.98726 3.50841 8.76884C2.77046 10.5504 2.57738 12.5108 2.95358 14.4021C3.32979 16.2934 4.25839 18.0307 5.62195 19.3943C6.98551 20.7579 8.72279 21.6865 10.6141 22.0627C12.5054 22.4389 14.4658 22.2458 16.2474 21.5078C18.029 20.7699 19.5517 19.5202 20.6231 17.9168C21.6944 16.3134 22.2662 14.4284 22.2662 12.5C22.2635 9.91498 21.2354 7.43661 19.4075 5.60872C17.5796 3.78084 15.1013 2.75273 12.5162 2.75ZM13.2662 20.7153V14.75H15.5162C15.7152 14.75 15.9059 14.671 16.0466 14.5303C16.1872 14.3897 16.2662 14.1989 16.2662 14C16.2662 13.8011 16.1872 13.6103 16.0466 13.4697C15.9059 13.329 15.7152 13.25 15.5162 13.25H13.2662V11C13.2662 10.6022 13.4243 10.2206 13.7056 9.93934C13.9869 9.65804 14.3684 9.5 14.7662 9.5H16.2662C16.4652 9.5 16.6559 9.42098 16.7966 9.28033C16.9372 9.13968 17.0162 8.94891 17.0162 8.75C17.0162 8.55109 16.9372 8.36032 16.7966 8.21967C16.6559 8.07902 16.4652 8 16.2662 8H14.7662C13.9706 8 13.2075 8.31607 12.6449 8.87868C12.0823 9.44129 11.7662 10.2044 11.7662 11V13.25H9.51624C9.31733 13.25 9.12656 13.329 8.98591 13.4697C8.84526 13.6103 8.76624 13.8011 8.76624 14C8.76624 14.1989 8.84526 14.3897 8.98591 14.5303C9.12656 14.671 9.31733 14.75 9.51624 14.75H11.7662V20.7153C9.65198 20.5223 7.69352 19.5217 6.29821 17.9215C4.90291 16.3214 4.17818 14.2449 4.27478 12.1241C4.37139 10.0032 5.28188 8.00127 6.81687 6.5346C8.35187 5.06793 10.3932 4.24947 12.5162 4.24947C14.6393 4.24947 16.6806 5.06793 18.2156 6.5346C19.7506 8.00127 20.6611 10.0032 20.7577 12.1241C20.8543 14.2449 20.1296 16.3214 18.7343 17.9215C17.339 19.5217 15.3805 20.5223 13.2662 20.7153Z" fill="black" fill-opacity="0.2"/>
</svg>