<svg width="25" height="25" viewBox="0 0 25 25" fill="none" xmlns="http://www.w3.org/2000/svg">
<rect width="24" height="24" transform="translate(0.516235 0.273438)" fill="#82C7FF"/>
<g opacity="0.15">
<path d="M21.5162 12.2734C21.5162 14.0535 20.9884 15.7935 19.9995 17.2736C19.0105 18.7536 17.6049 19.9072 15.9604 20.5884C14.3159 21.2695 12.5063 21.4478 10.7604 21.1005C9.0146 20.7532 7.41095 19.8961 6.15228 18.6374C4.89361 17.3787 4.03644 15.7751 3.68917 14.0293C3.3419 12.2834 3.52013 10.4738 4.20132 8.82929C4.88251 7.18475 6.03607 5.77914 7.51611 4.79021C8.99615 3.80128 10.7362 3.27344 12.5162 3.27344C14.9032 3.27344 17.1924 4.22165 18.8802 5.90948C20.568 7.5973 21.5162 9.88649 21.5162 12.2734Z" fill="#82101E"/>
<path d="M21.5162 12.2734C21.5162 14.0535 20.9884 15.7935 19.9995 17.2736C19.0105 18.7536 17.6049 19.9072 15.9604 20.5884C14.3159 21.2695 12.5063 21.4478 10.7604 21.1005C9.0146 20.7532 7.41095 19.8961 6.15228 18.6374C4.89361 17.3787 4.03644 15.7751 3.68917 14.0293C3.3419 12.2834 3.52013 10.4738 4.20132 8.82929C4.88251 7.18475 6.03607 5.77914 7.51611 4.79021C8.99615 3.80128 10.7362 3.27344 12.5162 3.27344C14.9032 3.27344 17.1924 4.22165 18.8802 5.90948C20.568 7.5973 21.5162 9.88649 21.5162 12.2734Z" fill="black" fill-opacity="0.2"/>
</g>
<path d="M12.5162 2.52344C10.5879 2.52344 8.70281 3.09527 7.09943 4.16661C5.49605 5.23795 4.24637 6.76069 3.50841 8.54227C2.77046 10.3239 2.57738 12.2843 2.95358 14.1756C3.32979 16.0669 4.25839 17.8042 5.62195 19.1677C6.98551 20.5313 8.72279 21.4599 10.6141 21.8361C12.5054 22.2123 14.4658 22.0192 16.2474 21.2813C18.029 20.5433 19.5517 19.2936 20.6231 17.6902C21.6944 16.0869 22.2662 14.2018 22.2662 12.2734C22.2635 9.68841 21.2354 7.21005 19.4075 5.38216C17.5796 3.55427 15.1013 2.52617 12.5162 2.52344ZM13.2662 20.4888V14.5234H15.5162C15.7152 14.5234 15.9059 14.4444 16.0466 14.3038C16.1872 14.1631 16.2662 13.9724 16.2662 13.7734C16.2662 13.5745 16.1872 13.3838 16.0466 13.2431C15.9059 13.1025 15.7152 13.0234 15.5162 13.0234H13.2662V10.7734C13.2662 10.3756 13.4243 9.99408 13.7056 9.71278C13.9869 9.43147 14.3684 9.27344 14.7662 9.27344H16.2662C16.4652 9.27344 16.6559 9.19442 16.7966 9.05377C16.9372 8.91312 17.0162 8.72235 17.0162 8.52344C17.0162 8.32453 16.9372 8.13376 16.7966 7.99311C16.6559 7.85246 16.4652 7.77344 16.2662 7.77344H14.7662C13.9706 7.77344 13.2075 8.08951 12.6449 8.65212C12.0823 9.21473 11.7662 9.97779 11.7662 10.7734V13.0234H9.51624C9.31733 13.0234 9.12656 13.1025 8.98591 13.2431C8.84526 13.3838 8.76624 13.5745 8.76624 13.7734C8.76624 13.9724 8.84526 14.1631 8.98591 14.3038C9.12656 14.4444 9.31733 14.5234 9.51624 14.5234H11.7662V20.4888C9.65198 20.2957 7.69352 19.2951 6.29821 17.695C4.90291 16.0948 4.17818 14.0184 4.27478 11.8975C4.37139 9.77668 5.28188 7.77471 6.81687 6.30804C8.35187 4.84137 10.3932 4.02291 12.5162 4.02291C14.6393 4.02291 16.6806 4.84137 18.2156 6.30804C19.7506 7.77471 20.6611 9.77668 20.7577 11.8975C20.8543 14.0184 20.1296 16.0948 18.7343 17.695C17.339 19.2951 15.3805 20.2957 13.2662 20.4888Z" fill="#82101E"/>
<path d="M12.5162 2.52344C10.5879 2.52344 8.70281 3.09527 7.09943 4.16661C5.49605 5.23795 4.24637 6.76069 3.50841 8.54227C2.77046 10.3239 2.57738 12.2843 2.95358 14.1756C3.32979 16.0669 4.25839 17.8042 5.62195 19.1677C6.98551 20.5313 8.72279 21.4599 10.6141 21.8361C12.5054 22.2123 14.4658 22.0192 16.2474 21.2813C18.029 20.5433 19.5517 19.2936 20.6231 17.6902C21.6944 16.0869 22.2662 14.2018 22.2662 12.2734C22.2635 9.68841 21.2354 7.21005 19.4075 5.38216C17.5796 3.55427 15.1013 2.52617 12.5162 2.52344ZM13.2662 20.4888V14.5234H15.5162C15.7152 14.5234 15.9059 14.4444 16.0466 14.3038C16.1872 14.1631 16.2662 13.9724 16.2662 13.7734C16.2662 13.5745 16.1872 13.3838 16.0466 13.2431C15.9059 13.1025 15.7152 13.0234 15.5162 13.0234H13.2662V10.7734C13.2662 10.3756 13.4243 9.99408 13.7056 9.71278C13.9869 9.43147 14.3684 9.27344 14.7662 9.27344H16.2662C16.4652 9.27344 16.6559 9.19442 16.7966 9.05377C16.9372 8.91312 17.0162 8.72235 17.0162 8.52344C17.0162 8.32453 16.9372 8.13376 16.7966 7.99311C16.6559 7.85246 16.4652 7.77344 16.2662 7.77344H14.7662C13.9706 7.77344 13.2075 8.08951 12.6449 8.65212C12.0823 9.21473 11.7662 9.97779 11.7662 10.7734V13.0234H9.51624C9.31733 13.0234 9.12656 13.1025 8.98591 13.2431C8.84526 13.3838 8.76624 13.5745 8.76624 13.7734C8.76624 13.9724 8.84526 14.1631 8.98591 14.3038C9.12656 14.4444 9.31733 14.5234 9.51624 14.5234H11.7662V20.4888C9.65198 20.2957 7.69352 19.2951 6.29821 17.695C4.90291 16.0948 4.17818 14.0184 4.27478 11.8975C4.37139 9.77668 5.28188 7.77471 6.81687 6.30804C8.35187 4.84137 10.3932 4.02291 12.5162 4.02291C14.6393 4.02291 16.6806 4.84137 18.2156 6.30804C19.7506 7.77471 20.6611 9.77668 20.7577 11.8975C20.8543 14.0184 20.1296 16.0948 18.7343 17.695C17.339 19.2951 15.3805 20.2957 13.2662 20.4888Z" fill="black" fill-opacity="0.2"/>
</svg>
