<svg xmlns="http://www.w3.org/2000/svg" width="25" height="25" viewBox="0 0 25 25" fill="none">
  <g opacity="0.15">
    <path d="M15.0325 12.5L5.49998 22.0625C5.43067 21.9948 5.37569 21.9139 5.33832 21.8245C5.30095 21.7351 5.28196 21.6391 5.28248 21.5422V3.45781C5.28196 3.36093 5.30095 3.26493 5.33832 3.17554C5.37569 3.08615 5.43067 3.00519 5.49998 2.9375L15.0325 12.5Z" fill="#82101E"/>
    <path d="M15.0325 12.5L5.49998 22.0625C5.43067 21.9948 5.37569 21.9139 5.33832 21.8245C5.30095 21.7351 5.28196 21.6391 5.28248 21.5422V3.45781C5.28196 3.36093 5.30095 3.26493 5.33832 3.17554C5.37569 3.08615 5.43067 3.00519 5.49998 2.9375L15.0325 12.5Z" fill="black" fill-opacity="0.2"/>
  </g>
  <path d="M22.5156 11.2041L6.78251 2.20227C6.55314 2.06852 6.29239 1.99805 6.02688 1.99805C5.76137 1.99805 5.50062 2.06852 5.27126 2.20227C5.04528 2.33185 4.85779 2.51914 4.72799 2.74498C4.59818 2.97082 4.53072 3.2271 4.53251 3.48759V21.512C4.53176 21.7722 4.60011 22.0279 4.73056 22.2531C4.86101 22.4782 5.04889 22.6647 5.27501 22.7935C5.50437 22.9273 5.76512 22.9977 6.03063 22.9977C6.29614 22.9977 6.55689 22.9273 6.78626 22.7935L22.5156 13.7935C22.7479 13.6662 22.9417 13.4787 23.0767 13.2508C23.2117 13.0229 23.2829 12.7628 23.2829 12.4979C23.2829 12.233 23.2117 11.9729 23.0767 11.745C22.9417 11.5171 22.7479 11.3296 22.5156 11.2023V11.2041ZM6.03251 20.4376V4.56196L13.9722 12.4998L6.03251 20.4376ZM15.0325 13.5601L16.8063 15.3338L8.50938 20.0832L15.0325 13.5601ZM8.50751 4.9154L16.8072 9.66571L15.0325 11.4395L8.50751 4.9154ZM18.1553 14.5623L16.0928 12.4998L18.1553 10.4373L21.7581 12.4998L18.1553 14.5623Z" fill="#82101E"/>
  <path d="M22.5156 11.2041L6.78251 2.20227C6.55314 2.06852 6.29239 1.99805 6.02688 1.99805C5.76137 1.99805 5.50062 2.06852 5.27126 2.20227C5.04528 2.33185 4.85779 2.51914 4.72799 2.74498C4.59818 2.97082 4.53072 3.2271 4.53251 3.48759V21.512C4.53176 21.7722 4.60011 22.0279 4.73056 22.2531C4.86101 22.4782 5.04889 22.6647 5.27501 22.7935C5.50437 22.9273 5.76512 22.9977 6.03063 22.9977C6.29614 22.9977 6.55689 22.9273 6.78626 22.7935L22.5156 13.7935C22.7479 13.6662 22.9417 13.4787 23.0767 13.2508C23.2117 13.0229 23.2829 12.7628 23.2829 12.4979C23.2829 12.233 23.2117 11.9729 23.0767 11.745C22.9417 11.5171 22.7479 11.3296 22.5156 11.2023V11.2041ZM6.03251 20.4376V4.56196L13.9722 12.4998L6.03251 20.4376ZM15.0325 13.5601L16.8063 15.3338L8.50938 20.0832L15.0325 13.5601ZM8.50751 4.9154L16.8072 9.66571L15.0325 11.4395L8.50751 4.9154ZM18.1553 14.5623L16.0928 12.4998L18.1553 10.4373L21.7581 12.4998L18.1553 14.5623Z" fill="black" fill-opacity="0.2"/>
</svg>