<svg width="25" height="25" viewBox="0 0 25 25" fill="none" xmlns="http://www.w3.org/2000/svg">
<rect width="24" height="24" transform="translate(0.860352 0.273438)" fill="#8979FF"/>
<g opacity="0.15">
<path d="M17.3604 3.27344H8.36035C7.16688 3.27344 6.02228 3.74754 5.17837 4.59146C4.33446 5.43537 3.86035 6.57996 3.86035 7.77344V16.7734C3.86035 17.9669 4.33446 19.1115 5.17837 19.9554C6.02228 20.7993 7.16688 21.2734 8.36035 21.2734H17.3604C18.5538 21.2734 19.6984 20.7993 20.5423 19.9554C21.3862 19.1115 21.8604 17.9669 21.8604 16.7734V7.77344C21.8604 6.57996 21.3862 5.43537 20.5423 4.59146C19.6984 3.74754 18.5538 3.27344 17.3604 3.27344ZM12.8604 16.0234C12.1187 16.0234 11.3936 15.8035 10.777 15.3914C10.1603 14.9794 9.67963 14.3937 9.3958 13.7085C9.11197 13.0233 9.03771 12.2693 9.18241 11.5418C9.3271 10.8144 9.68425 10.1462 10.2087 9.62179C10.7331 9.09734 11.4013 8.74019 12.1288 8.59549C12.8562 8.4508 13.6102 8.52506 14.2954 8.80889C14.9806 9.09272 15.5663 9.57336 15.9784 10.19C16.3904 10.8067 16.6104 11.5318 16.6104 12.2734C16.6104 13.268 16.2153 14.2218 15.512 14.9251C14.8087 15.6283 13.8549 16.0234 12.8604 16.0234Z" fill="#82101E"/>
<path d="M17.3604 3.27344H8.36035C7.16688 3.27344 6.02228 3.74754 5.17837 4.59146C4.33446 5.43537 3.86035 6.57996 3.86035 7.77344V16.7734C3.86035 17.9669 4.33446 19.1115 5.17837 19.9554C6.02228 20.7993 7.16688 21.2734 8.36035 21.2734H17.3604C18.5538 21.2734 19.6984 20.7993 20.5423 19.9554C21.3862 19.1115 21.8604 17.9669 21.8604 16.7734V7.77344C21.8604 6.57996 21.3862 5.43537 20.5423 4.59146C19.6984 3.74754 18.5538 3.27344 17.3604 3.27344ZM12.8604 16.0234C12.1187 16.0234 11.3936 15.8035 10.777 15.3914C10.1603 14.9794 9.67963 14.3937 9.3958 13.7085C9.11197 13.0233 9.03771 12.2693 9.18241 11.5418C9.3271 10.8144 9.68425 10.1462 10.2087 9.62179C10.7331 9.09734 11.4013 8.74019 12.1288 8.59549C12.8562 8.4508 13.6102 8.52506 14.2954 8.80889C14.9806 9.09272 15.5663 9.57336 15.9784 10.19C16.3904 10.8067 16.6104 11.5318 16.6104 12.2734C16.6104 13.268 16.2153 14.2218 15.512 14.9251C14.8087 15.6283 13.8549 16.0234 12.8604 16.0234Z" fill="black" fill-opacity="0.2"/>
</g>
<path d="M17.3604 2.52344H8.36035C6.96842 2.52493 5.63393 3.07853 4.64969 4.06277C3.66544 5.04701 3.11184 6.38151 3.11035 7.77344V16.7734C3.11184 18.1654 3.66544 19.4999 4.64969 20.4841C5.63393 21.4683 6.96842 22.0219 8.36035 22.0234H17.3604C18.7523 22.0219 20.0868 21.4683 21.071 20.4841C22.0553 19.4999 22.6089 18.1654 22.6104 16.7734V7.77344C22.6089 6.38151 22.0553 5.04701 21.071 4.06277C20.0868 3.07853 18.7523 2.52493 17.3604 2.52344ZM21.1104 16.7734C21.1104 17.768 20.7153 18.7218 20.012 19.4251C19.3087 20.1283 18.3549 20.5234 17.3604 20.5234H8.36035C7.36579 20.5234 6.41196 20.1283 5.7087 19.4251C5.00544 18.7218 4.61035 17.768 4.61035 16.7734V7.77344C4.61035 6.77888 5.00544 5.82505 5.7087 5.12179C6.41196 4.41853 7.36579 4.02344 8.36035 4.02344H17.3604C18.3549 4.02344 19.3087 4.41853 20.012 5.12179C20.7153 5.82505 21.1104 6.77888 21.1104 7.77344V16.7734ZM12.8604 7.77344C11.9703 7.77344 11.1003 8.03736 10.3603 8.53182C9.62026 9.02629 9.04349 9.72909 8.70289 10.5514C8.3623 11.3736 8.27318 12.2784 8.44682 13.1513C8.62045 14.0243 9.04904 14.8261 9.67837 15.4554C10.3077 16.0848 11.1095 16.5133 11.9824 16.687C12.8554 16.8606 13.7602 16.7715 14.5824 16.4309C15.4047 16.0903 16.1075 15.5135 16.602 14.7735C17.0964 14.0335 17.3604 13.1635 17.3604 12.2734C17.3591 11.0803 16.8846 9.93647 16.041 9.09283C15.1973 8.24918 14.0534 7.77468 12.8604 7.77344ZM12.8604 15.2734C12.267 15.2734 11.687 15.0975 11.1936 14.7678C10.7003 14.4382 10.3158 13.9697 10.0887 13.4215C9.86165 12.8733 9.80224 12.2701 9.918 11.6882C10.0338 11.1062 10.3195 10.5717 10.739 10.1521C11.1586 9.73256 11.6931 9.44684 12.2751 9.33108C12.857 9.21533 13.4602 9.27474 14.0084 9.5018C14.5566 9.72886 15.0251 10.1134 15.3548 10.6067C15.6844 11.1001 15.8604 11.6801 15.8604 12.2734C15.8604 13.0691 15.5443 13.8321 14.9817 14.3948C14.4191 14.9574 13.656 15.2734 12.8604 15.2734ZM18.8604 7.39844C18.8604 7.62094 18.7944 7.83845 18.6708 8.02345C18.5471 8.20846 18.3714 8.35265 18.1659 8.4378C17.9603 8.52295 17.7341 8.54523 17.5159 8.50182C17.2976 8.45841 17.0972 8.35127 16.9399 8.19393C16.7825 8.0366 16.6754 7.83614 16.632 7.61791C16.5886 7.39969 16.6108 7.17349 16.696 6.96792C16.7811 6.76235 16.9253 6.58665 17.1103 6.46303C17.2953 6.33942 17.5128 6.27344 17.7354 6.27344C18.0337 6.27344 18.3199 6.39196 18.5308 6.60294C18.7418 6.81392 18.8604 7.10007 18.8604 7.39844Z" fill="#82101E"/>
<path d="M17.3604 2.52344H8.36035C6.96842 2.52493 5.63393 3.07853 4.64969 4.06277C3.66544 5.04701 3.11184 6.38151 3.11035 7.77344V16.7734C3.11184 18.1654 3.66544 19.4999 4.64969 20.4841C5.63393 21.4683 6.96842 22.0219 8.36035 22.0234H17.3604C18.7523 22.0219 20.0868 21.4683 21.071 20.4841C22.0553 19.4999 22.6089 18.1654 22.6104 16.7734V7.77344C22.6089 6.38151 22.0553 5.04701 21.071 4.06277C20.0868 3.07853 18.7523 2.52493 17.3604 2.52344ZM21.1104 16.7734C21.1104 17.768 20.7153 18.7218 20.012 19.4251C19.3087 20.1283 18.3549 20.5234 17.3604 20.5234H8.36035C7.36579 20.5234 6.41196 20.1283 5.7087 19.4251C5.00544 18.7218 4.61035 17.768 4.61035 16.7734V7.77344C4.61035 6.77888 5.00544 5.82505 5.7087 5.12179C6.41196 4.41853 7.36579 4.02344 8.36035 4.02344H17.3604C18.3549 4.02344 19.3087 4.41853 20.012 5.12179C20.7153 5.82505 21.1104 6.77888 21.1104 7.77344V16.7734ZM12.8604 7.77344C11.9703 7.77344 11.1003 8.03736 10.3603 8.53182C9.62026 9.02629 9.04349 9.72909 8.70289 10.5514C8.3623 11.3736 8.27318 12.2784 8.44682 13.1513C8.62045 14.0243 9.04904 14.8261 9.67837 15.4554C10.3077 16.0848 11.1095 16.5133 11.9824 16.687C12.8554 16.8606 13.7602 16.7715 14.5824 16.4309C15.4047 16.0903 16.1075 15.5135 16.602 14.7735C17.0964 14.0335 17.3604 13.1635 17.3604 12.2734C17.3591 11.0803 16.8846 9.93647 16.041 9.09283C15.1973 8.24918 14.0534 7.77468 12.8604 7.77344ZM12.8604 15.2734C12.267 15.2734 11.687 15.0975 11.1936 14.7678C10.7003 14.4382 10.3158 13.9697 10.0887 13.4215C9.86165 12.8733 9.80224 12.2701 9.918 11.6882C10.0338 11.1062 10.3195 10.5717 10.739 10.1521C11.1586 9.73256 11.6931 9.44684 12.2751 9.33108C12.857 9.21533 13.4602 9.27474 14.0084 9.5018C14.5566 9.72886 15.0251 10.1134 15.3548 10.6067C15.6844 11.1001 15.8604 11.6801 15.8604 12.2734C15.8604 13.0691 15.5443 13.8321 14.9817 14.3948C14.4191 14.9574 13.656 15.2734 12.8604 15.2734ZM18.8604 7.39844C18.8604 7.62094 18.7944 7.83845 18.6708 8.02345C18.5471 8.20846 18.3714 8.35265 18.1659 8.4378C17.9603 8.52295 17.7341 8.54523 17.5159 8.50182C17.2976 8.45841 17.0972 8.35127 16.9399 8.19393C16.7825 8.0366 16.6754 7.83614 16.632 7.61791C16.5886 7.39969 16.6108 7.17349 16.696 6.96792C16.7811 6.76235 16.9253 6.58665 17.1103 6.46303C17.2953 6.33942 17.5128 6.27344 17.7354 6.27344C18.0337 6.27344 18.3199 6.39196 18.5308 6.60294C18.7418 6.81392 18.8604 7.10007 18.8604 7.39844Z" fill="black" fill-opacity="0.2"/>
</svg>
