<svg xmlns="http://www.w3.org/2000/svg" width="25" height="25" viewBox="0 0 25 25" fill="none">
  <g opacity="0.15">
    <path d="M17.3604 3.5H8.36035C7.16688 3.5 6.02228 3.97411 5.17837 4.81802C4.33446 5.66193 3.86035 6.80653 3.86035 8V17C3.86035 18.1935 4.33446 19.3381 5.17837 20.182C6.02228 21.0259 7.16688 21.5 8.36035 21.5H17.3604C18.5538 21.5 19.6984 21.0259 20.5423 20.182C21.3862 19.3381 21.8604 18.1935 21.8604 17V8C21.8604 6.80653 21.3862 5.66193 20.5423 4.81802C19.6984 3.97411 18.5538 3.5 17.3604 3.5ZM12.8604 16.25C12.1187 16.25 11.3936 16.0301 10.777 15.618C10.1603 15.206 9.67963 14.6203 9.3958 13.9351C9.11197 13.2498 9.03771 12.4958 9.18241 11.7684C9.3271 11.041 9.68425 10.3728 10.2087 9.84835C10.7331 9.3239 11.4013 8.96675 12.1288 8.82205C12.8562 8.67736 13.6102 8.75162 14.2954 9.03545C14.9806 9.31928 15.5663 9.79993 15.9784 10.4166C16.3904 11.0333 16.6104 11.7583 16.6104 12.5C16.6104 13.4946 16.2153 14.4484 15.512 15.1517C14.8087 15.8549 13.8549 16.25 12.8604 16.25Z" fill="#82101E"/>
    <path d="M17.3604 3.5H8.36035C7.16688 3.5 6.02228 3.97411 5.17837 4.81802C4.33446 5.66193 3.86035 6.80653 3.86035 8V17C3.86035 18.1935 4.33446 19.3381 5.17837 20.182C6.02228 21.0259 7.16688 21.5 8.36035 21.5H17.3604C18.5538 21.5 19.6984 21.0259 20.5423 20.182C21.3862 19.3381 21.8604 18.1935 21.8604 17V8C21.8604 6.80653 21.3862 5.66193 20.5423 4.81802C19.6984 3.97411 18.5538 3.5 17.3604 3.5ZM12.8604 16.25C12.1187 16.25 11.3936 16.0301 10.777 15.618C10.1603 15.206 9.67963 14.6203 9.3958 13.9351C9.11197 13.2498 9.03771 12.4958 9.18241 11.7684C9.3271 11.041 9.68425 10.3728 10.2087 9.84835C10.7331 9.3239 11.4013 8.96675 12.1288 8.82205C12.8562 8.67736 13.6102 8.75162 14.2954 9.03545C14.9806 9.31928 15.5663 9.79993 15.9784 10.4166C16.3904 11.0333 16.6104 11.7583 16.6104 12.5C16.6104 13.4946 16.2153 14.4484 15.512 15.1517C14.8087 15.8549 13.8549 16.25 12.8604 16.25Z" fill="black" fill-opacity="0.2"/>
  </g>
  <path d="M17.3604 2.75H8.36035C6.96842 2.75149 5.63393 3.30509 4.64969 4.28933C3.66544 5.27358 3.11184 6.60807 3.11035 8V17C3.11184 18.3919 3.66544 19.7264 4.64969 20.7107C5.63393 21.6949 6.96842 22.2485 8.36035 22.25H17.3604C18.7523 22.2485 20.0868 21.6949 21.071 20.7107C22.0553 19.7264 22.6089 18.3919 22.6104 17V8C22.6089 6.60807 22.0553 5.27358 21.071 4.28933C20.0868 3.30509 18.7523 2.75149 17.3604 2.75ZM21.1104 17C21.1104 17.9946 20.7153 18.9484 20.012 19.6516C19.3087 20.3549 18.3549 20.75 17.3604 20.75H8.36035C7.36579 20.75 6.41196 20.3549 5.7087 19.6516C5.00544 18.9484 4.61035 17.9946 4.61035 17V8C4.61035 7.00544 5.00544 6.05161 5.7087 5.34835C6.41196 4.64509 7.36579 4.25 8.36035 4.25H17.3604C18.3549 4.25 19.3087 4.64509 20.012 5.34835C20.7153 6.05161 21.1104 7.00544 21.1104 8V17ZM12.8604 8C11.9703 8 11.1003 8.26392 10.3603 8.75839C9.62026 9.25285 9.04349 9.95566 8.70289 10.7779C8.3623 11.6002 8.27318 12.505 8.44682 13.3779C8.62045 14.2508 9.04904 15.0526 9.67837 15.682C10.3077 16.3113 11.1095 16.7399 11.9824 16.9135C12.8554 17.0872 13.7602 16.9981 14.5824 16.6575C15.4047 16.3169 16.1075 15.7401 16.602 15.0001C17.0964 14.26 17.3604 13.39 17.3604 12.5C17.3591 11.3069 16.8846 10.163 16.041 9.31939C15.1973 8.47575 14.0534 8.00124 12.8604 8ZM12.8604 15.5C12.267 15.5 11.687 15.3241 11.1936 14.9944C10.7003 14.6648 10.3158 14.1962 10.0887 13.6481C9.86165 13.0999 9.80224 12.4967 9.918 11.9147C10.0338 11.3328 10.3195 10.7982 10.739 10.3787C11.1586 9.95912 11.6931 9.6734 12.2751 9.55764C12.857 9.44189 13.4602 9.5013 14.0084 9.72836C14.5566 9.95542 15.0251 10.3399 15.3548 10.8333C15.6844 11.3266 15.8604 11.9067 15.8604 12.5C15.8604 13.2956 15.5443 14.0587 14.9817 14.6213C14.4191 15.1839 13.656 15.5 12.8604 15.5ZM18.8604 7.625C18.8604 7.8475 18.7944 8.06501 18.6708 8.25002C18.5471 8.43502 18.3714 8.57922 18.1659 8.66436C17.9603 8.74951 17.7341 8.77179 17.5159 8.72838C17.2976 8.68498 17.0972 8.57783 16.9399 8.4205C16.7825 8.26316 16.6754 8.06271 16.632 7.84448C16.5886 7.62625 16.6108 7.40005 16.696 7.19448C16.7811 6.98891 16.9253 6.81321 17.1103 6.6896C17.2953 6.56598 17.5128 6.5 17.7354 6.5C18.0337 6.5 18.3199 6.61853 18.5308 6.8295C18.7418 7.04048 18.8604 7.32663 18.8604 7.625Z" fill="#82101E"/>
  <path d="M17.3604 2.75H8.36035C6.96842 2.75149 5.63393 3.30509 4.64969 4.28933C3.66544 5.27358 3.11184 6.60807 3.11035 8V17C3.11184 18.3919 3.66544 19.7264 4.64969 20.7107C5.63393 21.6949 6.96842 22.2485 8.36035 22.25H17.3604C18.7523 22.2485 20.0868 21.6949 21.071 20.7107C22.0553 19.7264 22.6089 18.3919 22.6104 17V8C22.6089 6.60807 22.0553 5.27358 21.071 4.28933C20.0868 3.30509 18.7523 2.75149 17.3604 2.75ZM21.1104 17C21.1104 17.9946 20.7153 18.9484 20.012 19.6516C19.3087 20.3549 18.3549 20.75 17.3604 20.75H8.36035C7.36579 20.75 6.41196 20.3549 5.7087 19.6516C5.00544 18.9484 4.61035 17.9946 4.61035 17V8C4.61035 7.00544 5.00544 6.05161 5.7087 5.34835C6.41196 4.64509 7.36579 4.25 8.36035 4.25H17.3604C18.3549 4.25 19.3087 4.64509 20.012 5.34835C20.7153 6.05161 21.1104 7.00544 21.1104 8V17ZM12.8604 8C11.9703 8 11.1003 8.26392 10.3603 8.75839C9.62026 9.25285 9.04349 9.95566 8.70289 10.7779C8.3623 11.6002 8.27318 12.505 8.44682 13.3779C8.62045 14.2508 9.04904 15.0526 9.67837 15.682C10.3077 16.3113 11.1095 16.7399 11.9824 16.9135C12.8554 17.0872 13.7602 16.9981 14.5824 16.6575C15.4047 16.3169 16.1075 15.7401 16.602 15.0001C17.0964 14.26 17.3604 13.39 17.3604 12.5C17.3591 11.3069 16.8846 10.163 16.041 9.31939C15.1973 8.47575 14.0534 8.00124 12.8604 8ZM12.8604 15.5C12.267 15.5 11.687 15.3241 11.1936 14.9944C10.7003 14.6648 10.3158 14.1962 10.0887 13.6481C9.86165 13.0999 9.80224 12.4967 9.918 11.9147C10.0338 11.3328 10.3195 10.7982 10.739 10.3787C11.1586 9.95912 11.6931 9.6734 12.2751 9.55764C12.857 9.44189 13.4602 9.5013 14.0084 9.72836C14.5566 9.95542 15.0251 10.3399 15.3548 10.8333C15.6844 11.3266 15.8604 11.9067 15.8604 12.5C15.8604 13.2956 15.5443 14.0587 14.9817 14.6213C14.4191 15.1839 13.656 15.5 12.8604 15.5ZM18.8604 7.625C18.8604 7.8475 18.7944 8.06501 18.6708 8.25002C18.5471 8.43502 18.3714 8.57922 18.1659 8.66436C17.9603 8.74951 17.7341 8.77179 17.5159 8.72838C17.2976 8.68498 17.0972 8.57783 16.9399 8.4205C16.7825 8.26316 16.6754 8.06271 16.632 7.84448C16.5886 7.62625 16.6108 7.40005 16.696 7.19448C16.7811 6.98891 16.9253 6.81321 17.1103 6.6896C17.2953 6.56598 17.5128 6.5 17.7354 6.5C18.0337 6.5 18.3199 6.61853 18.5308 6.8295C18.7418 7.04048 18.8604 7.32663 18.8604 7.625Z" fill="black" fill-opacity="0.2"/>
</svg>