<svg width="25" height="25" viewBox="0 0 25 25" fill="none" xmlns="http://www.w3.org/2000/svg">
<rect width="24" height="24" transform="translate(0.344116 0.273438)" fill="#E68AF3"/>
<g opacity="0.15">
<path d="M21.3441 4.02344V20.5234C21.3441 20.7223 21.2651 20.9131 21.1244 21.0538C20.9838 21.1944 20.793 21.2734 20.5941 21.2734H4.09412C3.8952 21.2734 3.70444 21.1944 3.56379 21.0538C3.42313 20.9131 3.34412 20.7223 3.34412 20.5234V4.02344C3.34412 3.82453 3.42313 3.63376 3.56379 3.49311C3.70444 3.35246 3.8952 3.27344 4.09412 3.27344H20.5941C20.793 3.27344 20.9838 3.35246 21.1244 3.49311C21.2651 3.63376 21.3441 3.82453 21.3441 4.02344Z" fill="#82101E"/>
<path d="M21.3441 4.02344V20.5234C21.3441 20.7223 21.2651 20.9131 21.1244 21.0538C20.9838 21.1944 20.793 21.2734 20.5941 21.2734H4.09412C3.8952 21.2734 3.70444 21.1944 3.56379 21.0538C3.42313 20.9131 3.34412 20.7223 3.34412 20.5234V4.02344C3.34412 3.82453 3.42313 3.63376 3.56379 3.49311C3.70444 3.35246 3.8952 3.27344 4.09412 3.27344H20.5941C20.793 3.27344 20.9838 3.35246 21.1244 3.49311C21.2651 3.63376 21.3441 3.82453 21.3441 4.02344Z" fill="black" fill-opacity="0.2"/>
</g>
<path d="M20.5941 2.52344H4.09412C3.69629 2.52344 3.31476 2.68147 3.03346 2.96278C2.75215 3.24408 2.59412 3.62561 2.59412 4.02344V20.5234C2.59412 20.9213 2.75215 21.3028 3.03346 21.5841C3.31476 21.8654 3.69629 22.0234 4.09412 22.0234H20.5941C20.9919 22.0234 21.3735 21.8654 21.6548 21.5841C21.9361 21.3028 22.0941 20.9213 22.0941 20.5234V4.02344C22.0941 3.62561 21.9361 3.24408 21.6548 2.96278C21.3735 2.68147 20.9919 2.52344 20.5941 2.52344ZM20.5941 20.5234H4.09412V4.02344H20.5941V20.5234ZM9.34412 10.7734V16.7734C9.34412 16.9724 9.2651 17.1631 9.12445 17.3038C8.98379 17.4444 8.79303 17.5234 8.59412 17.5234C8.3952 17.5234 8.20444 17.4444 8.06379 17.3038C7.92313 17.1631 7.84412 16.9724 7.84412 16.7734V10.7734C7.84412 10.5745 7.92313 10.3838 8.06379 10.2431C8.20444 10.1025 8.3952 10.0234 8.59412 10.0234C8.79303 10.0234 8.98379 10.1025 9.12445 10.2431C9.2651 10.3838 9.34412 10.5745 9.34412 10.7734ZM17.5941 13.3984V16.7734C17.5941 16.9724 17.5151 17.1631 17.3744 17.3038C17.2338 17.4444 17.043 17.5234 16.8441 17.5234C16.6452 17.5234 16.4544 17.4444 16.3138 17.3038C16.1731 17.1631 16.0941 16.9724 16.0941 16.7734V13.3984C16.0941 12.9012 15.8966 12.4242 15.5449 12.0726C15.1933 11.721 14.7164 11.5234 14.2191 11.5234C13.7218 11.5234 13.2449 11.721 12.8933 12.0726C12.5417 12.4242 12.3441 12.9012 12.3441 13.3984V16.7734C12.3441 16.9724 12.2651 17.1631 12.1244 17.3038C11.9838 17.4444 11.793 17.5234 11.5941 17.5234C11.3952 17.5234 11.2044 17.4444 11.0638 17.3038C10.9231 17.1631 10.8441 16.9724 10.8441 16.7734V10.7734C10.845 10.5897 10.9134 10.4128 11.0361 10.2761C11.1589 10.1394 11.3275 10.0525 11.5101 10.032C11.6926 10.0114 11.8764 10.0585 12.0265 10.1644C12.1766 10.2703 12.2826 10.4277 12.3244 10.6066C12.8318 10.2624 13.4233 10.0629 14.0355 10.0295C14.6477 9.99619 15.2574 10.1302 15.7991 10.4172C16.3409 10.7043 16.7942 11.1334 17.1105 11.6587C17.4267 12.1839 17.5939 12.7853 17.5941 13.3984ZM9.71912 8.14844C9.71912 8.37094 9.65314 8.58845 9.52952 8.77345C9.4059 8.95846 9.2302 9.10265 9.02464 9.1878C8.81907 9.27295 8.59287 9.29523 8.37464 9.25182C8.15641 9.20841 7.95596 9.10127 7.79862 8.94393C7.64129 8.7866 7.53414 8.58614 7.49073 8.36791C7.44732 8.14969 7.4696 7.92349 7.55475 7.71792C7.6399 7.51235 7.78409 7.33665 7.9691 7.21303C8.15411 7.08942 8.37161 7.02344 8.59412 7.02344C8.89248 7.02344 9.17863 7.14196 9.38961 7.35294C9.60059 7.56392 9.71912 7.85007 9.71912 8.14844Z" fill="#82101E"/>
<path d="M20.5941 2.52344H4.09412C3.69629 2.52344 3.31476 2.68147 3.03346 2.96278C2.75215 3.24408 2.59412 3.62561 2.59412 4.02344V20.5234C2.59412 20.9213 2.75215 21.3028 3.03346 21.5841C3.31476 21.8654 3.69629 22.0234 4.09412 22.0234H20.5941C20.9919 22.0234 21.3735 21.8654 21.6548 21.5841C21.9361 21.3028 22.0941 20.9213 22.0941 20.5234V4.02344C22.0941 3.62561 21.9361 3.24408 21.6548 2.96278C21.3735 2.68147 20.9919 2.52344 20.5941 2.52344ZM20.5941 20.5234H4.09412V4.02344H20.5941V20.5234ZM9.34412 10.7734V16.7734C9.34412 16.9724 9.2651 17.1631 9.12445 17.3038C8.98379 17.4444 8.79303 17.5234 8.59412 17.5234C8.3952 17.5234 8.20444 17.4444 8.06379 17.3038C7.92313 17.1631 7.84412 16.9724 7.84412 16.7734V10.7734C7.84412 10.5745 7.92313 10.3838 8.06379 10.2431C8.20444 10.1025 8.3952 10.0234 8.59412 10.0234C8.79303 10.0234 8.98379 10.1025 9.12445 10.2431C9.2651 10.3838 9.34412 10.5745 9.34412 10.7734ZM17.5941 13.3984V16.7734C17.5941 16.9724 17.5151 17.1631 17.3744 17.3038C17.2338 17.4444 17.043 17.5234 16.8441 17.5234C16.6452 17.5234 16.4544 17.4444 16.3138 17.3038C16.1731 17.1631 16.0941 16.9724 16.0941 16.7734V13.3984C16.0941 12.9012 15.8966 12.4242 15.5449 12.0726C15.1933 11.721 14.7164 11.5234 14.2191 11.5234C13.7218 11.5234 13.2449 11.721 12.8933 12.0726C12.5417 12.4242 12.3441 12.9012 12.3441 13.3984V16.7734C12.3441 16.9724 12.2651 17.1631 12.1244 17.3038C11.9838 17.4444 11.793 17.5234 11.5941 17.5234C11.3952 17.5234 11.2044 17.4444 11.0638 17.3038C10.9231 17.1631 10.8441 16.9724 10.8441 16.7734V10.7734C10.845 10.5897 10.9134 10.4128 11.0361 10.2761C11.1589 10.1394 11.3275 10.0525 11.5101 10.032C11.6926 10.0114 11.8764 10.0585 12.0265 10.1644C12.1766 10.2703 12.2826 10.4277 12.3244 10.6066C12.8318 10.2624 13.4233 10.0629 14.0355 10.0295C14.6477 9.99619 15.2574 10.1302 15.7991 10.4172C16.3409 10.7043 16.7942 11.1334 17.1105 11.6587C17.4267 12.1839 17.5939 12.7853 17.5941 13.3984ZM9.71912 8.14844C9.71912 8.37094 9.65314 8.58845 9.52952 8.77345C9.4059 8.95846 9.2302 9.10265 9.02464 9.1878C8.81907 9.27295 8.59287 9.29523 8.37464 9.25182C8.15641 9.20841 7.95596 9.10127 7.79862 8.94393C7.64129 8.7866 7.53414 8.58614 7.49073 8.36791C7.44732 8.14969 7.4696 7.92349 7.55475 7.71792C7.6399 7.51235 7.78409 7.33665 7.9691 7.21303C8.15411 7.08942 8.37161 7.02344 8.59412 7.02344C8.89248 7.02344 9.17863 7.14196 9.38961 7.35294C9.60059 7.56392 9.71912 7.85007 9.71912 8.14844Z" fill="black" fill-opacity="0.2"/>
</svg>
