<svg xmlns="http://www.w3.org/2000/svg" width="25" height="25" viewBox="0 0 25 25" fill="none">
  <g opacity="0.15">
    <path d="M21.3441 4.25V20.75C21.3441 20.9489 21.2651 21.1397 21.1244 21.2803C20.9838 21.421 20.793 21.5 20.5941 21.5H4.09412C3.8952 21.5 3.70444 21.421 3.56379 21.2803C3.42313 21.1397 3.34412 20.9489 3.34412 20.75V4.25C3.34412 4.05109 3.42313 3.86032 3.56379 3.71967C3.70444 3.57902 3.8952 3.5 4.09412 3.5H20.5941C20.793 3.5 20.9838 3.57902 21.1244 3.71967C21.2651 3.86032 21.3441 4.05109 21.3441 4.25Z" fill="#82101E"/>
    <path d="M21.3441 4.25V20.75C21.3441 20.9489 21.2651 21.1397 21.1244 21.2803C20.9838 21.421 20.793 21.5 20.5941 21.5H4.09412C3.8952 21.5 3.70444 21.421 3.56379 21.2803C3.42313 21.1397 3.34412 20.9489 3.34412 20.75V4.25C3.34412 4.05109 3.42313 3.86032 3.56379 3.71967C3.70444 3.57902 3.8952 3.5 4.09412 3.5H20.5941C20.793 3.5 20.9838 3.57902 21.1244 3.71967C21.2651 3.86032 21.3441 4.05109 21.3441 4.25Z" fill="black" fill-opacity="0.2"/>
  </g>
  <path d="M20.5941 2.75H4.09412C3.69629 2.75 3.31476 2.90804 3.03346 3.18934C2.75215 3.47064 2.59412 3.85218 2.59412 4.25V20.75C2.59412 21.1478 2.75215 21.5294 3.03346 21.8107C3.31476 22.092 3.69629 22.25 4.09412 22.25H20.5941C20.9919 22.25 21.3735 22.092 21.6548 21.8107C21.9361 21.5294 22.0941 21.1478 22.0941 20.75V4.25C22.0941 3.85218 21.9361 3.47064 21.6548 3.18934C21.3735 2.90804 20.9919 2.75 20.5941 2.75ZM20.5941 20.75H4.09412V4.25H20.5941V20.75ZM9.34412 11V17C9.34412 17.1989 9.2651 17.3897 9.12445 17.5303C8.98379 17.671 8.79303 17.75 8.59412 17.75C8.3952 17.75 8.20444 17.671 8.06379 17.5303C7.92313 17.3897 7.84412 17.1989 7.84412 17V11C7.84412 10.8011 7.92313 10.6103 8.06379 10.4697C8.20444 10.329 8.3952 10.25 8.59412 10.25C8.79303 10.25 8.98379 10.329 9.12445 10.4697C9.2651 10.6103 9.34412 10.8011 9.34412 11ZM17.5941 13.625V17C17.5941 17.1989 17.5151 17.3897 17.3744 17.5303C17.2338 17.671 17.043 17.75 16.8441 17.75C16.6452 17.75 16.4544 17.671 16.3138 17.5303C16.1731 17.3897 16.0941 17.1989 16.0941 17V13.625C16.0941 13.1277 15.8966 12.6508 15.5449 12.2992C15.1933 11.9475 14.7164 11.75 14.2191 11.75C13.7218 11.75 13.2449 11.9475 12.8933 12.2992C12.5417 12.6508 12.3441 13.1277 12.3441 13.625V17C12.3441 17.1989 12.2651 17.3897 12.1244 17.5303C11.9838 17.671 11.793 17.75 11.5941 17.75C11.3952 17.75 11.2044 17.671 11.0638 17.5303C10.9231 17.3897 10.8441 17.1989 10.8441 17V11C10.845 10.8163 10.9134 10.6393 11.0361 10.5026C11.1589 10.366 11.3275 10.2791 11.5101 10.2585C11.6926 10.2379 11.8764 10.2851 12.0265 10.391C12.1766 10.4969 12.2826 10.6542 12.3244 10.8331C12.8318 10.4889 13.4233 10.2895 14.0355 10.2561C14.6477 10.2228 15.2574 10.3568 15.7991 10.6438C16.3409 10.9308 16.7942 11.36 17.1105 11.8852C17.4267 12.4105 17.5939 13.0119 17.5941 13.625ZM9.71912 8.375C9.71912 8.5975 9.65314 8.81501 9.52952 9.00002C9.4059 9.18502 9.2302 9.32922 9.02464 9.41436C8.81907 9.49951 8.59287 9.52179 8.37464 9.47838C8.15641 9.43498 7.95596 9.32783 7.79862 9.1705C7.64129 9.01316 7.53414 8.81271 7.49073 8.59448C7.44732 8.37625 7.4696 8.15005 7.55475 7.94448C7.6399 7.73891 7.78409 7.56321 7.9691 7.4396C8.15411 7.31598 8.37161 7.25 8.59412 7.25C8.89248 7.25 9.17863 7.36853 9.38961 7.5795C9.60059 7.79048 9.71912 8.07663 9.71912 8.375Z" fill="#82101E"/>
  <path d="M20.5941 2.75H4.09412C3.69629 2.75 3.31476 2.90804 3.03346 3.18934C2.75215 3.47064 2.59412 3.85218 2.59412 4.25V20.75C2.59412 21.1478 2.75215 21.5294 3.03346 21.8107C3.31476 22.092 3.69629 22.25 4.09412 22.25H20.5941C20.9919 22.25 21.3735 22.092 21.6548 21.8107C21.9361 21.5294 22.0941 21.1478 22.0941 20.75V4.25C22.0941 3.85218 21.9361 3.47064 21.6548 3.18934C21.3735 2.90804 20.9919 2.75 20.5941 2.75ZM20.5941 20.75H4.09412V4.25H20.5941V20.75ZM9.34412 11V17C9.34412 17.1989 9.2651 17.3897 9.12445 17.5303C8.98379 17.671 8.79303 17.75 8.59412 17.75C8.3952 17.75 8.20444 17.671 8.06379 17.5303C7.92313 17.3897 7.84412 17.1989 7.84412 17V11C7.84412 10.8011 7.92313 10.6103 8.06379 10.4697C8.20444 10.329 8.3952 10.25 8.59412 10.25C8.79303 10.25 8.98379 10.329 9.12445 10.4697C9.2651 10.6103 9.34412 10.8011 9.34412 11ZM17.5941 13.625V17C17.5941 17.1989 17.5151 17.3897 17.3744 17.5303C17.2338 17.671 17.043 17.75 16.8441 17.75C16.6452 17.75 16.4544 17.671 16.3138 17.5303C16.1731 17.3897 16.0941 17.1989 16.0941 17V13.625C16.0941 13.1277 15.8966 12.6508 15.5449 12.2992C15.1933 11.9475 14.7164 11.75 14.2191 11.75C13.7218 11.75 13.2449 11.9475 12.8933 12.2992C12.5417 12.6508 12.3441 13.1277 12.3441 13.625V17C12.3441 17.1989 12.2651 17.3897 12.1244 17.5303C11.9838 17.671 11.793 17.75 11.5941 17.75C11.3952 17.75 11.2044 17.671 11.0638 17.5303C10.9231 17.3897 10.8441 17.1989 10.8441 17V11C10.845 10.8163 10.9134 10.6393 11.0361 10.5026C11.1589 10.366 11.3275 10.2791 11.5101 10.2585C11.6926 10.2379 11.8764 10.2851 12.0265 10.391C12.1766 10.4969 12.2826 10.6542 12.3244 10.8331C12.8318 10.4889 13.4233 10.2895 14.0355 10.2561C14.6477 10.2228 15.2574 10.3568 15.7991 10.6438C16.3409 10.9308 16.7942 11.36 17.1105 11.8852C17.4267 12.4105 17.5939 13.0119 17.5941 13.625ZM9.71912 8.375C9.71912 8.5975 9.65314 8.81501 9.52952 9.00002C9.4059 9.18502 9.2302 9.32922 9.02464 9.41436C8.81907 9.49951 8.59287 9.52179 8.37464 9.47838C8.15641 9.43498 7.95596 9.32783 7.79862 9.1705C7.64129 9.01316 7.53414 8.81271 7.49073 8.59448C7.44732 8.37625 7.4696 8.15005 7.55475 7.94448C7.6399 7.73891 7.78409 7.56321 7.9691 7.4396C8.15411 7.31598 8.37161 7.25 8.59412 7.25C8.89248 7.25 9.17863 7.36853 9.38961 7.5795C9.60059 7.79048 9.71912 8.07663 9.71912 8.375Z" fill="black" fill-opacity="0.2"/>
</svg>