<svg xmlns="http://www.w3.org/2000/svg" width="32" height="33" viewBox="0 0 32 33" fill="none">
  <path d="M29.25 10.2884C28.9684 9.96934 28.6222 9.71381 28.2342 9.53881C27.8463 9.36381 27.4256 9.27335 27 9.27344H20V7.27344C20 5.94736 19.4732 4.67559 18.5355 3.7379C17.5979 2.80022 16.3261 2.27344 15 2.27344C14.8142 2.2733 14.6321 2.32493 14.474 2.42251C14.3159 2.5201 14.1881 2.6598 14.105 2.82594L9.3825 12.2734H4C3.46957 12.2734 2.96086 12.4842 2.58579 12.8592C2.21071 13.2343 2 13.743 2 14.2734V25.2734C2 25.8039 2.21071 26.3126 2.58579 26.6877C2.96086 27.0627 3.46957 27.2734 4 27.2734H25.5C26.2309 27.2737 26.9367 27.0071 27.485 26.5238C28.0332 26.0404 28.3861 25.3736 28.4775 24.6484L29.9775 12.6484C30.0307 12.226 29.9933 11.797 29.8679 11.3901C29.7424 10.9832 29.5318 10.6077 29.25 10.2884ZM4 14.2734H9V25.2734H4V14.2734ZM27.9925 12.3984L26.4925 24.3984C26.462 24.6402 26.3444 24.8624 26.1617 25.0236C25.9789 25.1847 25.7436 25.2735 25.5 25.2734H11V13.5097L15.5887 4.33094C16.2689 4.46706 16.8808 4.83463 17.3204 5.37112C17.76 5.9076 18.0002 6.57984 18 7.27344V10.2734C18 10.5387 18.1054 10.793 18.2929 10.9805C18.4804 11.1681 18.7348 11.2734 19 11.2734H27C27.1419 11.2734 27.2822 11.3035 27.4115 11.3619C27.5409 11.4202 27.6563 11.5055 27.7502 11.6119C27.8441 11.7183 27.9143 11.8435 27.956 11.9791C27.9978 12.1147 28.0102 12.2576 27.9925 12.3984Z" fill="#D92121"/>
</svg>