<svg width="30" height="30" viewBox="0 0 30 30" fill="none" xmlns="http://www.w3.org/2000/svg">
<path opacity="0.15" d="M19.2118 9.38791C19.0582 9.37502 18.9047 9.37502 18.75 9.37502C17.4014 9.37492 16.0724 9.69809 14.8744 10.3175C13.6764 10.9368 12.6444 11.8343 11.8647 12.9348C11.0851 14.0352 10.5806 15.3065 10.3935 16.6421C10.2064 17.9777 10.3422 19.3387 10.7895 20.611C9.55962 20.5455 8.35929 20.2098 7.27387 19.6278L4.02075 20.584C3.85921 20.6314 3.68789 20.6345 3.52476 20.5929C3.36163 20.5512 3.21272 20.4664 3.09368 20.3474C2.97463 20.2284 2.88984 20.0794 2.84821 19.9163C2.80658 19.7532 2.80964 19.5819 2.85708 19.4203L3.80864 16.1719C3.26587 15.1474 2.94007 14.022 2.85157 12.866C2.76307 11.71 2.91376 10.5481 3.29424 9.45295C3.67473 8.35777 4.27684 7.35275 5.06301 6.50061C5.84917 5.64846 6.80252 4.96749 7.86357 4.50018C8.92461 4.03286 10.0706 3.78923 11.23 3.78449C12.3894 3.77976 13.5373 4.01401 14.6021 4.47264C15.6669 4.93127 16.6258 5.60443 17.4189 6.45011C18.212 7.2958 18.8223 8.29587 19.2118 9.38791Z" fill="#7F1D1D"/>
<path d="M16.875 16.4062C16.875 16.6843 16.7925 16.9562 16.638 17.1875C16.4835 17.4187 16.2638 17.599 16.0069 17.7054C15.7499 17.8118 15.4672 17.8397 15.1944 17.7854C14.9216 17.7312 14.671 17.5972 14.4743 17.4006C14.2777 17.2039 14.1438 16.9533 14.0895 16.6805C14.0352 16.4077 14.0631 16.125 14.1695 15.868C14.2759 15.6111 14.4562 15.3915 14.6874 15.2369C14.9187 15.0824 15.1906 14.9999 15.4687 14.9999C15.8417 14.9999 16.1994 15.1481 16.4631 15.4118C16.7268 15.6755 16.875 16.0332 16.875 16.4062ZM22.0312 14.9999C21.7531 14.9999 21.4812 15.0824 21.2499 15.2369C21.0187 15.3915 20.8384 15.6111 20.732 15.868C20.6256 16.125 20.5977 16.4077 20.652 16.6805C20.7063 16.9533 20.8402 17.2039 21.0369 17.4006C21.2335 17.5972 21.4841 17.7312 21.7569 17.7854C22.0297 17.8397 22.3124 17.8118 22.5694 17.7054C22.8263 17.599 23.046 17.4187 23.2005 17.1875C23.355 16.9562 23.4375 16.6843 23.4375 16.4062C23.4375 16.0332 23.2893 15.6755 23.0256 15.4118C22.7619 15.1481 22.4042 14.9999 22.0312 14.9999ZM28.0476 24.7816C28.1429 25.1048 28.1493 25.4478 28.0661 25.7744C27.9829 26.101 27.8132 26.3991 27.5749 26.6374C27.3366 26.8757 27.0385 27.0453 26.7119 27.1285C26.3853 27.2117 26.0424 27.2053 25.7191 27.1101L22.8234 26.2581C21.6818 26.8087 20.4405 27.1221 19.1744 27.1794C17.9083 27.2366 16.6438 27.0366 15.4572 26.5913C14.2706 26.1461 13.1866 25.4648 12.2707 24.5888C11.3548 23.7127 10.626 22.6601 10.1285 21.4945C9.10336 21.3739 8.10562 21.0828 7.17653 20.6331L4.28083 21.4851C3.95756 21.5803 3.6146 21.5867 3.28803 21.5035C2.96145 21.4203 2.66333 21.2507 2.42503 21.0124C2.18673 20.7741 2.01706 20.476 1.93387 20.1494C1.85069 19.8228 1.85706 19.4798 1.95231 19.1566L2.80427 16.2609C2.26995 15.1366 1.96486 13.9173 1.9068 12.6739C1.84874 11.4305 2.03887 10.188 2.46609 9.01885C2.89332 7.84972 3.54909 6.77737 4.39514 5.86437C5.24119 4.95136 6.2606 4.21598 7.39387 3.70112C8.52714 3.18627 9.7516 2.90225 10.9958 2.86563C12.24 2.82901 13.4791 3.04053 14.6406 3.48785C15.8022 3.93517 16.8631 4.60933 17.7614 5.471C18.6597 6.33267 19.3774 7.36459 19.8726 8.50657C21.3534 8.68502 22.7703 9.21419 24.0055 10.0501C25.2407 10.8861 26.2586 12.0047 26.9747 13.313C27.6909 14.6214 28.0845 16.0817 28.1229 17.5727C28.1613 19.0637 27.8434 20.5424 27.1957 21.8859L28.0476 24.7816ZM9.52731 19.4882C9.29544 18.2182 9.32857 16.914 9.62462 15.6574C9.92067 14.4008 10.4733 13.2189 11.2477 12.186C12.0221 11.1531 13.0017 10.2914 14.125 9.65499C15.2482 9.01859 16.4909 8.62122 17.775 8.48782C17.2997 7.62502 16.6592 6.86427 15.89 6.24901C15.1208 5.63375 14.2379 5.17602 13.2918 4.90196C11.381 4.34847 9.32861 4.5767 7.5861 5.53646C5.8436 6.49621 4.55372 8.10886 4.00023 10.0196C3.44675 11.9304 3.67498 13.9828 4.63473 15.7253C4.75016 15.9411 4.77666 16.1934 4.70856 16.4284L3.74997 19.6874L7.00309 18.73C7.23812 18.6619 7.49046 18.6884 7.70622 18.8038C8.28066 19.1107 8.89293 19.3408 9.52731 19.4882ZM25.3652 21.3503C26.2133 19.7643 26.4632 17.9263 26.0693 16.1714C25.6754 14.4165 24.6641 12.8616 23.2196 11.7901C21.775 10.7186 19.9936 10.2019 18.1999 10.3341C16.4062 10.4664 14.7198 11.2388 13.448 12.5105C12.1763 13.7823 11.4039 15.4687 11.2716 17.2624C11.1394 19.056 11.6561 20.8375 12.7276 22.282C13.7991 23.7265 15.3541 24.7379 17.1089 25.1318C18.8638 25.5256 20.7018 25.2757 22.2879 24.4277C22.5036 24.3122 22.756 24.2857 22.991 24.3538L26.25 25.3124L25.2925 22.0593C25.2225 21.8226 25.2486 21.5679 25.3652 21.3503Z" fill="#7F1D1D"/>
</svg>
