<svg width="25" height="25" viewBox="0 0 25 25" fill="none" xmlns="http://www.w3.org/2000/svg">
<rect width="24" height="24" transform="translate(0.688232 0.273438)" fill="#FF928A"/>
<g opacity="0.15">
<path d="M21.931 6.97946C21.8733 6.7482 21.7613 6.53403 21.6043 6.35469C21.4473 6.17535 21.2498 6.03601 21.0282 5.94821C17.8895 4.74071 12.6882 4.77352 12.6882 4.77352C12.6882 4.77352 7.48698 4.74071 4.34448 5.9529C4.12289 6.0407 3.92541 6.18004 3.7684 6.35938C3.6114 6.53872 3.4994 6.75289 3.44167 6.98415C3.22605 7.82415 2.93823 9.46946 2.93823 12.2735C2.93823 15.0776 3.22604 16.7229 3.44542 17.5676C3.50343 17.7976 3.61517 18.0106 3.77146 18.189C3.92774 18.3675 4.12413 18.5063 4.34448 18.5941C7.48698 19.8063 12.6882 19.7735 12.6882 19.7735C12.6882 19.7735 17.8895 19.8063 21.032 18.5941C21.253 18.5068 21.4502 18.3682 21.6071 18.1897C21.7641 18.0112 21.8764 17.798 21.9348 17.5676C22.1542 16.7238 22.442 15.0776 22.442 12.2735C22.442 9.46946 22.1504 7.82415 21.931 6.97946ZM11.1882 15.2735V9.27352L15.6882 12.2735L11.1882 15.2735Z" fill="#82101E"/>
<path d="M21.931 6.97946C21.8733 6.7482 21.7613 6.53403 21.6043 6.35469C21.4473 6.17535 21.2498 6.03601 21.0282 5.94821C17.8895 4.74071 12.6882 4.77352 12.6882 4.77352C12.6882 4.77352 7.48698 4.74071 4.34448 5.9529C4.12289 6.0407 3.92541 6.18004 3.7684 6.35938C3.6114 6.53872 3.4994 6.75289 3.44167 6.98415C3.22605 7.82415 2.93823 9.46946 2.93823 12.2735C2.93823 15.0776 3.22604 16.7229 3.44542 17.5676C3.50343 17.7976 3.61517 18.0106 3.77146 18.189C3.92774 18.3675 4.12413 18.5063 4.34448 18.5941C7.48698 19.8063 12.6882 19.7735 12.6882 19.7735C12.6882 19.7735 17.8895 19.8063 21.032 18.5941C21.253 18.5068 21.4502 18.3682 21.6071 18.1897C21.7641 18.0112 21.8764 17.798 21.9348 17.5676C22.1542 16.7238 22.442 15.0776 22.442 12.2735C22.442 9.46946 22.1504 7.82415 21.931 6.97946ZM11.1882 15.2735V9.27352L15.6882 12.2735L11.1882 15.2735Z" fill="black" fill-opacity="0.2"/>
</g>
<path d="M16.1045 11.6491L11.6045 8.64907C11.4915 8.57369 11.3602 8.53041 11.2245 8.52383C11.0889 8.51726 10.954 8.54765 10.8342 8.61175C10.7145 8.67585 10.6144 8.77126 10.5447 8.8878C10.4749 9.00434 10.4381 9.13763 10.4382 9.27344V15.2734C10.4381 15.4093 10.4749 15.5425 10.5447 15.6591C10.6144 15.7756 10.7145 15.871 10.8342 15.9351C10.954 15.9992 11.0889 16.0296 11.2245 16.0231C11.3602 16.0165 11.4915 15.9732 11.6045 15.8978L16.1045 12.8978C16.2074 12.8294 16.2917 12.7365 16.3501 12.6276C16.4084 12.5187 16.439 12.397 16.439 12.2734C16.439 12.1499 16.4084 12.0282 16.3501 11.9193C16.2917 11.8104 16.2074 11.7175 16.1045 11.6491ZM11.9382 13.8719V10.6797L14.3364 12.2734L11.9382 13.8719ZM22.6567 6.79094C22.5683 6.44533 22.3991 6.12567 22.1629 5.85835C21.9267 5.59102 21.6303 5.38368 21.2982 5.25344C18.0845 4.01219 12.9695 4.02344 12.6882 4.02344C12.407 4.02344 7.29198 4.01219 4.07823 5.25344C3.74614 5.38368 3.44976 5.59102 3.21357 5.85835C2.97738 6.12567 2.80813 6.44533 2.71979 6.79094C2.47698 7.72657 2.18823 9.43657 2.18823 12.2734C2.18823 15.1103 2.47698 16.8203 2.71979 17.7559C2.808 18.1017 2.97719 18.4216 3.21339 18.6891C3.44959 18.9566 3.74603 19.164 4.07823 19.2944C7.15698 20.4822 11.9757 20.5234 12.6264 20.5234H12.7501C13.4007 20.5234 18.2223 20.4822 21.2982 19.2944C21.6304 19.164 21.9269 18.9566 22.1631 18.6891C22.3993 18.4216 22.5685 18.1017 22.6567 17.7559C22.8995 16.8184 23.1882 15.1103 23.1882 12.2734C23.1882 9.43657 22.8995 7.72657 22.6567 6.79094ZM21.2045 17.3847C21.1759 17.4997 21.1205 17.6063 21.0428 17.6958C20.965 17.7853 20.8672 17.855 20.7573 17.8994C17.7901 19.045 12.7435 19.0244 12.6835 19.0244C12.6235 19.0244 7.58636 19.0413 4.62105 17.8994C4.51114 17.855 4.41331 17.7853 4.33558 17.6958C4.25785 17.6063 4.20243 17.4997 4.17386 17.3847C3.95073 16.5288 3.68823 14.9519 3.68823 12.2734C3.68823 9.595 3.95073 8.01813 4.17198 7.16688C4.20002 7.05117 4.25521 6.94381 4.33297 6.85365C4.41073 6.7635 4.50883 6.69316 4.61917 6.64844C7.58636 5.50657 12.632 5.52344 12.6929 5.52344C12.7539 5.52344 17.7901 5.50657 20.7554 6.64844C20.8653 6.6928 20.9632 6.76257 21.0409 6.85203C21.1186 6.9415 21.174 7.04811 21.2026 7.16313C21.4257 8.01813 21.6882 9.595 21.6882 12.2734C21.6882 14.9519 21.4257 16.5288 21.2045 17.38V17.3847Z" fill="#82101E"/>
<path d="M16.1045 11.6491L11.6045 8.64907C11.4915 8.57369 11.3602 8.53041 11.2245 8.52383C11.0889 8.51726 10.954 8.54765 10.8342 8.61175C10.7145 8.67585 10.6144 8.77126 10.5447 8.8878C10.4749 9.00434 10.4381 9.13763 10.4382 9.27344V15.2734C10.4381 15.4093 10.4749 15.5425 10.5447 15.6591C10.6144 15.7756 10.7145 15.871 10.8342 15.9351C10.954 15.9992 11.0889 16.0296 11.2245 16.0231C11.3602 16.0165 11.4915 15.9732 11.6045 15.8978L16.1045 12.8978C16.2074 12.8294 16.2917 12.7365 16.3501 12.6276C16.4084 12.5187 16.439 12.397 16.439 12.2734C16.439 12.1499 16.4084 12.0282 16.3501 11.9193C16.2917 11.8104 16.2074 11.7175 16.1045 11.6491ZM11.9382 13.8719V10.6797L14.3364 12.2734L11.9382 13.8719ZM22.6567 6.79094C22.5683 6.44533 22.3991 6.12567 22.1629 5.85835C21.9267 5.59102 21.6303 5.38368 21.2982 5.25344C18.0845 4.01219 12.9695 4.02344 12.6882 4.02344C12.407 4.02344 7.29198 4.01219 4.07823 5.25344C3.74614 5.38368 3.44976 5.59102 3.21357 5.85835C2.97738 6.12567 2.80813 6.44533 2.71979 6.79094C2.47698 7.72657 2.18823 9.43657 2.18823 12.2734C2.18823 15.1103 2.47698 16.8203 2.71979 17.7559C2.808 18.1017 2.97719 18.4216 3.21339 18.6891C3.44959 18.9566 3.74603 19.164 4.07823 19.2944C7.15698 20.4822 11.9757 20.5234 12.6264 20.5234H12.7501C13.4007 20.5234 18.2223 20.4822 21.2982 19.2944C21.6304 19.164 21.9269 18.9566 22.1631 18.6891C22.3993 18.4216 22.5685 18.1017 22.6567 17.7559C22.8995 16.8184 23.1882 15.1103 23.1882 12.2734C23.1882 9.43657 22.8995 7.72657 22.6567 6.79094ZM21.2045 17.3847C21.1759 17.4997 21.1205 17.6063 21.0428 17.6958C20.965 17.7853 20.8672 17.855 20.7573 17.8994C17.7901 19.045 12.7435 19.0244 12.6835 19.0244C12.6235 19.0244 7.58636 19.0413 4.62105 17.8994C4.51114 17.855 4.41331 17.7853 4.33558 17.6958C4.25785 17.6063 4.20243 17.4997 4.17386 17.3847C3.95073 16.5288 3.68823 14.9519 3.68823 12.2734C3.68823 9.595 3.95073 8.01813 4.17198 7.16688C4.20002 7.05117 4.25521 6.94381 4.33297 6.85365C4.41073 6.7635 4.50883 6.69316 4.61917 6.64844C7.58636 5.50657 12.632 5.52344 12.6929 5.52344C12.7539 5.52344 17.7901 5.50657 20.7554 6.64844C20.8653 6.6928 20.9632 6.76257 21.0409 6.85203C21.1186 6.9415 21.174 7.04811 21.2026 7.16313C21.4257 8.01813 21.6882 9.595 21.6882 12.2734C21.6882 14.9519 21.4257 16.5288 21.2045 17.38V17.3847Z" fill="black" fill-opacity="0.2"/>
</svg>
