<svg xmlns="http://www.w3.org/2000/svg" width="25" height="25" viewBox="0 0 25 25" fill="none">
  <g opacity="0.15">
    <path d="M21.931 7.20602C21.8733 6.97477 21.7613 6.76059 21.6043 6.58126C21.4473 6.40192 21.2498 6.26257 21.0282 6.17477C17.8895 4.96727 12.6882 5.00009 12.6882 5.00009C12.6882 5.00009 7.48698 4.96727 4.34448 6.17946C4.12289 6.26726 3.92541 6.4066 3.7684 6.58594C3.6114 6.76528 3.4994 6.97945 3.44167 7.21071C3.22605 8.05071 2.93823 9.69602 2.93823 12.5001C2.93823 15.3041 3.22604 16.9495 3.44542 17.7941C3.50343 18.0242 3.61517 18.2371 3.77146 18.4156C3.92774 18.594 4.12413 18.7329 4.34448 18.8207C7.48698 20.0329 12.6882 20.0001 12.6882 20.0001C12.6882 20.0001 17.8895 20.0329 21.032 18.8207C21.253 18.7334 21.4502 18.5947 21.6071 18.4163C21.7641 18.2378 21.8764 18.0246 21.9348 17.7941C22.1542 16.9504 22.442 15.3041 22.442 12.5001C22.442 9.69602 22.1504 8.05071 21.931 7.20602ZM11.1882 15.5001V9.50009L15.6882 12.5001L11.1882 15.5001Z" fill="#82101E"/>
    <path d="M21.931 7.20602C21.8733 6.97477 21.7613 6.76059 21.6043 6.58126C21.4473 6.40192 21.2498 6.26257 21.0282 6.17477C17.8895 4.96727 12.6882 5.00009 12.6882 5.00009C12.6882 5.00009 7.48698 4.96727 4.34448 6.17946C4.12289 6.26726 3.92541 6.4066 3.7684 6.58594C3.6114 6.76528 3.4994 6.97945 3.44167 7.21071C3.22605 8.05071 2.93823 9.69602 2.93823 12.5001C2.93823 15.3041 3.22604 16.9495 3.44542 17.7941C3.50343 18.0242 3.61517 18.2371 3.77146 18.4156C3.92774 18.594 4.12413 18.7329 4.34448 18.8207C7.48698 20.0329 12.6882 20.0001 12.6882 20.0001C12.6882 20.0001 17.8895 20.0329 21.032 18.8207C21.253 18.7334 21.4502 18.5947 21.6071 18.4163C21.7641 18.2378 21.8764 18.0246 21.9348 17.7941C22.1542 16.9504 22.442 15.3041 22.442 12.5001C22.442 9.69602 22.1504 8.05071 21.931 7.20602ZM11.1882 15.5001V9.50009L15.6882 12.5001L11.1882 15.5001Z" fill="black" fill-opacity="0.2"/>
  </g>
  <path d="M16.1045 11.8756L11.6045 8.87563C11.4915 8.80025 11.3602 8.75697 11.2245 8.7504C11.0889 8.74382 10.954 8.77421 10.8342 8.83831C10.7145 8.90241 10.6144 8.99783 10.5447 9.11436C10.4749 9.2309 10.4381 9.36419 10.4382 9.5V15.5C10.4381 15.6358 10.4749 15.7691 10.5447 15.8856C10.6144 16.0022 10.7145 16.0976 10.8342 16.1617C10.954 16.2258 11.0889 16.2562 11.2245 16.2496C11.3602 16.243 11.4915 16.1998 11.6045 16.1244L16.1045 13.1244C16.2074 13.0559 16.2917 12.9631 16.3501 12.8542C16.4084 12.7452 16.439 12.6236 16.439 12.5C16.439 12.3764 16.4084 12.2548 16.3501 12.1458C16.2917 12.0369 16.2074 11.9441 16.1045 11.8756ZM11.9382 14.0984V10.9063L14.3364 12.5L11.9382 14.0984ZM22.6567 7.0175C22.5683 6.67189 22.3991 6.35224 22.1629 6.08491C21.9267 5.81758 21.6303 5.61024 21.2982 5.48C18.0845 4.23875 12.9695 4.25 12.6882 4.25C12.407 4.25 7.29198 4.23875 4.07823 5.48C3.74614 5.61024 3.44976 5.81758 3.21357 6.08491C2.97738 6.35224 2.80813 6.67189 2.71979 7.0175C2.47698 7.95313 2.18823 9.66313 2.18823 12.5C2.18823 15.3369 2.47698 17.0469 2.71979 17.9825C2.808 18.3283 2.97719 18.6481 3.21339 18.9156C3.44959 19.1831 3.74603 19.3906 4.07823 19.5209C7.15698 20.7088 11.9757 20.75 12.6264 20.75H12.7501C13.4007 20.75 18.2223 20.7088 21.2982 19.5209C21.6304 19.3906 21.9269 19.1831 22.1631 18.9156C22.3993 18.6481 22.5685 18.3283 22.6567 17.9825C22.8995 17.045 23.1882 15.3369 23.1882 12.5C23.1882 9.66313 22.8995 7.95313 22.6567 7.0175ZM21.2045 17.6113C21.1759 17.7263 21.1205 17.8329 21.0428 17.9224C20.965 18.0118 20.8672 18.0816 20.7573 18.1259C17.7901 19.2716 12.7435 19.2509 12.6835 19.2509C12.6235 19.2509 7.58636 19.2678 4.62105 18.1259C4.51114 18.0816 4.41331 18.0118 4.33558 17.9224C4.25785 17.8329 4.20243 17.7263 4.17386 17.6113C3.95073 16.7553 3.68823 15.1784 3.68823 12.5C3.68823 9.82157 3.95073 8.24469 4.17198 7.39344C4.20002 7.27774 4.25521 7.17037 4.33297 7.08022C4.41073 6.99007 4.50883 6.91972 4.61917 6.875C7.58636 5.73313 12.632 5.75 12.6929 5.75C12.7539 5.75 17.7901 5.73313 20.7554 6.875C20.8653 6.91936 20.9632 6.98913 21.0409 7.07859C21.1186 7.16806 21.174 7.27467 21.2026 7.38969C21.4257 8.24469 21.6882 9.82157 21.6882 12.5C21.6882 15.1784 21.4257 16.7553 21.2045 17.6066V17.6113Z" fill="#82101E"/>
  <path d="M16.1045 11.8756L11.6045 8.87563C11.4915 8.80025 11.3602 8.75697 11.2245 8.7504C11.0889 8.74382 10.954 8.77421 10.8342 8.83831C10.7145 8.90241 10.6144 8.99783 10.5447 9.11436C10.4749 9.2309 10.4381 9.36419 10.4382 9.5V15.5C10.4381 15.6358 10.4749 15.7691 10.5447 15.8856C10.6144 16.0022 10.7145 16.0976 10.8342 16.1617C10.954 16.2258 11.0889 16.2562 11.2245 16.2496C11.3602 16.243 11.4915 16.1998 11.6045 16.1244L16.1045 13.1244C16.2074 13.0559 16.2917 12.9631 16.3501 12.8542C16.4084 12.7452 16.439 12.6236 16.439 12.5C16.439 12.3764 16.4084 12.2548 16.3501 12.1458C16.2917 12.0369 16.2074 11.9441 16.1045 11.8756ZM11.9382 14.0984V10.9063L14.3364 12.5L11.9382 14.0984ZM22.6567 7.0175C22.5683 6.67189 22.3991 6.35224 22.1629 6.08491C21.9267 5.81758 21.6303 5.61024 21.2982 5.48C18.0845 4.23875 12.9695 4.25 12.6882 4.25C12.407 4.25 7.29198 4.23875 4.07823 5.48C3.74614 5.61024 3.44976 5.81758 3.21357 6.08491C2.97738 6.35224 2.80813 6.67189 2.71979 7.0175C2.47698 7.95313 2.18823 9.66313 2.18823 12.5C2.18823 15.3369 2.47698 17.0469 2.71979 17.9825C2.808 18.3283 2.97719 18.6481 3.21339 18.9156C3.44959 19.1831 3.74603 19.3906 4.07823 19.5209C7.15698 20.7088 11.9757 20.75 12.6264 20.75H12.7501C13.4007 20.75 18.2223 20.7088 21.2982 19.5209C21.6304 19.3906 21.9269 19.1831 22.1631 18.9156C22.3993 18.6481 22.5685 18.3283 22.6567 17.9825C22.8995 17.045 23.1882 15.3369 23.1882 12.5C23.1882 9.66313 22.8995 7.95313 22.6567 7.0175ZM21.2045 17.6113C21.1759 17.7263 21.1205 17.8329 21.0428 17.9224C20.965 18.0118 20.8672 18.0816 20.7573 18.1259C17.7901 19.2716 12.7435 19.2509 12.6835 19.2509C12.6235 19.2509 7.58636 19.2678 4.62105 18.1259C4.51114 18.0816 4.41331 18.0118 4.33558 17.9224C4.25785 17.8329 4.20243 17.7263 4.17386 17.6113C3.95073 16.7553 3.68823 15.1784 3.68823 12.5C3.68823 9.82157 3.95073 8.24469 4.17198 7.39344C4.20002 7.27774 4.25521 7.17037 4.33297 7.08022C4.41073 6.99007 4.50883 6.91972 4.61917 6.875C7.58636 5.73313 12.632 5.75 12.6929 5.75C12.7539 5.75 17.7901 5.73313 20.7554 6.875C20.8653 6.91936 20.9632 6.98913 21.0409 7.07859C21.1186 7.16806 21.174 7.27467 21.2026 7.38969C21.4257 8.24469 21.6882 9.82157 21.6882 12.5C21.6882 15.1784 21.4257 16.7553 21.2045 17.6066V17.6113Z" fill="black" fill-opacity="0.2"/>
</svg>