<svg width="13" height="13" viewBox="0 0 13 13" fill="none" xmlns="http://www.w3.org/2000/svg">
<g id="Sparkle">
<path id="Vector" d="M9.97867 7.38201C9.97959 7.52949 9.93477 7.67364 9.8504 7.79461C9.76603 7.91558 9.64624 8.00744 9.50752 8.05753L7.17213 8.91663L6.31303 11.2502C6.26215 11.3884 6.17011 11.5077 6.04931 11.592C5.92852 11.6762 5.78478 11.7214 5.63751 11.7214C5.49023 11.7214 5.3465 11.6762 5.2257 11.592C5.1049 11.5077 5.01286 11.3884 4.96198 11.2502L4.10062 8.91934L1.76659 8.06024C1.62838 8.00937 1.5091 7.91732 1.42484 7.79653C1.34059 7.67573 1.29541 7.532 1.29541 7.38472C1.29541 7.23744 1.34059 7.09371 1.42484 6.97291C1.5091 6.85212 1.62838 6.76007 1.76659 6.7092L4.10198 5.8501L4.96108 3.51651C5.01195 3.3783 5.104 3.25902 5.2248 3.17477C5.34559 3.09051 5.48932 3.04534 5.6366 3.04534C5.78388 3.04534 5.92761 3.09051 6.04841 3.17477C6.1692 3.25902 6.26125 3.3783 6.31213 3.51651L7.17122 5.85191L9.50481 6.71101C9.64331 6.76039 9.76317 6.85136 9.84799 6.97147C9.93281 7.09158 9.97845 7.23497 9.97867 7.38201ZM7.44659 3.0413H8.17004V3.76475C8.17004 3.86068 8.20815 3.95269 8.27599 4.02053C8.34382 4.08836 8.43583 4.12647 8.53176 4.12647C8.6277 4.12647 8.71971 4.08836 8.78754 4.02053C8.85538 3.95269 8.89349 3.86068 8.89349 3.76475V3.0413H9.61694C9.71288 3.0413 9.80488 3.00319 9.87272 2.93535C9.94056 2.86751 9.97867 2.77551 9.97867 2.67957C9.97867 2.58363 9.94056 2.49163 9.87272 2.42379C9.80488 2.35595 9.71288 2.31784 9.61694 2.31784H8.89349V1.59439C8.89349 1.49846 8.85538 1.40645 8.78754 1.33861C8.71971 1.27078 8.6277 1.23267 8.53176 1.23267C8.43583 1.23267 8.34382 1.27078 8.27599 1.33861C8.20815 1.40645 8.17004 1.49846 8.17004 1.59439V2.31784H7.44659C7.35065 2.31784 7.25865 2.35595 7.19081 2.42379C7.12297 2.49163 7.08486 2.58363 7.08486 2.67957C7.08486 2.77551 7.12297 2.86751 7.19081 2.93535C7.25865 3.00319 7.35065 3.0413 7.44659 3.0413ZM11.4256 4.4882H11.0638V4.12647C11.0638 4.03054 11.0257 3.93853 10.9579 3.87069C10.8901 3.80286 10.7981 3.76475 10.7021 3.76475C10.6062 3.76475 10.5142 3.80286 10.4463 3.87069C10.3785 3.93853 10.3404 4.03054 10.3404 4.12647V4.4882H9.97867C9.88273 4.4882 9.79073 4.52631 9.72289 4.59415C9.65505 4.66198 9.61694 4.75399 9.61694 4.84993C9.61694 4.94586 9.65505 5.03787 9.72289 5.1057C9.79073 5.17354 9.88273 5.21165 9.97867 5.21165H10.3404V5.57338C10.3404 5.66931 10.3785 5.76132 10.4463 5.82916C10.5142 5.89699 10.6062 5.9351 10.7021 5.9351C10.7981 5.9351 10.8901 5.89699 10.9579 5.82916C11.0257 5.76132 11.0638 5.66931 11.0638 5.57338V5.21165H11.4256C11.5215 5.21165 11.6135 5.17354 11.6814 5.1057C11.7492 5.03787 11.7873 4.94586 11.7873 4.84993C11.7873 4.75399 11.7492 4.66198 11.6814 4.59415C11.6135 4.52631 11.5215 4.4882 11.4256 4.4882Z" fill="url(#paint0_linear_1388_19837)"/>
</g>
<defs>
<linearGradient id="paint0_linear_1388_19837" x1="0.885701" y1="2.42283" x2="10.9474" y2="4.16758" gradientUnits="userSpaceOnUse">
<stop stop-color="#ED1522"/>
<stop offset="1" stop-color="#E66E48"/>
</linearGradient>
</defs>
</svg>
