<svg width="7" height="9" viewBox="0 0 7 9" fill="none" xmlns="http://www.w3.org/2000/svg">
<g clip-path="url(#clip0_1315_3767)">
<mask id="path-1-inside-1_1315_3767" fill="white">
<path d="M1.67406 1.03265L5.43051 4.5002L1.67406 7.96774C1.62799 8.01026 1.59075 8.06143 1.56446 8.11834C1.53817 8.17525 1.52335 8.23678 1.52083 8.29942C1.51832 8.36205 1.52817 8.42457 1.54982 8.4834C1.57147 8.54223 1.6045 8.59622 1.64701 8.64229C1.68953 8.68836 1.7407 8.7256 1.79761 8.75189C1.85452 8.77818 1.91605 8.793 1.97868 8.79552C2.04132 8.79803 2.10384 8.78818 2.16267 8.76653C2.2215 8.74488 2.27549 8.71185 2.32156 8.66934L6.45792 4.85115C6.50637 4.80646 6.54503 4.75222 6.57148 4.69184C6.59792 4.63147 6.61157 4.56627 6.61157 4.50036C6.61157 4.43445 6.59792 4.36925 6.57148 4.30887C6.54503 4.2485 6.50637 4.19426 6.45792 4.14956L2.32156 0.331381C2.22852 0.245518 2.10519 0.200129 1.97869 0.205201C1.85218 0.210273 1.73288 0.26539 1.64701 0.358426C1.56115 0.451463 1.51576 0.574799 1.52083 0.701301C1.52591 0.827802 1.58102 0.947108 1.67406 1.03297"/>
</mask>
<path d="M1.67406 1.03265L5.43051 4.5002L1.67406 7.96774C1.62799 8.01026 1.59075 8.06143 1.56446 8.11834C1.53817 8.17525 1.52335 8.23678 1.52083 8.29942C1.51832 8.36205 1.52817 8.42457 1.54982 8.4834C1.57147 8.54223 1.6045 8.59622 1.64701 8.64229C1.68953 8.68836 1.7407 8.7256 1.79761 8.75189C1.85452 8.77818 1.91605 8.793 1.97868 8.79552C2.04132 8.79803 2.10384 8.78818 2.16267 8.76653C2.2215 8.74488 2.27549 8.71185 2.32156 8.66934L6.45792 4.85115C6.50637 4.80646 6.54503 4.75222 6.57148 4.69184C6.59792 4.63147 6.61157 4.56627 6.61157 4.50036C6.61157 4.43445 6.59792 4.36925 6.57148 4.30887C6.54503 4.2485 6.50637 4.19426 6.45792 4.14956L2.32156 0.331381C2.22852 0.245518 2.10519 0.200129 1.97869 0.205201C1.85218 0.210273 1.73288 0.26539 1.64701 0.358426C1.56115 0.451463 1.51576 0.574799 1.52083 0.701301C1.52591 0.827802 1.58102 0.947108 1.67406 1.03297" fill="#797979"/>
<path d="M5.43051 4.5002L6.1088 5.235L6.90482 4.5002L6.1088 3.7654L5.43051 4.5002ZM1.67406 7.96774L2.35227 8.70261L2.35234 8.70254L1.67406 7.96774ZM2.32156 8.66934L2.99977 9.4042L2.99984 9.40414L2.32156 8.66934ZM6.45792 4.85115L5.77986 4.11615L5.77964 4.11635L6.45792 4.85115ZM6.61157 4.50036L5.61157 4.50036L6.61157 4.50036ZM6.45792 4.14956L5.77964 4.88437L5.77986 4.88456L6.45792 4.14956ZM2.32156 0.331381L2.99984 -0.403422L2.99977 -0.403486L2.32156 0.331381ZM1.52083 0.701301L2.52003 0.661238L1.52083 0.701301ZM1.67406 1.03265L0.995774 1.76745L4.75223 5.235L5.43051 4.5002L6.1088 3.7654L2.35234 0.297856L1.67406 1.03265ZM5.43051 4.5002L4.75223 3.7654L0.995774 7.23295L1.67406 7.96774L2.35234 8.70254L6.1088 5.235L5.43051 4.5002ZM1.67406 7.96774L0.995848 7.23288C0.853277 7.36446 0.738018 7.52283 0.656653 7.69895L1.56446 8.11834L2.47227 8.53773C2.44348 8.60004 2.40271 8.65606 2.35227 8.70261L1.67406 7.96774ZM1.56446 8.11834L0.656653 7.69895C0.575286 7.87508 0.529409 8.0655 0.521637 8.25935L1.52083 8.29942L2.52003 8.33948C2.51728 8.40805 2.50105 8.47542 2.47227 8.53773L1.56446 8.11834ZM1.52083 8.29942L0.521637 8.25935C0.513865 8.4532 0.544347 8.64669 0.611353 8.82877L1.54982 8.4834L2.48829 8.13804C2.512 8.20246 2.52278 8.27091 2.52003 8.33948L1.52083 8.29942ZM1.54982 8.4834L0.611353 8.82877C0.678359 9.01084 0.780571 9.17793 0.912147 9.3205L1.64701 8.64229L2.38188 7.96408C2.42843 8.01451 2.46459 8.07362 2.48829 8.13804L1.54982 8.4834ZM1.64701 8.64229L0.912147 9.3205C1.04372 9.46307 1.2021 9.57833 1.37822 9.6597L1.79761 8.75189L2.217 7.84408C2.27931 7.87287 2.33533 7.91364 2.38188 7.96408L1.64701 8.64229ZM1.79761 8.75189L1.37822 9.6597C1.55434 9.74106 1.74477 9.78694 1.93862 9.79471L1.97868 8.79552L2.01875 7.79632C2.08733 7.79907 2.15469 7.8153 2.217 7.84408L1.79761 8.75189ZM1.97868 8.79552L1.93862 9.79471C2.13247 9.80248 2.32596 9.772 2.50804 9.705L2.16267 8.76653L1.81731 7.82806C1.88172 7.80435 1.95017 7.79357 2.01875 7.79632L1.97868 8.79552ZM2.16267 8.76653L2.50804 9.705C2.69011 9.63799 2.8572 9.53578 2.99977 9.4042L2.32156 8.66934L1.64335 7.93447C1.69378 7.88792 1.75289 7.85176 1.81731 7.82806L2.16267 8.76653ZM2.32156 8.66934L2.99984 9.40414L7.1362 5.58596L6.45792 4.85115L5.77964 4.11635L1.64328 7.93453L2.32156 8.66934ZM6.45792 4.85115L7.13599 5.58615C7.28594 5.44782 7.40561 5.27993 7.48746 5.09305L6.57148 4.69184L5.65549 4.29064C5.68445 4.22451 5.7268 4.1651 5.77986 4.11615L6.45792 4.85115ZM6.57148 4.69184L7.48746 5.09305C7.56932 4.90617 7.61157 4.70437 7.61157 4.50036L6.61157 4.50036L5.61157 4.50036C5.61157 4.42817 5.62652 4.35677 5.65549 4.29064L6.57148 4.69184ZM6.61157 4.50036L7.61157 4.50036C7.61157 4.29635 7.56932 4.09454 7.48746 3.90767L6.57148 4.30887L5.65549 4.71008C5.62652 4.64395 5.61157 4.57255 5.61157 4.50036L6.61157 4.50036ZM6.57148 4.30887L7.48746 3.90767C7.40561 3.72079 7.28594 3.5529 7.13599 3.41456L6.45792 4.14956L5.77986 4.88456C5.7268 4.83561 5.68445 4.7762 5.65549 4.71008L6.57148 4.30887ZM6.45792 4.14956L7.1362 3.41476L2.99984 -0.403422L2.32156 0.331381L1.64328 1.06618L5.77964 4.88437L6.45792 4.14956ZM2.32156 0.331381L2.99977 -0.403486C2.71183 -0.669223 2.33013 -0.809693 1.93862 -0.793996L1.97869 0.205201L2.01875 1.2044C1.88025 1.20995 1.74521 1.16026 1.64335 1.06625L2.32156 0.331381ZM1.97869 0.205201L1.93862 -0.793996C1.54712 -0.778299 1.17788 -0.60772 0.912147 -0.319785L1.64701 0.358426L2.38188 1.03664C2.28787 1.1385 2.15725 1.19885 2.01875 1.2044L1.97869 0.205201ZM1.64701 0.358426L0.912147 -0.319785C0.646411 -0.0318488 0.50594 0.349857 0.521637 0.741363L1.52083 0.701301L2.52003 0.661238C2.52558 0.799741 2.47589 0.934775 2.38188 1.03664L1.64701 0.358426ZM1.52083 0.701301L0.521637 0.741363C0.537334 1.13287 0.707912 1.5021 0.995849 1.76784L1.67406 1.03297L2.35227 0.298105C2.45413 0.392115 2.51448 0.522739 2.52003 0.661238L1.52083 0.701301Z" fill="white" mask="url(#path-1-inside-1_1315_3767)"/>
</g>
<defs>
<clipPath id="clip0_1315_3767">
<rect width="7" height="9" fill="white" transform="translate(7 9) rotate(-180)"/>
</clipPath>
</defs>
</svg>
