<svg width="7" height="9" viewBox="0 0 7 9" fill="none" xmlns="http://www.w3.org/2000/svg">
<g clip-path="url(#clip0_1315_3764)">
<path d="M5.32594 7.96735L1.56949 4.4998L5.32594 1.03226C5.37201 0.98974 5.40925 0.938568 5.43554 0.881659C5.46183 0.824751 5.47666 0.763222 5.47917 0.700584C5.48168 0.637947 5.47183 0.575428 5.45018 0.516598C5.42853 0.457768 5.3955 0.403777 5.35299 0.35771C5.31047 0.311643 5.2593 0.274401 5.20239 0.248111C5.14548 0.22182 5.08395 0.206996 5.02132 0.204485C4.95868 0.201973 4.89616 0.211824 4.83733 0.233474C4.7785 0.255124 4.72451 0.288149 4.67844 0.330665L0.542077 4.14885C0.493632 4.19354 0.454969 4.24778 0.428524 4.30816C0.40208 4.36853 0.388428 4.43373 0.388428 4.49964C0.388428 4.56555 0.40208 4.63075 0.428524 4.69113C0.454969 4.7515 0.493632 4.80574 0.542077 4.85044L4.67844 8.66862C4.77148 8.75448 4.89481 8.79987 5.02132 8.7948C5.14782 8.78973 5.26712 8.73461 5.35299 8.64157C5.43885 8.54854 5.48424 8.4252 5.47917 8.2987C5.47409 8.1722 5.41898 8.05289 5.32594 7.96703" fill="#18181B"/>
</g>
<defs>
<clipPath id="clip0_1315_3764">
<rect width="7" height="9" fill="white"/>
</clipPath>
</defs>
</svg>
