<svg width="22" height="22" viewBox="0 0 22 22" fill="none" xmlns="http://www.w3.org/2000/svg">
<path d="M14.8189 2.78369C15.0395 3.33078 15.1531 3.91716 15.1531 4.50933C15.1531 5.70528 14.6905 6.85225 13.8671 7.69791C13.0437 8.54358 11.9269 9.01867 10.7624 9.01867C9.59793 9.01867 8.48115 8.54358 7.65774 7.69791C6.83433 6.85225 6.37174 5.70528 6.37174 4.50933C6.37174 3.91716 6.48531 3.33078 6.70596 2.78369C6.92661 2.23659 7.25002 1.73948 7.65773 1.32075C8.06545 0.902023 8.54947 0.569868 9.08217 0.343253C9.61487 0.116637 10.1858 0 10.7624 0C11.339 0 11.9099 0.116637 12.4426 0.343253C12.9753 0.569868 13.4594 0.902023 13.8671 1.32075C14.2748 1.73948 14.5982 2.23659 14.8189 2.78369Z" fill="#FEEFEF"/>
<path d="M10.7624 13.4187C7.00161 13.4295 3.30277 14.403 0.00033915 16.2509C1.38215 17.7582 3.04992 18.9589 4.90085 19.7789C6.75178 20.5989 8.74662 21.0208 10.7624 21.0187C12.7782 21.0208 14.773 20.5989 16.624 19.7789C18.4749 18.9589 20.1427 17.7582 21.5245 16.2509C18.2117 14.4269 14.5783 13.4187 10.7624 13.4187Z" fill="#FEEFEF"/>
</svg>
