<svg width="111" height="41" viewBox="0 0 111 41" fill="none" xmlns="http://www.w3.org/2000/svg">
<path d="M4 8.13562H15.9606L28.3405 25.9481L29.9505 11.707H26.3729L32.4249 5.94812L38 11.707H34.4224L32.4249 35.9481H27.476L14.0601 17.957L12.8908 32.3767H16.7069V35.9481H4.01304V32.3767H7.59061L9.58809 11.707H4V8.13562Z" fill="#991B1B"/>
<path d="M43.3175 17.929C44.7575 17.929 45.9495 18.073 46.8935 18.361C47.8375 18.633 48.5335 19.081 48.9815 19.705C49.4455 20.329 49.6775 21.169 49.6775 22.225C49.6775 22.881 49.5655 23.473 49.3415 24.001C49.1175 24.529 48.7975 24.961 48.3815 25.297C47.9815 25.633 47.5175 25.857 46.9895 25.969V26.089C47.5335 26.201 48.0455 26.409 48.5255 26.713C49.0055 27.001 49.3895 27.425 49.6775 27.985C49.9655 28.529 50.1095 29.249 50.1095 30.145C50.1095 31.185 49.8695 32.073 49.3895 32.809C48.9255 33.545 48.2535 34.105 47.3735 34.489C46.4935 34.873 45.4455 35.065 44.2295 35.065H38.2775V17.929H43.3175ZM43.6055 24.913C44.6455 24.913 45.3655 24.721 45.7655 24.337C46.1655 23.953 46.3655 23.385 46.3655 22.633C46.3655 21.865 46.1255 21.313 45.6455 20.977C45.1815 20.641 44.4375 20.473 43.4135 20.473H41.4935V24.913H43.6055ZM41.4935 27.385V32.497H43.8455C44.9335 32.497 45.6855 32.257 46.1015 31.777C46.5335 31.297 46.7495 30.657 46.7495 29.857C46.7495 29.345 46.6535 28.905 46.4615 28.537C46.2855 28.169 45.9815 27.889 45.5495 27.697C45.1175 27.489 44.5175 27.385 43.7495 27.385H41.4935ZM56.9975 21.817C58.5655 21.817 59.7655 22.185 60.5975 22.921C61.4295 23.641 61.8455 24.777 61.8455 26.329V35.065H59.6135L58.9895 33.265H58.8935C58.5415 33.729 58.1815 34.121 57.8135 34.441C57.4455 34.745 57.0215 34.961 56.5415 35.089C56.0615 35.233 55.4855 35.305 54.8135 35.305C54.0935 35.305 53.4455 35.161 52.8695 34.873C52.2935 34.585 51.8375 34.145 51.5015 33.553C51.1655 32.945 50.9975 32.185 50.9975 31.273C50.9975 29.929 51.4615 28.921 52.3895 28.249C53.3175 27.561 54.7095 27.185 56.5655 27.121L58.6535 27.049V26.401C58.6535 25.569 58.4775 24.977 58.1255 24.625C57.7735 24.273 57.2935 24.097 56.6855 24.097C56.1095 24.097 55.5255 24.193 54.9335 24.385C54.3575 24.577 53.7895 24.801 53.2295 25.057L52.2455 22.945C52.9015 22.609 53.6295 22.337 54.4295 22.129C55.2295 21.921 56.0855 21.817 56.9975 21.817ZM57.3095 28.969C56.1735 29.017 55.3815 29.249 54.9335 29.665C54.4855 30.065 54.2615 30.609 54.2615 31.297C54.2615 31.905 54.4135 32.345 54.7175 32.617C55.0375 32.889 55.4535 33.025 55.9655 33.025C56.7175 33.025 57.3575 32.777 57.8855 32.281C58.4135 31.769 58.6775 31.017 58.6775 30.025V28.921L57.3095 28.969ZM70.8592 21.817C72.2192 21.817 73.2912 22.193 74.0752 22.945C74.8592 23.697 75.2512 24.913 75.2512 26.593V35.065H72.0592V27.193C72.0592 26.217 71.8912 25.489 71.5552 25.009C71.2192 24.513 70.6912 24.265 69.9712 24.265C68.8992 24.265 68.1712 24.649 67.7872 25.417C67.4032 26.169 67.2112 27.265 67.2112 28.705V35.065H64.0192V22.057H66.4672L66.9232 23.761H67.0432C67.3312 23.313 67.6672 22.945 68.0512 22.657C68.4352 22.369 68.8672 22.161 69.3472 22.033C69.8272 21.889 70.3312 21.817 70.8592 21.817ZM80.6122 25.489C80.6122 25.905 80.5962 26.345 80.5642 26.809C80.5322 27.257 80.4922 27.697 80.4442 28.129H80.5402C80.6202 27.937 80.7402 27.729 80.9002 27.505C81.0602 27.265 81.2282 27.033 81.4042 26.809C81.5962 26.569 81.7802 26.353 81.9562 26.161L85.3402 22.057H88.9402L84.2122 27.673L89.2282 35.065H85.5562L82.0282 29.497L80.6122 30.745V35.065H77.4442V16.825H80.6122V25.489ZM94.9499 21.817C96.0699 21.817 97.0299 22.057 97.8299 22.537C98.6459 23.001 99.2779 23.673 99.7259 24.553C100.174 25.417 100.398 26.473 100.398 27.721V29.257H92.4299C92.4619 30.441 92.7499 31.361 93.2939 32.017C93.8539 32.657 94.6379 32.977 95.6459 32.977C96.4459 32.977 97.1579 32.897 97.7819 32.737C98.4059 32.561 99.0539 32.313 99.7259 31.993V34.417C99.1179 34.721 98.4859 34.945 97.8299 35.089C97.1739 35.233 96.3659 35.305 95.4059 35.305C94.1899 35.305 93.1099 35.065 92.1659 34.585C91.2379 34.089 90.5099 33.345 89.9819 32.353C89.4539 31.361 89.1899 30.129 89.1899 28.657C89.1899 27.169 89.4299 25.921 89.9099 24.913C90.3899 23.889 91.0619 23.121 91.9259 22.609C92.8059 22.081 93.8139 21.817 94.9499 21.817ZM94.9979 24.049C94.2779 24.049 93.6939 24.313 93.2459 24.841C92.8139 25.353 92.5579 26.121 92.4779 27.145H97.3739C97.3739 26.537 97.2859 26.001 97.1099 25.537C96.9339 25.073 96.6699 24.713 96.3179 24.457C95.9819 24.185 95.5419 24.049 94.9979 24.049ZM108.575 21.817C108.799 21.817 109.031 21.825 109.271 21.841C109.511 21.857 109.711 21.889 109.871 21.937L109.583 24.745C109.423 24.713 109.231 24.689 109.007 24.673C108.799 24.641 108.575 24.625 108.335 24.625C107.935 24.625 107.543 24.705 107.159 24.865C106.775 25.009 106.431 25.233 106.127 25.537C105.823 25.825 105.575 26.201 105.383 26.665C105.207 27.129 105.119 27.681 105.119 28.321V35.065H101.927V22.057H104.375L104.807 24.313H104.975C105.215 23.849 105.511 23.433 105.863 23.065C106.231 22.681 106.639 22.377 107.087 22.153C107.551 21.929 108.047 21.817 108.575 21.817Z" fill="#991B1B"/>
</svg>
