<svg width="16" height="16" viewBox="0 0 16 16" fill="none" xmlns="http://www.w3.org/2000/svg">
<g clip-path="url(#clip0_238_308)">
<path d="M15.8276 15.2095L13.3217 12.7036L13.3207 12.7025C13.7501 12.1942 14.1002 11.6238 14.3591 11.0108C14.7055 10.1918 14.8812 9.32205 14.8812 8.42584C14.8812 7.5296 14.7055 6.65991 14.3591 5.84086C14.0246 5.05004 13.5459 4.33993 12.9362 3.73026C12.3266 3.1206 11.6165 2.64185 10.8256 2.30736C10.0066 1.96093 9.13687 1.78528 8.24065 1.78528C7.34442 1.78528 6.47473 1.96093 5.65568 2.30736C4.86486 2.64185 4.15475 3.12058 3.54508 3.73026C2.9354 4.33993 2.45667 5.05005 2.12218 5.84086C1.77575 6.65991 1.6001 7.52962 1.6001 8.42584C1.6001 9.32205 1.77575 10.1918 2.12218 11.0108C2.45667 11.8017 2.9354 12.5118 3.54508 13.1214C4.15475 13.7311 4.86487 14.2098 5.65568 14.5443C6.47473 14.8907 7.34444 15.0664 8.24065 15.0664C9.13687 15.0664 10.0066 14.8907 10.8256 14.5443C11.4289 14.2892 11.985 13.9498 12.4855 13.5327C12.4867 13.5339 12.4878 13.5352 12.4889 13.5363L14.9948 16.0422C15.1098 16.1573 15.2605 16.2147 15.4112 16.2147C15.5619 16.2147 15.7127 16.1572 15.8276 16.0423C16.0576 15.8123 16.0576 15.4394 15.8276 15.2095ZM8.24065 13.9311C6.77015 13.9311 5.38766 13.3584 4.34785 12.3186C3.30804 11.2788 2.7354 9.89634 2.7354 8.42584C2.7354 6.95533 3.30804 5.57284 4.34785 4.53303C5.38764 3.49322 6.77013 2.92058 8.24065 2.92058C9.71118 2.92058 11.0936 3.49322 12.1335 4.53303C13.1733 5.57282 13.7459 6.95531 13.7459 8.42584C13.7459 9.89636 13.1733 11.2788 12.1335 12.3186C11.0936 13.3584 9.71116 13.9311 8.24065 13.9311Z" fill="#D92121"/>
</g>
<defs>
<clipPath id="clip0_238_308">
<rect width="16" height="16" fill="white"/>
</clipPath>
</defs>
</svg>
