<svg width="64" height="64" viewBox="0 0 64 64" fill="none" xmlns="http://www.w3.org/2000/svg">
<g clip-path="url(#clip0_2506_2838)">
<path d="M34.1867 64H3.53067C2.59403 63.9993 1.696 63.6267 1.03395 62.9642C0.371894 62.3016 -2.66745e-07 61.4033 0 60.4667L0 3.53333C0 1.58133 1.58133 0 3.53333 0H60.4667C62.4187 0 64 1.58133 64 3.53333V60.4667C64 62.4187 62.4187 64 60.4667 64H44.16V39.216H52.48L53.7227 29.5573H44.16V23.3867C44.16 20.592 44.9333 18.6853 48.9467 18.6853H54.0613V10.0453C53.176 9.92533 50.1413 9.664 46.608 9.664C39.232 9.664 34.184 14.1653 34.184 22.432V29.552H25.8453V39.2133H34.184V64H34.1867Z" fill="#3B5998"/>
</g>
<defs>
<clipPath id="clip0_2506_2838">
<rect width="64" height="64" fill="white"/>
</clipPath>
</defs>
</svg>
