<svg width="16" height="16" viewBox="0 0 16 16" fill="none" xmlns="http://www.w3.org/2000/svg">
<g id="funnel/mini">
<path id="Vector" d="M8.00037 1.29999C9.98062 1.30001 11.9236 1.4621 13.8158 1.77362V1.7746C13.8273 1.7765 13.8389 1.7797 13.849 1.78534L13.8763 1.8078C13.8917 1.82587 13.8998 1.84953 13.8998 1.87323V3.70331L13.8939 3.83124C13.8685 4.08622 13.7682 4.32835 13.6058 4.52655L13.5189 4.62128L9.7738 8.36835C9.34277 8.79942 9.10025 9.38374 9.09998 9.99335V12.423C9.09998 12.7691 8.96282 13.0981 8.72205 13.34L8.61267 13.4387L7.06287 14.6779V14.6789C7.05555 14.6848 7.04702 14.689 7.03845 14.6926L7.01111 14.7004C7.00199 14.7014 6.99274 14.7009 6.98376 14.6994L6.95642 14.6906C6.94789 14.6865 6.93996 14.6813 6.93298 14.675L6.91541 14.6535C6.91041 14.6455 6.90625 14.6371 6.90369 14.6281L6.89978 14.6008V9.99432L6.88904 9.76874C6.87429 9.61909 6.84476 9.47125 6.80115 9.32733L6.72498 9.11444C6.63829 8.90516 6.52146 8.70983 6.3783 8.53534L6.22595 8.36835L2.48083 4.62225C2.39038 4.53179 2.31342 4.42898 2.2533 4.31659L2.19861 4.20038C2.13339 4.0428 2.09999 3.87385 2.09998 3.70331V1.87225L2.10583 1.8371L2.12341 1.80682C2.13049 1.79851 2.13975 1.79197 2.14978 1.78632L2.18396 1.7746C4.07723 1.46301 6.01989 1.29999 8.00037 1.29999Z" fill="#111827" stroke="#18181B"/>
</g>
</svg>
