<svg width="20" height="20" viewBox="0 0 20 20" fill="none" xmlns="http://www.w3.org/2000/svg">
<path d="M7.69946 5.00977C7.68969 5.01367 7.67993 5.01562 7.67016 5.02148C4.90063 6.3125 3.69751 9.61719 4.98852 12.3867C5.70727 13.9277 7.04907 14.9824 8.57641 15.3926L7.89087 16.6914C6.09594 16.1191 4.5354 14.8359 3.67797 12.998C2.05102 9.50586 3.56665 5.33984 7.05883 3.71094L7.08813 3.69922L6.18969 1.77344L10.6975 2.74609L8.54321 6.82227L7.69946 5.00977ZM12.9651 16.377L13.8245 18.2188L9.31665 17.2461L11.469 13.168L12.3538 15.0664C15.1233 13.7754 16.3245 10.4727 15.0334 7.70313C14.3069 6.14453 12.9416 5.08203 11.3928 4.68164L12.0784 3.38281C13.8948 3.94727 15.4788 5.23828 16.344 7.09375C17.9729 10.582 16.4573 14.748 12.9651 16.377Z" fill="url(#paint0_linear_39_1491)"/>
<defs>
<linearGradient id="paint0_linear_39_1491" x1="2.47872" y1="16.3527" x2="15.9898" y2="14.3624" gradientUnits="userSpaceOnUse">
<stop stop-color="#ED1522"/>
<stop offset="1" stop-color="#E66E48"/>
</linearGradient>
</defs>
</svg>
