<svg width="13" height="12" viewBox="0 0 13 12" fill="none" xmlns="http://www.w3.org/2000/svg">
<g clip-path="url(#clip0_368_4951)">
<path d="M9.97867 6.60588C9.97958 6.75337 9.93477 6.89752 9.8504 7.01849C9.76603 7.13946 9.64624 7.23131 9.50752 7.28141L7.17213 8.14051L6.31303 10.4741C6.26215 10.6123 6.17011 10.7316 6.04931 10.8158C5.92852 10.9001 5.78478 10.9453 5.63751 10.9453C5.49023 10.9453 5.3465 10.9001 5.2257 10.8158C5.1049 10.7316 5.01286 10.6123 4.96198 10.4741L4.10062 8.14322L1.76659 7.28412C1.62838 7.23324 1.5091 7.1412 1.42484 7.0204C1.34059 6.89961 1.29541 6.75587 1.29541 6.6086C1.29541 6.46132 1.34059 6.31759 1.42484 6.19679C1.5091 6.07599 1.62838 5.98395 1.76659 5.93307L4.10198 5.07397L4.96108 2.74039C5.01195 2.60218 5.104 2.4829 5.2248 2.39864C5.34559 2.31439 5.48932 2.26921 5.6366 2.26921C5.78388 2.26921 5.92761 2.31439 6.04841 2.39864C6.1692 2.4829 6.26125 2.60218 6.31213 2.74039L7.17122 5.07578L9.50481 5.93488C9.64331 5.98427 9.76317 6.07524 9.84799 6.19535C9.93281 6.31546 9.97845 6.45884 9.97867 6.60588ZM7.44659 2.26517H8.17004V2.98862C8.17004 3.08456 8.20815 3.17657 8.27599 3.2444C8.34382 3.31224 8.43583 3.35035 8.53176 3.35035C8.6277 3.35035 8.71971 3.31224 8.78754 3.2444C8.85538 3.17657 8.89349 3.08456 8.89349 2.98862V2.26517H9.61694C9.71288 2.26517 9.80488 2.22706 9.87272 2.15923C9.94056 2.09139 9.97867 1.99938 9.97867 1.90345C9.97867 1.80751 9.94056 1.7155 9.87272 1.64767C9.80488 1.57983 9.71288 1.54172 9.61694 1.54172H8.89349V0.818269C8.89349 0.722333 8.85538 0.630327 8.78754 0.56249C8.71971 0.494653 8.6277 0.456543 8.53176 0.456543C8.43583 0.456543 8.34382 0.494653 8.27599 0.56249C8.20815 0.630327 8.17004 0.722333 8.17004 0.818269V1.54172H7.44659C7.35065 1.54172 7.25865 1.57983 7.19081 1.64767C7.12297 1.7155 7.08486 1.80751 7.08486 1.90345C7.08486 1.99938 7.12297 2.09139 7.19081 2.15923C7.25865 2.22706 7.35065 2.26517 7.44659 2.26517ZM11.4256 3.71208H11.0638V3.35035C11.0638 3.25441 11.0257 3.16241 10.9579 3.09457C10.8901 3.02673 10.7981 2.98862 10.7021 2.98862C10.6062 2.98862 10.5142 3.02673 10.4463 3.09457C10.3785 3.16241 10.3404 3.25441 10.3404 3.35035V3.71208H9.97867C9.88273 3.71208 9.79073 3.75019 9.72289 3.81802C9.65505 3.88586 9.61694 3.97787 9.61694 4.0738C9.61694 4.16974 9.65505 4.26174 9.72289 4.32958C9.79073 4.39742 9.88273 4.43553 9.97867 4.43553H10.3404V4.79725C10.3404 4.89319 10.3785 4.9852 10.4463 5.05303C10.5142 5.12087 10.6062 5.15898 10.7021 5.15898C10.7981 5.15898 10.8901 5.12087 10.9579 5.05303C11.0257 4.9852 11.0638 4.89319 11.0638 4.79725V4.43553H11.4256C11.5215 4.43553 11.6135 4.39742 11.6814 4.32958C11.7492 4.26174 11.7873 4.16974 11.7873 4.0738C11.7873 3.97787 11.7492 3.88586 11.6814 3.81802C11.6135 3.75019 11.5215 3.71208 11.4256 3.71208Z" fill="url(#paint0_linear_368_4951)"/>
</g>
<defs>
<linearGradient id="paint0_linear_368_4951" x1="0.885701" y1="1.6467" x2="10.9474" y2="3.39146" gradientUnits="userSpaceOnUse">
<stop stop-color="#ED1522"/>
<stop offset="1" stop-color="#E66E48"/>
</linearGradient>
<clipPath id="clip0_368_4951">
<rect width="11.5752" height="11.5752" fill="white" transform="translate(0.573853 0.0947266)"/>
</clipPath>
</defs>
</svg>
