<svg width="46" height="46" viewBox="0 0 46 46" fill="none" xmlns="http://www.w3.org/2000/svg">
<rect width="46" height="46" rx="10" fill="url(#paint0_linear_1603_17415)"/>
<path d="M29.4 31.8V35H7V31.8C7 31.8 7 25.4 18.2 25.4C29.4 25.4 29.4 31.8 29.4 31.8ZM23.8 16.6C23.8 15.4925 23.4716 14.4098 22.8562 13.4889C22.2409 12.5679 21.3663 11.8502 20.343 11.4263C19.3198 11.0025 18.1938 10.8916 17.1075 11.1077C16.0212 11.3237 15.0234 11.8571 14.2402 12.6403C13.457 13.4234 12.9237 14.4213 12.7076 15.5075C12.4915 16.5938 12.6024 17.7198 13.0263 18.7431C13.4501 19.7663 14.1679 20.6409 15.0888 21.2563C16.0097 21.8716 17.0924 22.2 18.2 22.2C19.6852 22.2 21.1096 21.61 22.1598 20.5598C23.21 19.5096 23.8 18.0853 23.8 16.6ZM29.304 25.4C30.2876 26.1612 31.0924 27.1287 31.6619 28.2344C32.2313 29.3401 32.5515 30.5572 32.6 31.8V35H39V31.8C39 31.8 39 25.992 29.304 25.4ZM27.8 11.0001C26.6988 10.9949 25.6221 11.3241 24.712 11.9441C25.6839 13.302 26.2065 14.9301 26.2065 16.6C26.2065 18.27 25.6839 19.8981 24.712 21.256C25.6221 21.876 26.6988 22.2052 27.8 22.2C29.2852 22.2 30.7096 21.61 31.7598 20.5598C32.81 19.5096 33.4 18.0853 33.4 16.6C33.4 15.1148 32.81 13.6905 31.7598 12.6403C30.7096 11.5901 29.2852 11.0001 27.8 11.0001Z" fill="white"/>
<defs>
<linearGradient id="paint0_linear_1603_17415" x1="-1.7963" y1="5.21964" x2="42.3182" y2="12.8671" gradientUnits="userSpaceOnUse">
<stop stop-color="#ED1522"/>
<stop offset="1" stop-color="#E66E48"/>
</linearGradient>
</defs>
</svg>
