<svg width="46" height="46" viewBox="0 0 46 46" fill="none" xmlns="http://www.w3.org/2000/svg">
<rect width="46" height="46" rx="10" fill="url(#paint0_linear_1603_17423)"/>
<path d="M11.8446 11C10.5597 11 9.32747 11.5048 8.41894 12.4034C7.51041 13.3021 7 14.5208 7 15.7917V16.75H38V15.7917C38 14.5208 37.4896 13.3021 36.5811 12.4034C35.6725 11.5048 34.4403 11 33.1554 11H11.8446ZM7 29.2083V18.6667H38V29.2083C38 30.4792 37.4896 31.6979 36.5811 32.5966C35.6725 33.4952 34.4403 34 33.1554 34H11.8458C10.561 34 9.32876 33.4952 8.42023 32.5966C7.5117 31.6979 7.00129 30.4792 7.00129 29.2083M27.9879 25.6944C27.7309 25.6944 27.4845 25.7954 27.3028 25.9751C27.1211 26.1549 27.019 26.3986 27.019 26.6528C27.019 26.9069 27.1211 27.1507 27.3028 27.3304C27.4845 27.5101 27.7309 27.6111 27.9879 27.6111H32.5095C32.7665 27.6111 33.0129 27.5101 33.1946 27.3304C33.3763 27.1507 33.4784 26.9069 33.4784 26.6528C33.4784 26.3986 33.3763 26.1549 33.1946 25.9751C33.0129 25.7954 32.7665 25.6944 32.5095 25.6944H27.9879Z" fill="white"/>
<defs>
<linearGradient id="paint0_linear_1603_17423" x1="-1.7963" y1="5.21964" x2="42.3182" y2="12.8671" gradientUnits="userSpaceOnUse">
<stop stop-color="#ED1522"/>
<stop offset="1" stop-color="#E66E48"/>
</linearGradient>
</defs>
</svg>
