<svg width="46" height="46" viewBox="0 0 46 46" fill="none" xmlns="http://www.w3.org/2000/svg">
<rect width="46" height="46" rx="10" fill="url(#paint0_linear_1603_17422)"/>
<path d="M31.8338 10.0038H15.1644C14.2568 10.0038 13.4749 10.0038 12.8291 10.0554C12.1488 10.1123 11.4703 10.2346 10.8193 10.5669C9.84715 11.0623 9.05678 11.8526 8.56144 12.8248C8.40973 13.154 8.31092 13.505 8.26867 13.865C8.22389 14.1647 8.18944 14.5194 8.16189 14.8932C8.10506 15.6441 8.06889 16.5723 8.0465 17.5144C8 19.4019 8 21.4342 8 22.3986V22.4038C8 22.8605 8.18145 23.2986 8.50443 23.6216C8.82741 23.9445 9.26546 24.126 9.72222 24.126C10.179 24.126 10.617 23.9445 10.94 23.6216C11.263 23.2986 11.4444 22.8605 11.4444 22.4038C11.4444 21.9216 11.4444 21.1844 11.4496 20.3371H35.5556V28.6038C35.5556 29.5975 35.5556 30.2382 35.5142 30.7256C35.4763 31.194 35.4109 31.3662 35.3678 31.4523C35.2027 31.7764 34.9393 32.0398 34.6152 32.2049C34.5291 32.248 34.3569 32.3134 33.8884 32.3513C33.4028 32.3927 32.7604 32.3927 31.7667 32.3927H23.5C23.0432 32.3927 22.6052 32.5741 22.2822 32.8971C21.9592 33.2201 21.7778 33.6581 21.7778 34.1149C21.7778 34.5716 21.9592 35.0097 22.2822 35.3327C22.6052 35.6557 23.0432 35.8371 23.5 35.8371H31.8338C32.7414 35.8371 33.5251 35.8371 34.1692 35.7854C34.8494 35.7286 35.528 35.6063 36.179 35.2739C37.1511 34.7786 37.9415 33.9882 38.4368 33.0161C38.7692 32.3651 38.8915 31.6866 38.9466 31.0063C39 30.3604 39 29.5768 39 28.6709V17.1682C39 16.2606 39 15.4787 38.9483 14.8329C38.8915 14.1526 38.7692 13.4741 38.4368 12.8231C37.9415 11.8509 37.1511 11.0606 36.179 10.5652C35.528 10.2328 34.8494 10.1106 34.1692 10.0554C33.3911 10.0088 32.6115 9.99161 31.8321 10.0038M35.5521 16.8927H11.5133C11.534 16.2399 11.5633 15.6406 11.5994 15.1481C11.6206 14.8582 11.6522 14.5693 11.6942 14.2818C11.8601 14.006 12.0999 13.7823 12.3865 13.6359C12.4726 13.5929 12.6448 13.5274 13.1133 13.4896C13.5972 13.4482 14.2396 13.4482 15.2333 13.4482H31.7667C32.7604 13.4482 33.4011 13.4482 33.8884 13.4896C34.3569 13.5274 34.5291 13.5929 34.6152 13.6359C34.9393 13.8011 35.2027 14.0645 35.3678 14.3886C35.4109 14.4747 35.4763 14.6469 35.5142 15.1153C35.5487 15.5442 35.5556 16.0918 35.5556 16.8927" fill="white"/>
<path d="M18.8741 30.4577L17.6341 31.6632C18.4126 33.1323 18.168 34.9785 16.8953 36.2116L14.9182 38.1302C14.1459 38.8681 13.1188 39.28 12.0507 39.28C10.9825 39.28 9.95543 38.8681 9.18316 38.1302C8.80961 37.7732 8.51228 37.3442 8.30915 36.8691C8.10601 36.394 8.00128 35.8827 8.00128 35.366C8.00128 34.8493 8.10601 34.338 8.30915 33.8629C8.51228 33.3878 8.80961 32.9588 9.18316 32.6018L10.4232 31.3997C10.0343 30.6643 9.89591 29.8222 10.0289 29.0011C10.162 28.1799 10.5592 27.4246 11.1603 26.8496L13.1374 24.931C13.9097 24.1931 14.9367 23.7812 16.0049 23.7812C17.0731 23.7812 18.1001 24.1931 18.8724 24.931C19.2459 25.288 19.5433 25.717 19.7464 26.1921C19.9495 26.6672 20.0543 27.1785 20.0543 27.6952C20.0543 28.2119 19.9495 28.7232 19.7464 29.1983C19.5433 29.6734 19.2459 30.1024 18.8724 30.4594M17.7512 29.4088C17.9821 29.1875 18.1658 28.9217 18.2913 28.6275C18.4168 28.3333 18.4815 28.0168 18.4815 27.6969C18.4815 27.3771 18.4168 27.0605 18.2913 26.7664C18.1658 26.4722 17.9821 26.2064 17.7512 25.985C17.2814 25.534 16.6553 25.2822 16.004 25.2822C15.3527 25.2822 14.7267 25.534 14.2568 25.985L12.278 27.9036C11.965 28.2046 11.7405 28.5856 11.6287 29.0052C11.517 29.4248 11.5224 29.8669 11.6442 30.2837C12.3868 29.7674 13.2771 29.5067 14.1809 29.5409C15.0846 29.5751 15.9527 29.9023 16.6542 30.4732L17.7512 29.4088ZM15.533 31.5306C15.0973 31.2084 14.5697 31.0345 14.0278 31.0345C13.4859 31.0345 12.9583 31.2084 12.5226 31.5306C12.9583 31.8528 13.4859 32.0267 14.0278 32.0267C14.5697 32.0267 15.0973 31.8528 15.533 31.5306ZM10.3026 33.6541C10.0717 33.8754 9.888 34.1412 9.76249 34.4354C9.63698 34.7296 9.57228 35.0461 9.57228 35.366C9.57228 35.6858 9.63698 36.0024 9.76249 36.2966C9.888 36.5908 10.0717 36.8565 10.3026 37.0779C10.7725 37.5289 11.3985 37.7807 12.0498 37.7807C12.7011 37.7807 13.3271 37.5289 13.797 37.0779L15.7758 35.1593C16.4389 34.5169 16.6507 33.599 16.4096 32.7792C15.6671 33.2955 14.7767 33.5562 13.873 33.522C12.9692 33.4879 12.1011 33.1606 11.3997 32.5898L10.3026 33.6541ZM26.9444 25.5028C26.4877 25.5028 26.0496 25.6843 25.7267 26.0073C25.4037 26.3302 25.2222 26.7683 25.2222 27.225C25.2222 27.6818 25.4037 28.1199 25.7267 28.4428C26.0496 28.7658 26.4877 28.9473 26.9444 28.9473H32.1111C32.5679 28.9473 33.0059 28.7658 33.3289 28.4428C33.6519 28.1199 33.8333 27.6818 33.8333 27.225C33.8333 26.7683 33.6519 26.3302 33.3289 26.0073C33.0059 25.6843 32.5679 25.5028 32.1111 25.5028H26.9444Z" fill="white"/>
<defs>
<linearGradient id="paint0_linear_1603_17422" x1="-1.7963" y1="5.21964" x2="42.3182" y2="12.8671" gradientUnits="userSpaceOnUse">
<stop stop-color="#ED1522"/>
<stop offset="1" stop-color="#E66E48"/>
</linearGradient>
</defs>
</svg>
