<?xml version="1.0"?>
<svg width="46" height="46" xmlns="http://www.w3.org/2000/svg" xmlns:svg="http://www.w3.org/2000/svg">
 <defs>
  <linearGradient id="paint0_linear_1603_17110" x1="-0.04" x2="0.92" y1="0.11" y2="0.28">
   <stop stop-color="#ED1522"/>
   <stop offset="1" stop-color="#E66E48"/>
  </linearGradient>
 </defs>
 <g class="layer">
  <title>Layer 1</title>
  <rect fill="url(#paint0_linear_1603_17110)" height="46" id="svg_1" rx="10" width="46"/>
  <path d="m37.02,19.3c-0.12,0.13 -0.22,0.29 -0.27,0.46c-0.05,0.17 -0.06,0.35 -0.02,0.53c0.18,0.88 0.26,1.78 0.26,2.71c0,2.82 -0.85,5.58 -2.44,7.91c-1.6,2.32 -3.86,4.12 -6.49,5.14c-2.63,1.02 -5.51,1.22 -8.25,0.58c-2.75,-0.65 -5.24,-2.11 -7.14,-4.19c-0.1,-0.1 -0.21,-0.19 -0.34,-0.25c-0.13,-0.06 -0.27,-0.1 -0.41,-0.1c-0.14,-0.01 -0.28,0.01 -0.41,0.06c-0.14,0.05 -0.26,0.13 -0.36,0.23c-0.18,0.17 -0.28,0.4 -0.29,0.64c-0.01,0.24 0.08,0.48 0.24,0.66c2.34,2.62 5.49,4.39 8.95,5.04c3.45,0.65 7.03,0.15 10.17,-1.44c3.14,-1.59 5.67,-4.17 7.19,-7.34c1.53,-3.16 1.97,-6.75 1.25,-10.19c-0.16,-0.77 -1.09,-1 -1.64,-0.45m-2.45,-5.97c0.18,-0.18 0.28,-0.41 0.29,-0.66c0.01,-0.25 -0.08,-0.49 -0.25,-0.67c-2.41,-2.55 -5.59,-4.23 -9.04,-4.79c-3.46,-0.57 -7,0.02 -10.1,1.67c-3.09,1.64 -5.55,4.26 -7.01,7.44c-1.46,3.19 -1.84,6.76 -1.07,10.18c0.17,0.75 1.09,0.98 1.64,0.43c0.26,-0.26 0.36,-0.64 0.28,-1c-0.64,-2.98 -0.29,-6.08 1,-8.83c1.28,-2.76 3.43,-5.03 6.11,-6.46c2.69,-1.43 5.76,-1.94 8.77,-1.47c3,0.48 5.77,1.92 7.88,4.11c0.1,0.1 0.21,0.19 0.34,0.24c0.13,0.06 0.26,0.09 0.4,0.1c0.14,0 0.28,-0.02 0.41,-0.07c0.13,-0.05 0.25,-0.13 0.35,-0.22z" fill="white" id="svg_25"/>
  <path clip-rule="evenodd" d="m35.24,9.01c0.27,0 0.52,0.1 0.71,0.29c0.19,0.19 0.29,0.44 0.29,0.71l0,4c0,0.26 -0.1,0.51 -0.29,0.7c-0.19,0.19 -0.44,0.29 -0.71,0.29l-3.99,0c-0.27,0 -0.52,-0.1 -0.71,-0.29c-0.19,-0.19 -0.29,-0.44 -0.29,-0.7c0,-0.27 0.1,-0.52 0.29,-0.71c0.19,-0.19 0.44,-0.29 0.71,-0.29l3,0l0,-3c0,-0.27 0.1,-0.52 0.29,-0.71c0.19,-0.19 0.44,-0.29 0.7,-0.29zm-25.19,22.28c0.09,-0.09 0.2,-0.16 0.32,-0.21c0.12,-0.06 0.25,-0.08 0.38,-0.08l4,0c0.27,0 0.52,0.1 0.71,0.29c0.19,0.19 0.29,0.44 0.29,0.71c0,0.26 -0.1,0.52 -0.29,0.71c-0.19,0.18 -0.44,0.29 -0.71,0.29l-3,0l0,3c0,0.26 -0.1,0.52 -0.29,0.7c-0.19,0.19 -0.44,0.3 -0.71,0.3c-0.26,0 -0.52,-0.11 -0.7,-0.3c-0.19,-0.18 -0.3,-0.44 -0.3,-0.7l0,-4c0,-0.13 0.03,-0.26 0.08,-0.38c0.05,-0.13 0.12,-0.23 0.22,-0.33z" fill="white" fill-rule="evenodd" id="svg_26"/>
  <path d="m23.45,23.67l0,3.88c1.32,-0.15 2.27,-0.91 2.27,-2.01c0,-1.12 -1.05,-1.53 -2.23,-1.86l-0.04,-0.01zm-2.87,-3.36c0,1.11 1.14,1.57 1.97,1.81l0,-3.64c-1.2,0.16 -1.97,0.88 -1.97,1.83z" fill="white" id="svg_27"/>
  <path clip-rule="evenodd" d="m23,33c2.65,0 5.19,-1.05 7.07,-2.93c1.87,-1.87 2.93,-4.42 2.93,-7.07c0,-2.65 -1.06,-5.19 -2.93,-7.07c-1.88,-1.87 -4.42,-2.92 -7.07,-2.92c-2.65,0 -5.19,1.05 -7.07,2.92c-1.87,1.88 -2.93,4.42 -2.93,7.07c0,2.65 1.06,5.2 2.93,7.07c1.88,1.88 4.42,2.93 7.07,2.93zm0.45,-3l-0.9,0l0,-1.22c-2.15,-0.14 -3.46,-1.34 -3.59,-3.07l1.4,0c0.1,1.13 1.04,1.72 2.19,1.84l0,-4.14l-0.44,-0.12c-1.75,-0.51 -2.84,-1.4 -2.84,-2.91c0,-1.72 1.41,-2.91 3.28,-3.1l0,-1.28l0.9,0l0,1.26c1.98,0.13 3.38,1.35 3.43,2.94l-1.31,0c-0.12,-0.99 -0.96,-1.62 -2.12,-1.73l0,3.89l0.43,0.12c1.16,0.3 3.15,0.98 3.15,3.08c0,1.71 -1.29,3.06 -3.58,3.22l0,1.22z" fill="white" fill-rule="evenodd" id="svg_28"/>
 </g>
</svg>