<svg width="40" height="40" viewBox="0 0 40 40" fill="none" xmlns="http://www.w3.org/2000/svg">
<path d="M34.8911 21.3652C35.5192 21.9933 35.5192 23.0086 34.8911 23.6367L21.1421 37.3857L21.1421 37.3867L21.1401 37.3887L21.1362 37.3916C21.105 37.4213 21.066 37.4585 21.022 37.4932C21.0031 37.5083 20.9833 37.5235 20.9673 37.5352L20.9019 37.583C20.8846 37.595 20.8676 37.6047 20.856 37.6113L20.8296 37.627L20.8257 37.6289L20.77 37.6621L20.7642 37.665C20.7396 37.6784 20.7146 37.6909 20.689 37.7021L20.6226 37.7324L20.5474 37.7598L20.5435 37.7617C20.5364 37.7641 20.5307 37.766 20.5161 37.7715C20.5038 37.7761 20.4856 37.7824 20.4644 37.7881L20.4644 37.7871C20.4417 37.7945 20.4213 37.7998 20.4038 37.8037L20.4038 37.8047L20.3188 37.8262L20.3169 37.8262C20.2864 37.8319 20.2564 37.8359 20.2329 37.8389L20.2065 37.8428C20.1949 37.8447 20.1773 37.8481 20.1577 37.8496L20.1577 37.8486C20.0537 37.8589 19.9482 37.8592 19.8442 37.8486L19.8345 37.8477L19.772 37.8389L19.7729 37.8379C19.7496 37.835 19.7201 37.8318 19.6899 37.8262L19.687 37.8262C19.6557 37.8199 19.6249 37.8107 19.606 37.8057L19.603 37.8047C19.5948 37.8024 19.5865 37.8007 19.5757 37.7979C19.5655 37.7952 19.5522 37.792 19.5386 37.7881L19.5396 37.7861C19.5064 37.7769 19.4655 37.7619 19.4595 37.7598C19.454 37.7578 19.4091 37.7446 19.3784 37.7305L19.3794 37.7295C19.3559 37.7192 19.33 37.7078 19.3179 37.7021L19.2827 37.6846C19.2725 37.6796 19.2608 37.6741 19.2485 37.668C19.223 37.6552 19.1835 37.6309 19.1802 37.6289C19.1635 37.6194 19.1334 37.6027 19.105 37.583C19.0807 37.5662 19.059 37.5497 19.0376 37.5332L19.0347 37.5313C19.0347 37.5313 19.0335 37.5303 19.0308 37.5283C19.0273 37.5259 19.025 37.5247 19.019 37.5205C19.0098 37.514 18.9932 37.5017 18.9761 37.4863L18.8188 37.3447L18.8247 37.3398L5.11768 23.6338L5.11865 23.6328C4.80452 23.3202 4.64697 22.908 4.64697 22.498C4.64707 22.0878 4.80406 21.677 5.11768 21.3633L5.11865 21.3633C5.42009 21.0626 5.82859 20.8936 6.2544 20.8936C6.68012 20.8937 7.08878 21.0626 7.39014 21.3633L18.3989 32.3721L18.3989 3.75C18.3989 3.32409 18.5675 2.91547 18.8687 2.61426C19.1698 2.31312 19.5785 2.14366 20.0044 2.14356C20.4303 2.14356 20.8389 2.31315 21.1401 2.61426C21.4414 2.91549 21.6108 3.324 21.6108 3.75L21.6108 32.374L32.6196 21.3652L32.6196 21.3643C33.2474 20.7383 34.2628 20.7369 34.8911 21.3652Z" fill="url(#paint0_linear_1178_2367)" stroke="url(#paint1_linear_1178_2367)" stroke-width="0.4"/>
<defs>
<linearGradient id="paint0_linear_1178_2367" x1="31.7227" y1="0.964765" x2="24.9546" y2="34.4816" gradientUnits="userSpaceOnUse">
<stop stop-color="#ED1522"/>
<stop offset="1" stop-color="#E66E48"/>
</linearGradient>
<linearGradient id="paint1_linear_1178_2367" x1="31.7227" y1="0.964765" x2="24.9546" y2="34.4816" gradientUnits="userSpaceOnUse">
<stop stop-color="#ED1522"/>
<stop offset="1" stop-color="#E66E48"/>
</linearGradient>
</defs>
</svg>
