<svg width="22" height="22" viewBox="0 0 22 22" fill="none" xmlns="http://www.w3.org/2000/svg">
<path d="M10.9034 14.4244C10.4867 14.4244 10.0945 14.2627 9.7997 13.9689L5.45506 9.62359C5.29071 9.45924 5.2002 9.2407 5.2002 9.0083C5.2002 8.7759 5.29069 8.55734 5.45506 8.39301C5.61944 8.22868 5.83794 8.13818 6.07036 8.13818C6.30275 8.13818 6.52131 8.22863 6.68565 8.39301L10.9031 12.6108L15.1215 8.39301C15.2858 8.22865 15.5044 8.13818 15.7368 8.13818C15.9692 8.13818 16.1877 8.22863 16.3521 8.39301C16.6914 8.73233 16.6914 9.28427 16.3521 9.6237L12.0075 13.9679C11.7131 14.2623 11.321 14.4244 10.9034 14.4244Z" fill="#FFA8A8"/>
<path d="M10.9034 14.4244C10.4867 14.4244 10.0945 14.2627 9.7997 13.9689L5.45506 9.62359C5.29071 9.45924 5.2002 9.2407 5.2002 9.0083C5.2002 8.7759 5.29069 8.55734 5.45506 8.39301C5.61944 8.22868 5.83794 8.13818 6.07036 8.13818C6.30275 8.13818 6.52131 8.22863 6.68565 8.39301L10.9031 12.6108L15.1215 8.39301C15.2858 8.22865 15.5044 8.13818 15.7368 8.13818C15.9692 8.13818 16.1877 8.22863 16.3521 8.39301C16.6914 8.73233 16.6914 9.28427 16.3521 9.6237L12.0075 13.9679C11.7131 14.2623 11.321 14.4244 10.9034 14.4244Z" fill="black" fill-opacity="0.2"/>
<path d="M10.9034 14.4244C10.4867 14.4244 10.0945 14.2627 9.7997 13.9689L5.45506 9.62359C5.29071 9.45924 5.2002 9.2407 5.2002 9.0083C5.2002 8.7759 5.29069 8.55734 5.45506 8.39301C5.61944 8.22868 5.83794 8.13818 6.07036 8.13818C6.30275 8.13818 6.52131 8.22863 6.68565 8.39301L10.9031 12.6108L15.1215 8.39301C15.2858 8.22865 15.5044 8.13818 15.7368 8.13818C15.9692 8.13818 16.1877 8.22863 16.3521 8.39301C16.6914 8.73233 16.6914 9.28427 16.3521 9.6237L12.0075 13.9679C11.7131 14.2623 11.321 14.4244 10.9034 14.4244Z" fill="black" fill-opacity="0.2"/>
<path d="M10.9034 14.4244C10.4867 14.4244 10.0945 14.2627 9.7997 13.9689L5.45506 9.62359C5.29071 9.45924 5.2002 9.2407 5.2002 9.0083C5.2002 8.7759 5.29069 8.55734 5.45506 8.39301C5.61944 8.22868 5.83794 8.13818 6.07036 8.13818C6.30275 8.13818 6.52131 8.22863 6.68565 8.39301L10.9031 12.6108L15.1215 8.39301C15.2858 8.22865 15.5044 8.13818 15.7368 8.13818C15.9692 8.13818 16.1877 8.22863 16.3521 8.39301C16.6914 8.73233 16.6914 9.28427 16.3521 9.6237L12.0075 13.9679C11.7131 14.2623 11.321 14.4244 10.9034 14.4244Z" fill="black" fill-opacity="0.2"/>
<path d="M10.9034 14.4244C10.4867 14.4244 10.0945 14.2627 9.7997 13.9689L5.45506 9.62359C5.29071 9.45924 5.2002 9.2407 5.2002 9.0083C5.2002 8.7759 5.29069 8.55734 5.45506 8.39301C5.61944 8.22868 5.83794 8.13818 6.07036 8.13818C6.30275 8.13818 6.52131 8.22863 6.68565 8.39301L10.9031 12.6108L15.1215 8.39301C15.2858 8.22865 15.5044 8.13818 15.7368 8.13818C15.9692 8.13818 16.1877 8.22863 16.3521 8.39301C16.6914 8.73233 16.6914 9.28427 16.3521 9.6237L12.0075 13.9679C11.7131 14.2623 11.321 14.4244 10.9034 14.4244Z" fill="black" fill-opacity="0.2"/>
<path d="M10.9033 14.2513C10.4236 14.2513 10.0332 13.861 10.0332 13.381V2.33385C10.0332 1.85402 10.4234 1.46362 10.9033 1.46362C11.3832 1.46362 11.7735 1.85387 11.7735 2.33385V13.381C11.7735 13.8609 11.3833 14.2513 10.9033 14.2513Z" fill="#FFA8A8"/>
<path d="M10.9033 14.2513C10.4236 14.2513 10.0332 13.861 10.0332 13.381V2.33385C10.0332 1.85402 10.4234 1.46362 10.9033 1.46362C11.3832 1.46362 11.7735 1.85387 11.7735 2.33385V13.381C11.7735 13.8609 11.3833 14.2513 10.9033 14.2513Z" fill="black" fill-opacity="0.2"/>
<path d="M10.9033 14.2513C10.4236 14.2513 10.0332 13.861 10.0332 13.381V2.33385C10.0332 1.85402 10.4234 1.46362 10.9033 1.46362C11.3832 1.46362 11.7735 1.85387 11.7735 2.33385V13.381C11.7735 13.8609 11.3833 14.2513 10.9033 14.2513Z" fill="black" fill-opacity="0.2"/>
<path d="M10.9033 14.2513C10.4236 14.2513 10.0332 13.861 10.0332 13.381V2.33385C10.0332 1.85402 10.4234 1.46362 10.9033 1.46362C11.3832 1.46362 11.7735 1.85387 11.7735 2.33385V13.381C11.7735 13.8609 11.3833 14.2513 10.9033 14.2513Z" fill="black" fill-opacity="0.2"/>
<path d="M10.9033 14.2513C10.4236 14.2513 10.0332 13.861 10.0332 13.381V2.33385C10.0332 1.85402 10.4234 1.46362 10.9033 1.46362C11.3832 1.46362 11.7735 1.85387 11.7735 2.33385V13.381C11.7735 13.8609 11.3833 14.2513 10.9033 14.2513Z" fill="black" fill-opacity="0.2"/>
<path d="M4.45919 21.1558C2.45639 21.1558 0.827148 19.5265 0.827148 17.5238V7.39718C0.827148 5.3944 2.45646 3.76514 4.45919 3.76514C4.93896 3.76514 5.32931 4.15536 5.32931 4.63525C5.32931 5.11515 4.93909 5.50537 4.45919 5.50537C3.41599 5.50537 2.56745 6.354 2.56745 7.39711V17.5237C2.56745 18.5668 3.41606 19.4155 4.45919 19.4155H17.3477C18.3908 19.4155 19.2394 18.5668 19.2394 17.5237V7.39711C19.2394 6.35402 18.3908 5.50537 17.3477 5.50537C16.8679 5.50537 16.4776 5.11515 16.4776 4.63525C16.4776 4.15536 16.8678 3.76514 17.3477 3.76514C19.3505 3.76514 20.9797 5.39445 20.9797 7.39718V17.5238C20.9797 19.5266 19.3504 21.1558 17.3477 21.1558H4.45919Z" fill="#FFA8A8"/>
<path d="M4.45919 21.1558C2.45639 21.1558 0.827148 19.5265 0.827148 17.5238V7.39718C0.827148 5.3944 2.45646 3.76514 4.45919 3.76514C4.93896 3.76514 5.32931 4.15536 5.32931 4.63525C5.32931 5.11515 4.93909 5.50537 4.45919 5.50537C3.41599 5.50537 2.56745 6.354 2.56745 7.39711V17.5237C2.56745 18.5668 3.41606 19.4155 4.45919 19.4155H17.3477C18.3908 19.4155 19.2394 18.5668 19.2394 17.5237V7.39711C19.2394 6.35402 18.3908 5.50537 17.3477 5.50537C16.8679 5.50537 16.4776 5.11515 16.4776 4.63525C16.4776 4.15536 16.8678 3.76514 17.3477 3.76514C19.3505 3.76514 20.9797 5.39445 20.9797 7.39718V17.5238C20.9797 19.5266 19.3504 21.1558 17.3477 21.1558H4.45919Z" fill="black" fill-opacity="0.2"/>
<path d="M4.45919 21.1558C2.45639 21.1558 0.827148 19.5265 0.827148 17.5238V7.39718C0.827148 5.3944 2.45646 3.76514 4.45919 3.76514C4.93896 3.76514 5.32931 4.15536 5.32931 4.63525C5.32931 5.11515 4.93909 5.50537 4.45919 5.50537C3.41599 5.50537 2.56745 6.354 2.56745 7.39711V17.5237C2.56745 18.5668 3.41606 19.4155 4.45919 19.4155H17.3477C18.3908 19.4155 19.2394 18.5668 19.2394 17.5237V7.39711C19.2394 6.35402 18.3908 5.50537 17.3477 5.50537C16.8679 5.50537 16.4776 5.11515 16.4776 4.63525C16.4776 4.15536 16.8678 3.76514 17.3477 3.76514C19.3505 3.76514 20.9797 5.39445 20.9797 7.39718V17.5238C20.9797 19.5266 19.3504 21.1558 17.3477 21.1558H4.45919Z" fill="black" fill-opacity="0.2"/>
<path d="M4.45919 21.1558C2.45639 21.1558 0.827148 19.5265 0.827148 17.5238V7.39718C0.827148 5.3944 2.45646 3.76514 4.45919 3.76514C4.93896 3.76514 5.32931 4.15536 5.32931 4.63525C5.32931 5.11515 4.93909 5.50537 4.45919 5.50537C3.41599 5.50537 2.56745 6.354 2.56745 7.39711V17.5237C2.56745 18.5668 3.41606 19.4155 4.45919 19.4155H17.3477C18.3908 19.4155 19.2394 18.5668 19.2394 17.5237V7.39711C19.2394 6.35402 18.3908 5.50537 17.3477 5.50537C16.8679 5.50537 16.4776 5.11515 16.4776 4.63525C16.4776 4.15536 16.8678 3.76514 17.3477 3.76514C19.3505 3.76514 20.9797 5.39445 20.9797 7.39718V17.5238C20.9797 19.5266 19.3504 21.1558 17.3477 21.1558H4.45919Z" fill="black" fill-opacity="0.2"/>
<path d="M4.45919 21.1558C2.45639 21.1558 0.827148 19.5265 0.827148 17.5238V7.39718C0.827148 5.3944 2.45646 3.76514 4.45919 3.76514C4.93896 3.76514 5.32931 4.15536 5.32931 4.63525C5.32931 5.11515 4.93909 5.50537 4.45919 5.50537C3.41599 5.50537 2.56745 6.354 2.56745 7.39711V17.5237C2.56745 18.5668 3.41606 19.4155 4.45919 19.4155H17.3477C18.3908 19.4155 19.2394 18.5668 19.2394 17.5237V7.39711C19.2394 6.35402 18.3908 5.50537 17.3477 5.50537C16.8679 5.50537 16.4776 5.11515 16.4776 4.63525C16.4776 4.15536 16.8678 3.76514 17.3477 3.76514C19.3505 3.76514 20.9797 5.39445 20.9797 7.39718V17.5238C20.9797 19.5266 19.3504 21.1558 17.3477 21.1558H4.45919Z" fill="black" fill-opacity="0.2"/>
</svg>
