<svg width="80" height="80" viewBox="0 0 80 80" fill="none" xmlns="http://www.w3.org/2000/svg">
<path d="M61.2927 27.2366L45.01 10.7122C44.7544 10.4521 44.4684 10.2241 44.1582 10.0331L43.9077 9.90731H43.7324C43.1951 9.63396 42.6057 9.47957 42.0039 9.45459L21.7382 9.45459C20.6107 9.45451 19.5287 9.90073 18.7268 10.6965C17.9249 11.4922 17.4678 12.5732 17.4546 13.7052V65.5673C17.4678 66.6993 17.9249 67.7803 18.7268 68.5761C19.5287 69.3718 20.6107 69.818 21.7382 69.8179H58.3117C58.8695 69.8247 59.423 69.7193 59.9397 69.5081C60.4564 69.2969 60.9257 68.9841 61.3202 68.588C61.7147 68.1919 62.0263 67.7207 62.2366 67.2019C62.447 66.6832 62.5519 66.1274 62.5452 65.5673V30.2296C62.5433 29.6725 62.4316 29.1212 62.2167 28.6075C62.0017 28.0939 61.6877 27.628 61.2927 27.2366ZM29.5539 50.9544H28.2513V54.7271H25.5458V43.409H29.4788C31.9838 43.409 33.9878 44.2893 33.9878 47.0811C33.9878 49.8729 31.9337 50.9544 29.5539 50.9544ZM39.2985 54.7271H35.8916V43.409H39.1482C39.9118 43.2983 40.6905 43.3662 41.4237 43.6073C42.1569 43.8485 42.8247 44.2564 43.375 44.7992C43.9254 45.3421 44.3435 46.0052 44.5966 46.7369C44.8498 47.4687 44.9312 48.2492 44.8346 49.0177C44.9432 49.7797 44.8762 50.5565 44.6387 51.2884C44.4012 52.0203 43.9996 52.6877 43.4648 53.2392C42.93 53.7908 42.2763 54.2117 41.554 54.4697C40.8317 54.7276 40.06 54.8157 39.2985 54.7271ZM54.0782 45.6474H49.6192V48.1626H53.4269V50.4011H49.6192V54.7271H46.9388V43.409H54.1032L54.0782 45.6474ZM44.058 27.8403V15.9688L55.8568 27.8654L44.058 27.8403Z" fill="#D81E06"/>
<path d="M39.0779 45.8882H38.7524V52.3636H39.0779C40.8802 52.3636 42.182 51.5921 42.182 49.0908C42.182 46.5895 40.9053 45.8882 39.0779 45.8882ZM29.4652 45.8181H28.3638V48.8805H29.5153C30.842 48.8805 31.4679 48.2727 31.4679 47.2675C31.4679 46.2623 30.7669 45.8181 29.4652 45.8181Z" fill="#D81E06"/>
</svg>
