<svg width="80" height="80" viewBox="0 0 80 80" fill="none" xmlns="http://www.w3.org/2000/svg">
<path d="M42.0039 9.4541C42.6057 9.47909 43.1952 9.63388 43.7324 9.90723H43.9072L44.1582 10.0322C44.4684 10.2233 44.7542 10.4519 45.0098 10.7119L61.293 27.2363C61.6878 27.6276 62.0019 28.0939 62.2168 28.6074C62.4316 29.121 62.543 29.6725 62.5449 30.2295V65.5664C62.5516 66.1264 62.4467 66.6825 62.2363 67.2012C62.026 67.7199 61.7148 68.1918 61.3203 68.5879C60.9259 68.9839 60.4561 69.2966 59.9395 69.5078C59.4228 69.719 58.8693 69.8241 58.3115 69.8174H21.7383C20.6108 69.8175 19.5285 69.3709 18.7266 68.5752C17.9248 67.7795 17.4673 66.6982 17.4541 65.5664V13.7051C17.4673 12.5733 17.9248 11.492 18.7266 10.6963C19.5285 9.90056 20.6108 9.45402 21.7383 9.4541H42.0039ZM50.6514 43.2578C49.856 43.2578 49.1455 43.3959 48.5205 43.6729C47.8955 43.9498 47.4036 44.3355 47.0449 44.8291C46.6898 45.3227 46.514 45.9 46.5176 46.5605C46.5141 47.3666 46.7789 48.0076 47.3115 48.4834C47.8442 48.9592 48.5706 49.3085 49.4902 49.5322L50.6777 49.8311C51.0754 49.9269 51.4111 50.0332 51.6846 50.1504C51.9616 50.2676 52.1714 50.4102 52.3135 50.5771C52.4588 50.7439 52.5312 50.9496 52.5312 51.1943C52.5312 51.4571 52.4518 51.6902 52.292 51.8926C52.1322 52.095 51.9064 52.2526 51.6152 52.3662C51.3276 52.4798 50.9883 52.5371 50.5977 52.5371C50.2 52.5371 49.8433 52.4762 49.5273 52.3555C49.215 52.2312 48.9645 52.0489 48.7764 51.8076C48.5917 51.5626 48.4868 51.2564 48.4619 50.8906H46.2305C46.2482 51.6754 46.4376 52.3345 46.7998 52.8672C47.1655 53.3963 47.6735 53.7955 48.3232 54.0654C48.9767 54.3353 49.7443 54.4707 50.625 54.4707C51.5126 54.4707 52.271 54.3376 52.8994 54.0713C53.5313 53.8014 54.0139 53.4229 54.3477 52.9365C54.685 52.4465 54.8558 51.8677 54.8594 51.2002C54.8558 50.7459 54.7726 50.3426 54.6094 49.9912C54.4496 49.6396 54.2238 49.3335 53.9326 49.0742C53.6415 48.815 53.297 48.5965 52.8994 48.4189C52.5017 48.2414 52.0646 48.0997 51.5889 47.9932L50.6084 47.7588C50.3706 47.7055 50.1469 47.6419 49.9375 47.5674C49.7282 47.4893 49.5435 47.3988 49.3838 47.2959C49.224 47.1894 49.0972 47.0626 49.0049 46.917C48.9163 46.7716 48.8758 46.6013 48.8828 46.4062C48.8828 46.1719 48.95 45.962 49.085 45.7773C49.2235 45.5927 49.4224 45.4487 49.6816 45.3457C49.9408 45.2392 50.2585 45.1866 50.6348 45.1865C51.1887 45.1865 51.628 45.305 51.9512 45.543C52.2741 45.7808 52.4573 46.1145 52.5 46.5439H54.71C54.6992 45.8943 54.5257 45.3226 54.1885 44.8291C53.8511 44.3355 53.3787 43.9498 52.7715 43.6729C52.1678 43.3959 51.4609 43.2578 50.6514 43.2578ZM24.4951 43.4072L27.8457 48.8613L24.4316 54.3164H27.0732L29.3105 50.5928H29.3955L31.6328 54.3164H34.2861L30.8818 48.8613L34.2109 43.4072H31.6064L29.3955 47.125H29.3105L27.1104 43.4072H24.4951ZM36.8711 54.3164H43.8545V52.415H39.1777V43.4072H36.8711V54.3164ZM44.0576 27.8398L55.8564 27.8652L44.0576 15.9688V27.8398Z" fill="#44B058"/>
</svg>
