<svg width="1184" height="477" viewBox="0 0 1184 477" fill="none" xmlns="http://www.w3.org/2000/svg">
<mask id="path-2-inside-1_1163_12259" fill="white">
<path d="M48 20C48 8.9543 56.9543 0 68 0H1116C1127.05 0 1136 8.95431 1136 20V408.381C1136 419.427 1127.05 428.381 1116 428.381H68C56.9543 428.381 48 419.427 48 408.381V20Z"/>
</mask>
<path d="M48 20C48 8.9543 56.9543 0 68 0H1116C1127.05 0 1136 8.95431 1136 20V408.381C1136 419.427 1127.05 428.381 1116 428.381H68C56.9543 428.381 48 419.427 48 408.381V20Z" fill="#F4F4F5" fill-opacity="0.4"/>
<path d="M48 0H1136H48ZM1137 408.381C1137 419.979 1127.6 429.381 1116 429.381H68C56.402 429.381 47 419.979 47 408.381H49C49 418.874 57.5066 427.381 68 427.381H1116C1126.49 427.381 1135 418.874 1135 408.381H1137ZM68 429.381C56.402 429.381 47 419.979 47 408.381V21C47 9.40202 56.402 0 68 0C57.5066 0 49 8.9543 49 20V408.381C49 418.874 57.5066 427.381 68 427.381V429.381ZM1116 0C1127.6 0 1137 9.40202 1137 21V408.381C1137 419.979 1127.6 429.381 1116 429.381V427.381C1126.49 427.381 1135 418.874 1135 408.381V20C1135 8.9543 1126.49 0 1116 0Z" fill="#DBDBDB" mask="url(#path-2-inside-1_1163_12259)"/>
<g filter="url(#filter0_dd_1163_12259)">
<rect x="534.225" y="142" width="110.551" height="110.551" rx="30.4396" fill="url(#paint0_linear_1163_12259)" shape-rendering="crispEdges"/>
<path d="M562.968 176.501H582.413L602.54 205.383L605.157 182.292H599.341L609.18 172.954L618.243 182.292H612.427L609.18 221.597H601.134L579.323 192.426L577.422 215.806H583.626V221.597H562.989V215.806H568.805L572.053 182.292H562.968V176.501Z" fill="white"/>
</g>
<path d="M130.364 69.1818V107H123.513V75.848H123.292L114.446 81.4986V75.2202L123.846 69.1818H130.364ZM161.958 86.1335L155.864 86.7983C155.692 86.1828 155.39 85.6042 154.959 85.0625C154.541 84.5208 153.974 84.0838 153.26 83.7514C152.546 83.419 151.672 83.2528 150.638 83.2528C149.247 83.2528 148.078 83.5544 147.13 84.1577C146.194 84.7609 145.732 85.5426 145.745 86.5028C145.732 87.3277 146.034 87.9986 146.65 88.5156C147.277 89.0327 148.311 89.4574 149.752 89.7898L154.59 90.8239C157.274 91.4025 159.268 92.3196 160.573 93.5753C161.89 94.831 162.555 96.4744 162.567 98.5057C162.555 100.291 162.032 101.866 160.998 103.233C159.976 104.587 158.554 105.646 156.732 106.409C154.91 107.172 152.817 107.554 150.453 107.554C146.982 107.554 144.187 106.828 142.07 105.375C139.953 103.91 138.691 101.873 138.284 99.2628L144.803 98.6349C145.098 99.9152 145.726 100.882 146.686 101.534C147.647 102.187 148.896 102.513 150.435 102.513C152.023 102.513 153.297 102.187 154.257 101.534C155.23 100.882 155.716 100.075 155.716 99.1151C155.716 98.3026 155.402 97.6316 154.775 97.1023C154.159 96.5729 153.199 96.1667 151.894 95.8835L147.056 94.8679C144.335 94.3016 142.322 93.3475 141.017 92.0057C139.712 90.6515 139.066 88.9403 139.078 86.8722C139.066 85.1241 139.54 83.6098 140.5 82.3295C141.473 81.0369 142.821 80.0398 144.544 79.3381C146.28 78.6241 148.281 78.267 150.546 78.267C153.87 78.267 156.486 78.9749 158.394 80.3906C160.314 81.8063 161.502 83.7206 161.958 86.1335ZM181.743 78.6364V83.8068H165.437V78.6364H181.743ZM169.463 71.8409H176.147V98.4688C176.147 99.3674 176.283 100.057 176.554 100.537C176.837 101.005 177.206 101.325 177.662 101.497C178.117 101.67 178.622 101.756 179.176 101.756C179.594 101.756 179.976 101.725 180.321 101.663C180.678 101.602 180.949 101.546 181.133 101.497L182.26 106.723C181.903 106.846 181.392 106.982 180.727 107.129C180.074 107.277 179.274 107.363 178.326 107.388C176.652 107.437 175.144 107.185 173.802 106.631C172.46 106.064 171.395 105.19 170.608 104.009C169.832 102.827 169.45 101.349 169.463 99.5767V71.8409ZM224.862 81.2585C224.554 80.2614 224.13 79.3688 223.588 78.581C223.059 77.7808 222.419 77.0975 221.668 76.5312C220.929 75.965 220.08 75.5402 219.119 75.2571C218.159 74.9616 217.113 74.8139 215.98 74.8139C213.949 74.8139 212.139 75.3248 210.551 76.3466C208.963 77.3684 207.714 78.8703 206.803 80.8523C205.904 82.822 205.455 85.2225 205.455 88.054C205.455 90.91 205.904 93.3291 206.803 95.3111C207.701 97.2931 208.951 98.8011 210.551 99.8352C212.152 100.857 214.01 101.368 216.128 101.368C218.048 101.368 219.71 100.999 221.114 100.26C222.529 99.5213 223.619 98.4749 224.382 97.1207C225.145 95.7543 225.527 94.1539 225.527 92.3196L227.078 92.5597H216.811V87.2045H232.156V91.7472C232.156 94.9848 231.467 97.7855 230.088 100.149C228.709 102.513 226.813 104.335 224.401 105.615C221.988 106.883 219.218 107.517 216.091 107.517C212.607 107.517 209.548 106.735 206.913 105.172C204.291 103.596 202.241 101.362 200.764 98.4688C199.299 95.5634 198.567 92.1165 198.567 88.1278C198.567 85.0748 198.998 82.348 199.859 79.9474C200.733 77.5469 201.952 75.5095 203.516 73.8352C205.079 72.1487 206.913 70.8684 209.018 69.9943C211.124 69.108 213.413 68.6648 215.888 68.6648C217.981 68.6648 219.932 68.9725 221.741 69.5881C223.551 70.1913 225.158 71.053 226.561 72.1733C227.977 73.2936 229.14 74.6231 230.051 76.1619C230.962 77.7008 231.559 79.3996 231.842 81.2585H224.862ZM244.67 69.1818V107H237.985V69.1818H244.67ZM263.416 107.554C260.646 107.554 258.246 106.945 256.214 105.726C254.183 104.507 252.607 102.802 251.487 100.611C250.379 98.4195 249.825 95.8589 249.825 92.929C249.825 89.9991 250.379 87.4323 251.487 85.2287C252.607 83.0251 254.183 81.3139 256.214 80.0952C258.246 78.8764 260.646 78.267 263.416 78.267C266.186 78.267 268.587 78.8764 270.618 80.0952C272.649 81.3139 274.219 83.0251 275.327 85.2287C276.447 87.4323 277.007 89.9991 277.007 92.929C277.007 95.8589 276.447 98.4195 275.327 100.611C274.219 102.802 272.649 104.507 270.618 105.726C268.587 106.945 266.186 107.554 263.416 107.554ZM263.453 102.199C264.955 102.199 266.211 101.786 267.22 100.962C268.23 100.125 268.981 99.0043 269.473 97.6009C269.978 96.1974 270.23 94.634 270.23 92.9105C270.23 91.1747 269.978 89.6051 269.473 88.2017C268.981 86.786 268.23 85.6596 267.22 84.8224C266.211 83.9853 264.955 83.5668 263.453 83.5668C261.914 83.5668 260.634 83.9853 259.612 84.8224C258.603 85.6596 257.846 86.786 257.341 88.2017C256.848 89.6051 256.602 91.1747 256.602 92.9105C256.602 94.634 256.848 96.1974 257.341 97.6009C257.846 99.0043 258.603 100.125 259.612 100.962C260.634 101.786 261.914 102.199 263.453 102.199ZM282.476 107V69.1818H289.161V83.3267H289.438C289.783 82.6373 290.269 81.9048 290.897 81.1293C291.525 80.3414 292.374 79.6705 293.445 79.1165C294.516 78.5502 295.882 78.267 297.544 78.267C299.736 78.267 301.712 78.8272 303.472 79.9474C305.245 81.0554 306.648 82.6989 307.682 84.8778C308.729 87.0445 309.252 89.7036 309.252 92.8551C309.252 95.9697 308.741 98.6165 307.719 100.795C306.697 102.974 305.306 104.636 303.546 105.781C301.785 106.926 299.791 107.499 297.563 107.499C295.938 107.499 294.59 107.228 293.519 106.686C292.448 106.144 291.586 105.492 290.934 104.729C290.293 103.953 289.795 103.221 289.438 102.531H289.05V107H282.476ZM289.032 92.8182C289.032 94.6525 289.29 96.259 289.807 97.6378C290.337 99.0166 291.094 100.094 292.078 100.869C293.076 101.633 294.282 102.014 295.698 102.014C297.175 102.014 298.412 101.62 299.409 100.832C300.407 100.032 301.158 98.9427 301.662 97.5639C302.179 96.1728 302.438 94.5909 302.438 92.8182C302.438 91.0578 302.185 89.4943 301.681 88.1278C301.176 86.7614 300.425 85.6903 299.428 84.9148C298.431 84.1392 297.187 83.7514 295.698 83.7514C294.27 83.7514 293.057 84.1269 292.06 84.8778C291.063 85.6288 290.306 86.6813 289.789 88.0355C289.284 89.3897 289.032 90.9839 289.032 92.8182ZM322.597 107.572C320.799 107.572 319.18 107.252 317.74 106.612C316.312 105.96 315.179 105 314.342 103.732C313.518 102.464 313.105 100.9 313.105 99.0412C313.105 97.4408 313.401 96.1174 313.991 95.071C314.582 94.0246 315.389 93.1875 316.411 92.5597C317.432 91.9318 318.583 91.4579 319.864 91.1378C321.156 90.8054 322.492 90.5653 323.871 90.4176C325.533 90.2453 326.881 90.0914 327.915 89.956C328.949 89.8082 329.7 89.5866 330.168 89.2912C330.648 88.9834 330.888 88.5095 330.888 87.8693V87.7585C330.888 86.3674 330.475 85.2902 329.651 84.527C328.826 83.7637 327.638 83.3821 326.087 83.3821C324.449 83.3821 323.151 83.7391 322.19 84.4531C321.242 85.1671 320.602 86.0104 320.27 86.983L314.028 86.0966C314.521 84.3731 315.333 82.9328 316.466 81.7756C317.598 80.6061 318.983 79.732 320.621 79.1534C322.258 78.5625 324.068 78.267 326.05 78.267C327.416 78.267 328.777 78.4271 330.131 78.7472C331.485 79.0672 332.722 79.5966 333.842 80.3352C334.963 81.0616 335.861 82.0526 336.538 83.3082C337.228 84.5639 337.572 86.1335 337.572 88.017V107H331.146V103.104H330.925C330.518 103.892 329.946 104.63 329.207 105.32C328.481 105.997 327.564 106.545 326.456 106.963C325.36 107.369 324.074 107.572 322.597 107.572ZM324.332 102.661C325.674 102.661 326.838 102.396 327.822 101.866C328.807 101.325 329.564 100.611 330.094 99.7244C330.635 98.8381 330.906 97.8717 330.906 96.8253V93.483C330.697 93.6553 330.34 93.8153 329.835 93.9631C329.343 94.1108 328.789 94.2401 328.173 94.3509C327.558 94.4616 326.948 94.5601 326.345 94.6463C325.742 94.7325 325.219 94.8063 324.776 94.8679C323.778 95.0033 322.886 95.2249 322.098 95.5327C321.31 95.8404 320.688 96.2713 320.233 96.8253C319.777 97.367 319.55 98.0687 319.55 98.9304C319.55 100.161 319.999 101.091 320.898 101.719C321.796 102.347 322.941 102.661 324.332 102.661ZM350.479 69.1818V107H343.794V69.1818H350.479ZM369.547 107V69.1818H384.024C386.757 69.1818 389.028 69.6127 390.838 70.4744C392.66 71.3239 394.02 72.4872 394.919 73.9645C395.83 75.4418 396.285 77.116 396.285 78.9872C396.285 80.526 395.99 81.8433 395.399 82.9389C394.808 84.0223 394.014 84.9025 393.017 85.5795C392.02 86.2566 390.905 86.7429 389.674 87.0384V87.4077C391.016 87.4815 392.303 87.8939 393.534 88.6449C394.777 89.3835 395.793 90.4299 396.581 91.7841C397.368 93.1383 397.762 94.7756 397.762 96.696C397.762 98.6534 397.288 100.414 396.341 101.977C395.393 103.528 393.965 104.753 392.056 105.652C390.148 106.551 387.748 107 384.855 107H369.547ZM376.397 101.276H383.765C386.252 101.276 388.043 100.802 389.139 99.8537C390.247 98.8935 390.801 97.6624 390.801 96.1605C390.801 95.0402 390.524 94.0308 389.97 93.1321C389.416 92.2211 388.628 91.5071 387.606 90.9901C386.584 90.4607 385.366 90.196 383.95 90.196H376.397V101.276ZM376.397 85.2656H383.174C384.356 85.2656 385.421 85.0502 386.369 84.6193C387.317 84.1761 388.062 83.5544 388.603 82.7543C389.157 81.9418 389.434 80.9815 389.434 79.8736C389.434 78.4086 388.917 77.2022 387.883 76.2543C386.861 75.3063 385.341 74.8324 383.322 74.8324H376.397V85.2656ZM415.299 107.554C412.529 107.554 410.129 106.945 408.097 105.726C406.066 104.507 404.49 102.802 403.37 100.611C402.262 98.4195 401.708 95.8589 401.708 92.929C401.708 89.9991 402.262 87.4323 403.37 85.2287C404.49 83.0251 406.066 81.3139 408.097 80.0952C410.129 78.8764 412.529 78.267 415.299 78.267C418.069 78.267 420.469 78.8764 422.501 80.0952C424.532 81.3139 426.102 83.0251 427.21 85.2287C428.33 87.4323 428.89 89.9991 428.89 92.929C428.89 95.8589 428.33 98.4195 427.21 100.611C426.102 102.802 424.532 104.507 422.501 105.726C420.469 106.945 418.069 107.554 415.299 107.554ZM415.336 102.199C416.838 102.199 418.094 101.786 419.103 100.962C420.112 100.125 420.863 99.0043 421.356 97.6009C421.861 96.1974 422.113 94.634 422.113 92.9105C422.113 91.1747 421.861 89.6051 421.356 88.2017C420.863 86.786 420.112 85.6596 419.103 84.8224C418.094 83.9853 416.838 83.5668 415.336 83.5668C413.797 83.5668 412.517 83.9853 411.495 84.8224C410.486 85.6596 409.728 86.786 409.224 88.2017C408.731 89.6051 408.485 91.1747 408.485 92.9105C408.485 94.634 408.731 96.1974 409.224 97.6009C409.728 99.0043 410.486 100.125 411.495 100.962C412.517 101.786 413.797 102.199 415.336 102.199ZM452.142 95.071V78.6364H458.826V107H452.345V101.959H452.049C451.409 103.547 450.357 104.846 448.892 105.855C447.439 106.865 445.648 107.369 443.518 107.369C441.659 107.369 440.016 106.957 438.588 106.132C437.172 105.295 436.064 104.082 435.264 102.494C434.464 100.894 434.064 98.9612 434.064 96.696V78.6364H440.748V95.6619C440.748 97.4593 441.241 98.8873 442.225 99.946C443.21 101.005 444.503 101.534 446.103 101.534C447.088 101.534 448.042 101.294 448.966 100.814C449.889 100.334 450.646 99.6198 451.237 98.6719C451.84 97.7116 452.142 96.5114 452.142 95.071ZM479.364 78.6364V83.8068H463.058V78.6364H479.364ZM467.084 71.8409H473.768V98.4688C473.768 99.3674 473.904 100.057 474.175 100.537C474.458 101.005 474.827 101.325 475.283 101.497C475.738 101.67 476.243 101.756 476.797 101.756C477.215 101.756 477.597 101.725 477.942 101.663C478.299 101.602 478.57 101.546 478.754 101.497L479.881 106.723C479.524 106.846 479.013 106.982 478.348 107.129C477.696 107.277 476.895 107.363 475.947 107.388C474.273 107.437 472.765 107.185 471.423 106.631C470.081 106.064 469.017 105.19 468.229 104.009C467.453 102.827 467.071 101.349 467.084 99.5767V71.8409ZM484.454 107V78.6364H491.139V107H484.454ZM487.815 74.6108C486.756 74.6108 485.845 74.2599 485.082 73.5582C484.319 72.8442 483.937 71.9886 483.937 70.9915C483.937 69.982 484.319 69.1264 485.082 68.4247C485.845 67.7107 486.756 67.3537 487.815 67.3537C488.886 67.3537 489.797 67.7107 490.548 68.4247C491.311 69.1264 491.693 69.982 491.693 70.9915C491.693 71.9886 491.311 72.8442 490.548 73.5582C489.797 74.2599 488.886 74.6108 487.815 74.6108ZM516.44 117.636V102.531H516.163C515.819 103.221 515.32 103.953 514.668 104.729C514.015 105.492 513.153 106.144 512.082 106.686C511.011 107.228 509.663 107.499 508.038 107.499C505.81 107.499 503.816 106.926 502.055 105.781C500.295 104.636 498.904 102.974 497.882 100.795C496.86 98.6165 496.349 95.9697 496.349 92.8551C496.349 89.7036 496.866 87.0445 497.901 84.8778C498.947 82.6989 500.357 81.0554 502.129 79.9474C503.902 78.8272 505.878 78.267 508.057 78.267C509.719 78.267 511.085 78.5502 512.156 79.1165C513.227 79.6705 514.077 80.3414 514.705 81.1293C515.332 81.9048 515.819 82.6373 516.163 83.3267H516.57V78.6364H523.143V117.636H516.44ZM509.903 102.014C511.319 102.014 512.526 101.633 513.523 100.869C514.52 100.094 515.277 99.0166 515.794 97.6378C516.311 96.259 516.57 94.6525 516.57 92.8182C516.57 90.9839 516.311 89.3897 515.794 88.0355C515.289 86.6813 514.538 85.6288 513.541 84.8778C512.556 84.1269 511.344 83.7514 509.903 83.7514C508.414 83.7514 507.17 84.1392 506.173 84.9148C505.176 85.6903 504.425 86.7614 503.92 88.1278C503.416 89.4943 503.163 91.0578 503.163 92.8182C503.163 94.5909 503.416 96.1728 503.92 97.5639C504.438 98.9427 505.195 100.032 506.192 100.832C507.201 101.62 508.438 102.014 509.903 102.014ZM547.591 95.071V78.6364H554.276V107H547.794V101.959H547.499C546.858 103.547 545.806 104.846 544.341 105.855C542.888 106.865 541.097 107.369 538.967 107.369C537.108 107.369 535.465 106.957 534.037 106.132C532.621 105.295 531.513 104.082 530.713 102.494C529.913 100.894 529.513 98.9612 529.513 96.696V78.6364H536.197V95.6619C536.197 97.4593 536.69 98.8873 537.675 99.946C538.66 101.005 539.952 101.534 541.553 101.534C542.537 101.534 543.491 101.294 544.415 100.814C545.338 100.334 546.095 99.6198 546.686 98.6719C547.289 97.7116 547.591 96.5114 547.591 95.071ZM573.206 107.554C570.363 107.554 567.907 106.963 565.838 105.781C563.783 104.587 562.201 102.901 561.093 100.722C559.985 98.5303 559.431 95.9512 559.431 92.9844C559.431 90.0668 559.985 87.5062 561.093 85.3026C562.213 83.0866 563.776 81.3632 565.783 80.1321C567.79 78.8887 570.147 78.267 572.855 78.267C574.604 78.267 576.253 78.5502 577.804 79.1165C579.368 79.6705 580.747 80.5322 581.941 81.7017C583.147 82.8712 584.095 84.3608 584.784 86.1705C585.474 87.9678 585.819 90.1098 585.819 92.5966V94.6463H562.57V90.1406H579.411C579.399 88.8603 579.122 87.7216 578.58 86.7244C578.038 85.715 577.281 84.9209 576.309 84.3423C575.348 83.7637 574.228 83.4744 572.948 83.4744C571.581 83.4744 570.381 83.8068 569.347 84.4716C568.313 85.1241 567.507 85.9858 566.928 87.0568C566.362 88.1155 566.072 89.2789 566.06 90.5469V94.4801C566.06 96.1297 566.362 97.5455 566.965 98.7273C567.568 99.8968 568.411 100.795 569.495 101.423C570.578 102.039 571.846 102.347 573.299 102.347C574.271 102.347 575.151 102.211 575.939 101.94C576.727 101.657 577.41 101.245 577.989 100.703C578.568 100.161 579.005 99.4905 579.3 98.6903L585.542 99.392C585.148 101.042 584.397 102.482 583.289 103.713C582.193 104.932 580.79 105.88 579.078 106.557C577.367 107.222 575.41 107.554 573.206 107.554ZM634.746 69.1818V107H628.652L610.832 81.2401H610.518V107H603.668V69.1818H609.798L627.599 94.9602H627.932V69.1818H634.746ZM653.972 107.554C651.128 107.554 648.672 106.963 646.604 105.781C644.548 104.587 642.966 102.901 641.858 100.722C640.75 98.5303 640.196 95.9512 640.196 92.9844C640.196 90.0668 640.75 87.5062 641.858 85.3026C642.979 83.0866 644.542 81.3632 646.549 80.1321C648.555 78.8887 650.913 78.267 653.621 78.267C655.369 78.267 657.019 78.5502 658.57 79.1165C660.133 79.6705 661.512 80.5322 662.706 81.7017C663.913 82.8712 664.861 84.3608 665.55 86.1705C666.239 87.9678 666.584 90.1098 666.584 92.5966V94.6463H643.336V90.1406H660.176C660.164 88.8603 659.887 87.7216 659.346 86.7244C658.804 85.715 658.047 84.9209 657.074 84.3423C656.114 83.7637 654.994 83.4744 653.713 83.4744C652.347 83.4744 651.147 83.8068 650.113 84.4716C649.078 85.1241 648.272 85.9858 647.694 87.0568C647.127 88.1155 646.838 89.2789 646.826 90.5469V94.4801C646.826 96.1297 647.127 97.5455 647.73 98.7273C648.334 99.8968 649.177 100.795 650.26 101.423C651.344 102.039 652.612 102.347 654.064 102.347C655.037 102.347 655.917 102.211 656.705 101.94C657.493 101.657 658.176 101.245 658.755 100.703C659.333 100.161 659.77 99.4905 660.066 98.6903L666.307 99.392C665.913 101.042 665.162 102.482 664.054 103.713C662.959 104.932 661.555 105.88 659.844 106.557C658.133 107.222 656.176 107.554 653.972 107.554ZM684.112 107.554C681.342 107.554 678.941 106.945 676.91 105.726C674.879 104.507 673.303 102.802 672.183 100.611C671.075 98.4195 670.521 95.8589 670.521 92.929C670.521 89.9991 671.075 87.4323 672.183 85.2287C673.303 83.0251 674.879 81.3139 676.91 80.0952C678.941 78.8764 681.342 78.267 684.112 78.267C686.881 78.267 689.282 78.8764 691.313 80.0952C693.344 81.3139 694.914 83.0251 696.022 85.2287C697.142 87.4323 697.702 89.9991 697.702 92.929C697.702 95.8589 697.142 98.4195 696.022 100.611C694.914 102.802 693.344 104.507 691.313 105.726C689.282 106.945 686.881 107.554 684.112 107.554ZM684.148 102.199C685.65 102.199 686.906 101.786 687.915 100.962C688.925 100.125 689.676 99.0043 690.168 97.6009C690.673 96.1974 690.925 94.634 690.925 92.9105C690.925 91.1747 690.673 89.6051 690.168 88.2017C689.676 86.786 688.925 85.6596 687.915 84.8224C686.906 83.9853 685.65 83.5668 684.148 83.5668C682.61 83.5668 681.329 83.9853 680.308 84.8224C679.298 85.6596 678.541 86.786 678.036 88.2017C677.544 89.6051 677.298 91.1747 677.298 92.9105C677.298 94.634 677.544 96.1974 678.036 97.6009C678.541 99.0043 679.298 100.125 680.308 100.962C681.329 101.786 682.61 102.199 684.148 102.199ZM703.172 107V69.1818H709.856V83.3267H710.133C710.478 82.6373 710.964 81.9048 711.592 81.1293C712.22 80.3414 713.069 79.6705 714.14 79.1165C715.211 78.5502 716.578 78.267 718.24 78.267C720.431 78.267 722.407 78.8272 724.167 79.9474C725.94 81.0554 727.343 82.6989 728.377 84.8778C729.424 87.0445 729.947 89.7036 729.947 92.8551C729.947 95.9697 729.436 98.6165 728.414 100.795C727.393 102.974 726.002 104.636 724.241 105.781C722.481 106.926 720.486 107.499 718.258 107.499C716.633 107.499 715.285 107.228 714.214 106.686C713.143 106.144 712.281 105.492 711.629 104.729C710.989 103.953 710.49 103.221 710.133 102.531H709.745V107H703.172ZM709.727 92.8182C709.727 94.6525 709.985 96.259 710.502 97.6378C711.032 99.0166 711.789 100.094 712.774 100.869C713.771 101.633 714.977 102.014 716.393 102.014C717.87 102.014 719.108 101.62 720.105 100.832C721.102 100.032 721.853 98.9427 722.358 97.5639C722.875 96.1728 723.133 94.5909 723.133 92.8182C723.133 91.0578 722.881 89.4943 722.376 88.1278C721.871 86.7614 721.12 85.6903 720.123 84.9148C719.126 84.1392 717.883 83.7514 716.393 83.7514C714.965 83.7514 713.752 84.1269 712.755 84.8778C711.758 85.6288 711.001 86.6813 710.484 88.0355C709.979 89.3897 709.727 90.9839 709.727 92.8182ZM743.292 107.572C741.495 107.572 739.876 107.252 738.435 106.612C737.007 105.96 735.875 105 735.038 103.732C734.213 102.464 733.8 100.9 733.8 99.0412C733.8 97.4408 734.096 96.1174 734.687 95.071C735.278 94.0246 736.084 93.1875 737.106 92.5597C738.128 91.9318 739.279 91.4579 740.559 91.1378C741.852 90.8054 743.187 90.5653 744.566 90.4176C746.228 90.2453 747.576 90.0914 748.61 89.956C749.644 89.8082 750.395 89.5866 750.863 89.2912C751.343 88.9834 751.583 88.5095 751.583 87.8693V87.7585C751.583 86.3674 751.171 85.2902 750.346 84.527C749.521 83.7637 748.333 83.3821 746.782 83.3821C745.145 83.3821 743.846 83.7391 742.886 84.4531C741.938 85.1671 741.298 86.0104 740.965 86.983L734.724 86.0966C735.216 84.3731 736.029 82.9328 737.161 81.7756C738.294 80.6061 739.679 79.732 741.316 79.1534C742.953 78.5625 744.763 78.267 746.745 78.267C748.112 78.267 749.472 78.4271 750.826 78.7472C752.18 79.0672 753.417 79.5966 754.538 80.3352C755.658 81.0616 756.557 82.0526 757.234 83.3082C757.923 84.5639 758.268 86.1335 758.268 88.017V107H751.842V103.104H751.62C751.214 103.892 750.641 104.63 749.903 105.32C749.176 105.997 748.259 106.545 747.151 106.963C746.056 107.369 744.769 107.572 743.292 107.572ZM745.028 102.661C746.37 102.661 747.533 102.396 748.518 101.866C749.503 101.325 750.26 100.611 750.789 99.7244C751.331 98.8381 751.602 97.8717 751.602 96.8253V93.483C751.392 93.6553 751.035 93.8153 750.531 93.9631C750.038 94.1108 749.484 94.2401 748.869 94.3509C748.253 94.4616 747.644 94.5601 747.04 94.6463C746.437 94.7325 745.914 94.8063 745.471 94.8679C744.474 95.0033 743.581 95.2249 742.793 95.5327C742.005 95.8404 741.384 96.2713 740.928 96.8253C740.473 97.367 740.245 98.0687 740.245 98.9304C740.245 100.161 740.694 101.091 741.593 101.719C742.492 102.347 743.637 102.661 745.028 102.661ZM771.174 90.3807V107H764.489V78.6364H770.879V83.456H771.211C771.863 81.8679 772.904 80.6061 774.332 79.6705C775.772 78.7348 777.551 78.267 779.668 78.267C781.626 78.267 783.331 78.6856 784.783 79.5227C786.248 80.3598 787.381 81.5724 788.181 83.1605C788.994 84.7486 789.394 86.6752 789.381 88.9403V107H782.697V89.9744C782.697 88.0786 782.204 86.5952 781.219 85.5241C780.247 84.4531 778.899 83.9176 777.175 83.9176C776.006 83.9176 774.966 84.1761 774.055 84.6932C773.156 85.1979 772.448 85.9304 771.931 86.8906C771.426 87.8509 771.174 89.0142 771.174 90.3807ZM801.771 98.0994L801.752 90.0298H802.823L813.016 78.6364H820.827L808.289 92.5966H806.904L801.771 98.0994ZM795.677 107V69.1818H802.362V107H795.677ZM813.478 107L804.245 94.0923L808.751 89.3835L821.474 107H813.478ZM847.2 86.1335L841.106 86.7983C840.934 86.1828 840.632 85.6042 840.201 85.0625C839.783 84.5208 839.217 84.0838 838.502 83.7514C837.788 83.419 836.914 83.2528 835.88 83.2528C834.489 83.2528 833.32 83.5544 832.372 84.1577C831.436 84.7609 830.975 85.5426 830.987 86.5028C830.975 87.3277 831.276 87.9986 831.892 88.5156C832.52 89.0327 833.554 89.4574 834.994 89.7898L839.832 90.8239C842.516 91.4025 844.51 92.3196 845.815 93.5753C847.132 94.831 847.797 96.4744 847.809 98.5057C847.797 100.291 847.274 101.866 846.24 103.233C845.218 104.587 843.796 105.646 841.974 106.409C840.152 107.172 838.059 107.554 835.696 107.554C832.224 107.554 829.43 106.828 827.312 105.375C825.195 103.91 823.933 101.873 823.527 99.2628L830.045 98.6349C830.341 99.9152 830.968 100.882 831.929 101.534C832.889 102.187 834.138 102.513 835.677 102.513C837.265 102.513 838.539 102.187 839.5 101.534C840.472 100.882 840.958 100.075 840.958 99.1151C840.958 98.3026 840.645 97.6316 840.017 97.1023C839.401 96.5729 838.441 96.1667 837.136 95.8835L832.298 94.8679C829.577 94.3016 827.565 93.3475 826.26 92.0057C824.955 90.6515 824.308 88.9403 824.321 86.8722C824.308 85.1241 824.782 83.6098 825.743 82.3295C826.715 81.0369 828.063 80.0398 829.787 79.3381C831.522 78.6241 833.523 78.267 835.788 78.267C839.112 78.267 841.728 78.9749 843.636 80.3906C845.556 81.8063 846.744 83.7206 847.2 86.1335ZM865.515 107V69.1818H879.697C882.602 69.1818 885.04 69.7235 887.01 70.8068C888.992 71.8902 890.487 73.3797 891.497 75.2756C892.519 77.1591 893.029 79.3011 893.029 81.7017C893.029 84.1269 892.519 86.2812 891.497 88.1648C890.475 90.0483 888.967 91.5317 886.973 92.6151C884.978 93.6861 882.522 94.2216 879.605 94.2216H870.206V88.5895H878.681C880.38 88.5895 881.771 88.294 882.855 87.7031C883.938 87.1122 884.738 86.2997 885.255 85.2656C885.785 84.2315 886.049 83.0436 886.049 81.7017C886.049 80.3598 885.785 79.178 885.255 78.1562C884.738 77.1345 883.932 76.3404 882.836 75.7741C881.753 75.1955 880.356 74.9062 878.645 74.9062H872.366V107H865.515ZM904.869 69.1818V107H898.185V69.1818H904.869ZM919.405 107.572C917.608 107.572 915.989 107.252 914.549 106.612C913.121 105.96 911.988 105 911.151 103.732C910.326 102.464 909.914 100.9 909.914 99.0412C909.914 97.4408 910.209 96.1174 910.8 95.071C911.391 94.0246 912.197 93.1875 913.219 92.5597C914.241 91.9318 915.392 91.4579 916.672 91.1378C917.965 90.8054 919.301 90.5653 920.679 90.4176C922.341 90.2453 923.689 90.0914 924.723 89.956C925.757 89.8082 926.508 89.5866 926.976 89.2912C927.456 88.9834 927.696 88.5095 927.696 87.8693V87.7585C927.696 86.3674 927.284 85.2902 926.459 84.527C925.634 83.7637 924.446 83.3821 922.895 83.3821C921.258 83.3821 919.959 83.7391 918.999 84.4531C918.051 85.1671 917.411 86.0104 917.078 86.983L910.837 86.0966C911.329 84.3731 912.142 82.9328 913.275 81.7756C914.407 80.6061 915.792 79.732 917.429 79.1534C919.067 78.5625 920.876 78.267 922.858 78.267C924.225 78.267 925.585 78.4271 926.939 78.7472C928.293 79.0672 929.531 79.5966 930.651 80.3352C931.771 81.0616 932.67 82.0526 933.347 83.3082C934.036 84.5639 934.381 86.1335 934.381 88.017V107H927.955V103.104H927.733C927.327 103.892 926.755 104.63 926.016 105.32C925.29 105.997 924.373 106.545 923.265 106.963C922.169 107.369 920.882 107.572 919.405 107.572ZM921.141 102.661C922.483 102.661 923.646 102.396 924.631 101.866C925.616 101.325 926.373 100.611 926.902 99.7244C927.444 98.8381 927.715 97.8717 927.715 96.8253V93.483C927.506 93.6553 927.149 93.8153 926.644 93.9631C926.151 94.1108 925.597 94.2401 924.982 94.3509C924.366 94.4616 923.757 94.5601 923.154 94.6463C922.551 94.7325 922.027 94.8063 921.584 94.8679C920.587 95.0033 919.694 95.2249 918.907 95.5327C918.119 95.8404 917.497 96.2713 917.042 96.8253C916.586 97.367 916.358 98.0687 916.358 98.9304C916.358 100.161 916.808 101.091 917.706 101.719C918.605 102.347 919.75 102.661 921.141 102.661ZM954.766 78.6364V83.8068H938.461V78.6364H954.766ZM942.486 71.8409H949.171V98.4688C949.171 99.3674 949.306 100.057 949.577 100.537C949.86 101.005 950.23 101.325 950.685 101.497C951.141 101.67 951.645 101.756 952.199 101.756C952.618 101.756 952.999 101.725 953.344 101.663C953.701 101.602 953.972 101.546 954.157 101.497L955.283 106.723C954.926 106.846 954.415 106.982 953.75 107.129C953.098 107.277 952.298 107.363 951.35 107.388C949.676 107.437 948.167 107.185 946.826 106.631C945.484 106.064 944.419 105.19 943.631 104.009C942.855 102.827 942.474 101.349 942.486 99.5767V71.8409ZM974.223 78.6364V83.8068H957.456V78.6364H974.223ZM961.648 107V75.9588C961.648 74.0507 962.042 72.4626 962.83 71.1946C963.63 69.9266 964.701 68.9787 966.043 68.3509C967.384 67.723 968.874 67.4091 970.511 67.4091C971.669 67.4091 972.696 67.5014 973.595 67.6861C974.494 67.8707 975.159 68.0369 975.589 68.1847L974.26 73.3551C973.977 73.2689 973.62 73.1828 973.189 73.0966C972.758 72.9981 972.278 72.9489 971.749 72.9489C970.505 72.9489 969.625 73.2505 969.108 73.8537C968.603 74.4446 968.351 75.294 968.351 76.402V107H961.648ZM990.264 107.554C987.494 107.554 985.093 106.945 983.062 105.726C981.031 104.507 979.455 102.802 978.335 100.611C977.227 98.4195 976.673 95.8589 976.673 92.929C976.673 89.9991 977.227 87.4323 978.335 85.2287C979.455 83.0251 981.031 81.3139 983.062 80.0952C985.093 78.8764 987.494 78.267 990.264 78.267C993.034 78.267 995.434 78.8764 997.466 80.0952C999.497 81.3139 1001.07 83.0251 1002.17 85.2287C1003.29 87.4323 1003.85 89.9991 1003.85 92.929C1003.85 95.8589 1003.29 98.4195 1002.17 100.611C1001.07 102.802 999.497 104.507 997.466 105.726C995.434 106.945 993.034 107.554 990.264 107.554ZM990.301 102.199C991.803 102.199 993.058 101.786 994.068 100.962C995.077 100.125 995.828 99.0043 996.321 97.6009C996.825 96.1974 997.078 94.634 997.078 92.9105C997.078 91.1747 996.825 89.6051 996.321 88.2017C995.828 86.786 995.077 85.6596 994.068 84.8224C993.058 83.9853 991.803 83.5668 990.301 83.5668C988.762 83.5668 987.482 83.9853 986.46 84.8224C985.45 85.6596 984.693 86.786 984.189 88.2017C983.696 89.6051 983.45 91.1747 983.45 92.9105C983.45 94.634 983.696 96.1974 984.189 97.6009C984.693 99.0043 985.45 100.125 986.46 100.962C987.482 101.786 988.762 102.199 990.301 102.199ZM1009.03 107V78.6364H1015.51V83.3636H1015.81C1016.32 81.7263 1017.21 80.4645 1018.46 79.5781C1019.73 78.6795 1021.18 78.2301 1022.8 78.2301C1023.17 78.2301 1023.59 78.2486 1024.04 78.2855C1024.51 78.3101 1024.9 78.3532 1025.2 78.4148V84.5639C1024.92 84.4654 1024.47 84.3793 1023.86 84.3054C1023.25 84.2192 1022.67 84.1761 1022.1 84.1761C1020.88 84.1761 1019.79 84.4408 1018.82 84.9702C1017.86 85.4872 1017.1 86.2074 1016.54 87.1307C1015.99 88.054 1015.71 89.1188 1015.71 90.3253V107H1009.03ZM1029.15 107V78.6364H1035.53V83.456H1035.87C1036.46 81.831 1037.44 80.563 1038.8 79.652C1040.17 78.7287 1041.8 78.267 1043.7 78.267C1045.62 78.267 1047.24 78.7348 1048.55 79.6705C1049.88 80.5937 1050.82 81.8556 1051.36 83.456H1051.66C1052.28 81.8802 1053.34 80.6245 1054.83 79.6889C1056.33 78.741 1058.11 78.267 1060.17 78.267C1062.78 78.267 1064.91 79.0919 1066.56 80.7415C1068.21 82.3911 1069.03 84.7978 1069.03 87.9616V107H1062.33V88.9957C1062.33 87.2353 1061.86 85.9489 1060.93 85.1364C1059.99 84.3116 1058.84 83.8991 1057.49 83.8991C1055.88 83.8991 1054.62 84.4039 1053.71 85.4134C1052.81 86.4105 1052.36 87.7093 1052.36 89.3097V107H1045.8V88.7188C1045.8 87.2538 1045.36 86.0843 1044.47 85.2102C1043.6 84.3362 1042.45 83.8991 1041.04 83.8991C1040.08 83.8991 1039.2 84.1454 1038.42 84.6378C1037.63 85.1179 1037 85.8011 1036.53 86.6875C1036.06 87.5616 1035.83 88.5833 1035.83 89.7528V107H1029.15Z" fill="url(#paint1_linear_1163_12259)"/>
<path d="M440.396 26.3636H442.526L446.231 35.4091H446.367L450.072 26.3636H452.202V38H450.532V29.5795H450.424L446.992 37.983H445.606L442.174 29.5739H442.066V38H440.396V26.3636ZM456.908 38.1932C456.355 38.1932 455.855 38.0909 455.408 37.8864C454.961 37.678 454.607 37.3769 454.346 36.983C454.088 36.589 453.96 36.1061 453.96 35.5341C453.96 35.0417 454.054 34.6364 454.244 34.3182C454.433 34 454.689 33.7481 455.011 33.5625C455.333 33.3769 455.692 33.2367 456.09 33.142C456.488 33.0473 456.893 32.9754 457.306 32.9261C457.829 32.8655 458.253 32.8163 458.579 32.7784C458.905 32.7367 459.141 32.6705 459.289 32.5795C459.437 32.4886 459.511 32.3409 459.511 32.1364V32.0966C459.511 31.6004 459.371 31.2159 459.09 30.9432C458.814 30.6705 458.401 30.5341 457.852 30.5341C457.28 30.5341 456.829 30.661 456.499 30.9148C456.174 31.1648 455.948 31.4432 455.823 31.75L454.227 31.3864C454.416 30.8561 454.692 30.428 455.056 30.1023C455.424 29.7727 455.846 29.5341 456.323 29.3864C456.8 29.2348 457.302 29.1591 457.829 29.1591C458.177 29.1591 458.547 29.2008 458.937 29.2841C459.331 29.3636 459.698 29.5114 460.039 29.7273C460.384 29.9432 460.666 30.2519 460.886 30.6534C461.105 31.0511 461.215 31.5682 461.215 32.2045V38H459.556V36.8068H459.488C459.378 37.0265 459.213 37.2424 458.994 37.4545C458.774 37.6667 458.492 37.8428 458.147 37.983C457.802 38.1231 457.389 38.1932 456.908 38.1932ZM457.278 36.8295C457.747 36.8295 458.149 36.7367 458.482 36.5511C458.819 36.3655 459.075 36.1231 459.249 35.8239C459.427 35.5208 459.516 35.197 459.516 34.8523V33.7273C459.456 33.7879 459.338 33.8447 459.164 33.8977C458.994 33.947 458.799 33.9905 458.579 34.0284C458.359 34.0625 458.145 34.0947 457.937 34.125C457.728 34.1515 457.554 34.1742 457.414 34.1932C457.085 34.2348 456.783 34.3049 456.511 34.4034C456.242 34.5019 456.026 34.6439 455.863 34.8295C455.704 35.0114 455.624 35.2538 455.624 35.5568C455.624 35.9773 455.78 36.2955 456.09 36.5114C456.401 36.7235 456.797 36.8295 457.278 36.8295ZM466.495 38.1705C465.79 38.1705 465.162 37.9905 464.609 37.6307C464.059 37.267 463.628 36.75 463.313 36.0795C463.003 35.4053 462.847 34.5966 462.847 33.6534C462.847 32.7102 463.004 31.9034 463.319 31.233C463.637 30.5625 464.073 30.0492 464.626 29.6932C465.179 29.3371 465.806 29.1591 466.506 29.1591C467.048 29.1591 467.484 29.25 467.813 29.4318C468.147 29.6098 468.404 29.8182 468.586 30.0568C468.772 30.2955 468.915 30.5057 469.018 30.6875H469.12V26.3636H470.819V38H469.16V36.642H469.018C468.915 36.8277 468.768 37.0398 468.575 37.2784C468.385 37.517 468.124 37.7254 467.79 37.9034C467.457 38.0814 467.025 38.1705 466.495 38.1705ZM466.87 36.7216C467.359 36.7216 467.772 36.5928 468.109 36.3352C468.45 36.0739 468.707 35.7121 468.881 35.25C469.059 34.7879 469.148 34.25 469.148 33.6364C469.148 33.0303 469.061 32.5 468.887 32.0455C468.713 31.5909 468.457 31.2367 468.12 30.983C467.783 30.7292 467.366 30.6023 466.87 30.6023C466.359 30.6023 465.933 30.7348 465.592 31C465.251 31.2652 464.993 31.6269 464.819 32.0852C464.648 32.5436 464.563 33.0606 464.563 33.6364C464.563 34.2197 464.65 34.7443 464.825 35.2102C464.999 35.6761 465.256 36.0455 465.597 36.3182C465.942 36.5871 466.366 36.7216 466.87 36.7216ZM476.755 38.1761C475.895 38.1761 475.155 37.9924 474.533 37.625C473.916 37.2538 473.439 36.733 473.102 36.0625C472.768 35.3883 472.602 34.5985 472.602 33.6932C472.602 32.7992 472.768 32.0114 473.102 31.3295C473.439 30.6477 473.908 30.1155 474.511 29.733C475.117 29.3504 475.825 29.1591 476.636 29.1591C477.128 29.1591 477.605 29.2405 478.067 29.4034C478.53 29.5663 478.944 29.822 479.312 30.1705C479.679 30.5189 479.969 30.9716 480.181 31.5284C480.393 32.0814 480.499 32.7538 480.499 33.5455V34.1477H473.562V32.875H478.835C478.835 32.428 478.744 32.0322 478.562 31.6875C478.38 31.339 478.124 31.0644 477.795 30.8636C477.469 30.6629 477.086 30.5625 476.647 30.5625C476.17 30.5625 475.753 30.6799 475.397 30.9148C475.045 31.1458 474.772 31.4489 474.579 31.8239C474.389 32.1951 474.295 32.5985 474.295 33.0341V34.0284C474.295 34.6117 474.397 35.108 474.602 35.517C474.81 35.9261 475.1 36.2386 475.471 36.4545C475.842 36.6667 476.276 36.7727 476.772 36.7727C477.094 36.7727 477.388 36.7273 477.653 36.6364C477.918 36.5417 478.147 36.4015 478.34 36.2159C478.533 36.0303 478.681 35.8011 478.783 35.5284L480.391 35.8182C480.263 36.2917 480.031 36.7064 479.698 37.0625C479.369 37.4148 478.954 37.6894 478.454 37.8864C477.958 38.0795 477.391 38.1761 476.755 38.1761ZM490.272 29.2727V30.6364H485.34V29.2727H490.272ZM486.692 38V28.2614C486.692 27.7159 486.812 27.2633 487.05 26.9034C487.289 26.5398 487.605 26.2689 487.999 26.0909C488.393 25.9091 488.821 25.8182 489.283 25.8182C489.624 25.8182 489.916 25.8466 490.158 25.9034C490.401 25.9564 490.581 26.0057 490.698 26.0511L490.3 27.4261C490.221 27.4034 490.119 27.3769 489.994 27.3466C489.869 27.3125 489.717 27.2955 489.539 27.2955C489.126 27.2955 488.831 27.3977 488.653 27.6023C488.478 27.8068 488.391 28.1023 488.391 28.4886V38H486.692ZM495.107 38.1761C494.289 38.1761 493.575 37.9886 492.965 37.6136C492.355 37.2386 491.882 36.714 491.545 36.0398C491.208 35.3655 491.039 34.5777 491.039 33.6761C491.039 32.7708 491.208 31.9792 491.545 31.3011C491.882 30.6231 492.355 30.0966 492.965 29.7216C493.575 29.3466 494.289 29.1591 495.107 29.1591C495.925 29.1591 496.639 29.3466 497.249 29.7216C497.859 30.0966 498.333 30.6231 498.67 31.3011C499.007 31.9792 499.175 32.7708 499.175 33.6761C499.175 34.5777 499.007 35.3655 498.67 36.0398C498.333 36.714 497.859 37.2386 497.249 37.6136C496.639 37.9886 495.925 38.1761 495.107 38.1761ZM495.113 36.75C495.643 36.75 496.083 36.6098 496.431 36.3295C496.78 36.0492 497.037 35.6761 497.204 35.2102C497.374 34.7443 497.46 34.2311 497.46 33.6705C497.46 33.1136 497.374 32.6023 497.204 32.1364C497.037 31.6667 496.78 31.2898 496.431 31.0057C496.083 30.7216 495.643 30.5795 495.113 30.5795C494.579 30.5795 494.136 30.7216 493.783 31.0057C493.435 31.2898 493.175 31.6667 493.005 32.1364C492.838 32.6023 492.755 33.1136 492.755 33.6705C492.755 34.2311 492.838 34.7443 493.005 35.2102C493.175 35.6761 493.435 36.0492 493.783 36.3295C494.136 36.6098 494.579 36.75 495.113 36.75ZM500.822 38V29.2727H502.464V30.6591H502.555C502.714 30.1894 502.994 29.8201 503.396 29.5511C503.801 29.2784 504.259 29.142 504.771 29.142C504.877 29.142 505.002 29.1458 505.146 29.1534C505.293 29.161 505.409 29.1705 505.492 29.1818V30.8068C505.424 30.7879 505.303 30.767 505.129 30.7443C504.954 30.7178 504.78 30.7045 504.606 30.7045C504.204 30.7045 503.846 30.7898 503.532 30.9602C503.221 31.1269 502.975 31.3598 502.793 31.6591C502.612 31.9545 502.521 32.2917 502.521 32.6705V38H500.822ZM520.225 26.3636V38H518.612L512.697 29.4659H512.589V38H510.833V26.3636H512.458L518.379 34.9091H518.487V26.3636H520.225ZM526.161 38.1761C525.301 38.1761 524.561 37.9924 523.94 37.625C523.322 37.2538 522.845 36.733 522.508 36.0625C522.174 35.3883 522.008 34.5985 522.008 33.6932C522.008 32.7992 522.174 32.0114 522.508 31.3295C522.845 30.6477 523.315 30.1155 523.917 29.733C524.523 29.3504 525.231 29.1591 526.042 29.1591C526.534 29.1591 527.012 29.2405 527.474 29.4034C527.936 29.5663 528.351 29.822 528.718 30.1705C529.085 30.5189 529.375 30.9716 529.587 31.5284C529.799 32.0814 529.906 32.7538 529.906 33.5455V34.1477H522.968V32.875H528.241C528.241 32.428 528.15 32.0322 527.968 31.6875C527.786 31.339 527.531 31.0644 527.201 30.8636C526.875 30.6629 526.493 30.5625 526.053 30.5625C525.576 30.5625 525.159 30.6799 524.803 30.9148C524.451 31.1458 524.178 31.4489 523.985 31.8239C523.796 32.1951 523.701 32.5985 523.701 33.0341V34.0284C523.701 34.6117 523.803 35.108 524.008 35.517C524.216 35.9261 524.506 36.2386 524.877 36.4545C525.248 36.6667 525.682 36.7727 526.178 36.7727C526.5 36.7727 526.794 36.7273 527.059 36.6364C527.324 36.5417 527.553 36.4015 527.746 36.2159C527.94 36.0303 528.087 35.8011 528.19 35.5284L529.798 35.8182C529.669 36.2917 529.438 36.7064 529.104 37.0625C528.775 37.4148 528.36 37.6894 527.86 37.8864C527.364 38.0795 526.798 38.1761 526.161 38.1761ZM535.217 38.1761C534.398 38.1761 533.684 37.9886 533.075 37.6136C532.465 37.2386 531.991 36.714 531.654 36.0398C531.317 35.3655 531.148 34.5777 531.148 33.6761C531.148 32.7708 531.317 31.9792 531.654 31.3011C531.991 30.6231 532.465 30.0966 533.075 29.7216C533.684 29.3466 534.398 29.1591 535.217 29.1591C536.035 29.1591 536.749 29.3466 537.359 29.7216C537.969 30.0966 538.442 30.6231 538.779 31.3011C539.116 31.9792 539.285 32.7708 539.285 33.6761C539.285 34.5777 539.116 35.3655 538.779 36.0398C538.442 36.714 537.969 37.2386 537.359 37.6136C536.749 37.9886 536.035 38.1761 535.217 38.1761ZM535.222 36.75C535.753 36.75 536.192 36.6098 536.54 36.3295C536.889 36.0492 537.147 35.6761 537.313 35.2102C537.484 34.7443 537.569 34.2311 537.569 33.6705C537.569 33.1136 537.484 32.6023 537.313 32.1364C537.147 31.6667 536.889 31.2898 536.54 31.0057C536.192 30.7216 535.753 30.5795 535.222 30.5795C534.688 30.5795 534.245 30.7216 533.893 31.0057C533.544 31.2898 533.285 31.6667 533.114 32.1364C532.948 32.6023 532.864 33.1136 532.864 33.6705C532.864 34.2311 532.948 34.7443 533.114 35.2102C533.285 35.6761 533.544 36.0492 533.893 36.3295C534.245 36.6098 534.688 36.75 535.222 36.75ZM541.067 38V26.3636H542.766V30.6875H542.869C542.967 30.5057 543.109 30.2955 543.295 30.0568C543.48 29.8182 543.738 29.6098 544.067 29.4318C544.397 29.25 544.833 29.1591 545.374 29.1591C546.079 29.1591 546.708 29.3371 547.261 29.6932C547.814 30.0492 548.247 30.5625 548.562 31.233C548.88 31.9034 549.039 32.7102 549.039 33.6534C549.039 34.5966 548.882 35.4053 548.567 36.0795C548.253 36.75 547.821 37.267 547.272 37.6307C546.723 37.9905 546.096 38.1705 545.391 38.1705C544.861 38.1705 544.427 38.0814 544.09 37.9034C543.757 37.7254 543.496 37.517 543.306 37.2784C543.117 37.0398 542.971 36.8277 542.869 36.642H542.727V38H541.067ZM542.732 33.6364C542.732 34.25 542.821 34.7879 542.999 35.25C543.177 35.7121 543.435 36.0739 543.772 36.3352C544.109 36.5928 544.522 36.7216 545.011 36.7216C545.518 36.7216 545.942 36.5871 546.283 36.3182C546.624 36.0455 546.882 35.6761 547.056 35.2102C547.234 34.7443 547.323 34.2197 547.323 33.6364C547.323 33.0606 547.236 32.5436 547.062 32.0852C546.891 31.6269 546.634 31.2652 546.289 31C545.948 30.7348 545.522 30.6023 545.011 30.6023C544.518 30.6023 544.102 30.7292 543.761 30.983C543.424 31.2367 543.168 31.5909 542.994 32.0455C542.819 32.5 542.732 33.0303 542.732 33.6364ZM553.237 38.1932C552.683 38.1932 552.183 38.0909 551.737 37.8864C551.29 37.678 550.935 37.3769 550.674 36.983C550.416 36.589 550.288 36.1061 550.288 35.5341C550.288 35.0417 550.382 34.6364 550.572 34.3182C550.761 34 551.017 33.7481 551.339 33.5625C551.661 33.3769 552.021 33.2367 552.418 33.142C552.816 33.0473 553.221 32.9754 553.634 32.9261C554.157 32.8655 554.581 32.8163 554.907 32.7784C555.233 32.7367 555.469 32.6705 555.617 32.5795C555.765 32.4886 555.839 32.3409 555.839 32.1364V32.0966C555.839 31.6004 555.699 31.2159 555.418 30.9432C555.142 30.6705 554.729 30.5341 554.18 30.5341C553.608 30.5341 553.157 30.661 552.827 30.9148C552.502 31.1648 552.276 31.4432 552.151 31.75L550.555 31.3864C550.744 30.8561 551.021 30.428 551.384 30.1023C551.752 29.7727 552.174 29.5341 552.651 29.3864C553.129 29.2348 553.63 29.1591 554.157 29.1591C554.505 29.1591 554.875 29.2008 555.265 29.2841C555.659 29.3636 556.026 29.5114 556.367 29.7273C556.712 29.9432 556.994 30.2519 557.214 30.6534C557.433 31.0511 557.543 31.5682 557.543 32.2045V38H555.884V36.8068H555.816C555.706 37.0265 555.541 37.2424 555.322 37.4545C555.102 37.6667 554.82 37.8428 554.475 37.983C554.13 38.1231 553.718 38.1932 553.237 38.1932ZM553.606 36.8295C554.076 36.8295 554.477 36.7367 554.81 36.5511C555.147 36.3655 555.403 36.1231 555.577 35.8239C555.755 35.5208 555.844 35.197 555.844 34.8523V33.7273C555.784 33.7879 555.666 33.8447 555.492 33.8977C555.322 33.947 555.127 33.9905 554.907 34.0284C554.687 34.0625 554.473 34.0947 554.265 34.125C554.057 34.1515 553.882 34.1742 553.742 34.1932C553.413 34.2348 553.112 34.3049 552.839 34.4034C552.57 34.5019 552.354 34.6439 552.191 34.8295C552.032 35.0114 551.952 35.2538 551.952 35.5568C551.952 35.9773 552.108 36.2955 552.418 36.5114C552.729 36.7235 553.125 36.8295 553.606 36.8295ZM561.255 32.8182V38H559.556V29.2727H561.187V30.6932H561.295C561.496 30.2311 561.81 29.8598 562.238 29.5795C562.67 29.2992 563.213 29.1591 563.869 29.1591C564.463 29.1591 564.984 29.2841 565.431 29.5341C565.878 29.7803 566.225 30.1477 566.471 30.6364C566.717 31.125 566.84 31.7292 566.84 32.4489V38H565.141V32.6534C565.141 32.0208 564.977 31.5265 564.647 31.1705C564.317 30.8106 563.865 30.6307 563.289 30.6307C562.895 30.6307 562.545 30.7159 562.238 30.8864C561.935 31.0568 561.694 31.3068 561.516 31.6364C561.342 31.9621 561.255 32.3561 561.255 32.8182ZM570.431 35.0398L570.42 32.9659H570.715L574.192 29.2727H576.227L572.261 33.4773H571.994L570.431 35.0398ZM568.869 38V26.3636H570.567V38H568.869ZM574.38 38L571.255 33.8523L572.425 32.6648L576.465 38H574.38ZM580.927 38.1761C580.067 38.1761 579.326 37.9924 578.705 37.625C578.088 37.2538 577.611 36.733 577.273 36.0625C576.94 35.3883 576.773 34.5985 576.773 33.6932C576.773 32.7992 576.94 32.0114 577.273 31.3295C577.611 30.6477 578.08 30.1155 578.683 29.733C579.289 29.3504 579.997 29.1591 580.808 29.1591C581.3 29.1591 581.777 29.2405 582.239 29.4034C582.701 29.5663 583.116 29.822 583.484 30.1705C583.851 30.5189 584.141 30.9716 584.353 31.5284C584.565 32.0814 584.671 32.7538 584.671 33.5455V34.1477H577.734V32.875H583.006C583.006 32.428 582.915 32.0322 582.734 31.6875C582.552 31.339 582.296 31.0644 581.967 30.8636C581.641 30.6629 581.258 30.5625 580.819 30.5625C580.342 30.5625 579.925 30.6799 579.569 30.9148C579.217 31.1458 578.944 31.4489 578.751 31.8239C578.561 32.1951 578.467 32.5985 578.467 33.0341V34.0284C578.467 34.6117 578.569 35.108 578.773 35.517C578.982 35.9261 579.272 36.2386 579.643 36.4545C580.014 36.6667 580.448 36.7727 580.944 36.7727C581.266 36.7727 581.559 36.7273 581.825 36.6364C582.09 36.5417 582.319 36.4015 582.512 36.2159C582.705 36.0303 582.853 35.8011 582.955 35.5284L584.563 35.8182C584.434 36.2917 584.203 36.7064 583.87 37.0625C583.54 37.4148 583.126 37.6894 582.626 37.8864C582.129 38.0795 581.563 38.1761 580.927 38.1761ZM586.306 38V29.2727H587.948V30.6591H588.039C588.198 30.1894 588.478 29.8201 588.88 29.5511C589.285 29.2784 589.744 29.142 590.255 29.142C590.361 29.142 590.486 29.1458 590.63 29.1534C590.778 29.161 590.893 29.1705 590.977 29.1818V30.8068C590.908 30.7879 590.787 30.767 590.613 30.7443C590.439 30.7178 590.264 30.7045 590.09 30.7045C589.689 30.7045 589.331 30.7898 589.016 30.9602C588.706 31.1269 588.46 31.3598 588.278 31.6591C588.096 31.9545 588.005 32.2917 588.005 32.6705V38H586.306ZM598.737 31.4034L597.197 31.6761C597.132 31.4792 597.03 31.2917 596.89 31.1136C596.754 30.9356 596.568 30.7898 596.333 30.6761C596.098 30.5625 595.805 30.5057 595.452 30.5057C594.971 30.5057 594.57 30.6136 594.248 30.8295C593.926 31.0417 593.765 31.3163 593.765 31.6534C593.765 31.9451 593.873 32.1799 594.089 32.358C594.305 32.536 594.653 32.6818 595.134 32.7955L596.521 33.1136C597.324 33.2992 597.922 33.5852 598.316 33.9716C598.71 34.358 598.907 34.8598 598.907 35.4773C598.907 36 598.755 36.4659 598.452 36.875C598.153 37.2803 597.735 37.5985 597.197 37.8295C596.663 38.0606 596.043 38.1761 595.339 38.1761C594.362 38.1761 593.564 37.9678 592.947 37.5511C592.329 37.1307 591.951 36.5341 591.81 35.7614L593.452 35.5114C593.555 35.9394 593.765 36.2633 594.083 36.483C594.401 36.6989 594.816 36.8068 595.327 36.8068C595.884 36.8068 596.329 36.6913 596.663 36.4602C596.996 36.2254 597.163 35.9394 597.163 35.6023C597.163 35.3295 597.06 35.1004 596.856 34.9148C596.655 34.7292 596.346 34.589 595.93 34.4943L594.452 34.1705C593.638 33.9848 593.036 33.6894 592.646 33.2841C592.259 32.8788 592.066 32.3655 592.066 31.7443C592.066 31.2292 592.21 30.7784 592.498 30.392C592.786 30.0057 593.183 29.7045 593.691 29.4886C594.199 29.2689 594.78 29.1591 595.435 29.1591C596.379 29.1591 597.121 29.3636 597.663 29.7727C598.204 30.178 598.562 30.7216 598.737 31.4034ZM602.735 36.4091L602.65 37.0284C602.593 37.483 602.496 37.9564 602.36 38.4489C602.228 38.9451 602.089 39.4053 601.945 39.8295C601.805 40.2538 601.69 40.5909 601.599 40.8409H600.394C600.443 40.6061 600.512 40.2879 600.599 39.8864C600.686 39.4886 600.771 39.0436 600.854 38.5511C600.938 38.0587 601 37.5568 601.042 37.0455L601.099 36.4091H602.735ZM608.817 26.3636H610.948L614.653 35.4091H614.789L618.494 26.3636H620.624V38H618.954V29.5795H618.846L615.414 37.983H614.028L610.596 29.5739H610.488V38H608.817V26.3636ZM625.33 38.1932C624.777 38.1932 624.277 38.0909 623.83 37.8864C623.383 37.678 623.029 37.3769 622.768 36.983C622.51 36.589 622.381 36.1061 622.381 35.5341C622.381 35.0417 622.476 34.6364 622.665 34.3182C622.855 34 623.111 33.7481 623.433 33.5625C623.754 33.3769 624.114 33.2367 624.512 33.142C624.91 33.0473 625.315 32.9754 625.728 32.9261C626.251 32.8655 626.675 32.8163 627.001 32.7784C627.326 32.7367 627.563 32.6705 627.711 32.5795C627.859 32.4886 627.933 32.3409 627.933 32.1364V32.0966C627.933 31.6004 627.792 31.2159 627.512 30.9432C627.236 30.6705 626.823 30.5341 626.273 30.5341C625.701 30.5341 625.251 30.661 624.921 30.9148C624.595 31.1648 624.37 31.4432 624.245 31.75L622.648 31.3864C622.838 30.8561 623.114 30.428 623.478 30.1023C623.845 29.7727 624.268 29.5341 624.745 29.3864C625.222 29.2348 625.724 29.1591 626.251 29.1591C626.599 29.1591 626.969 29.2008 627.359 29.2841C627.753 29.3636 628.12 29.5114 628.461 29.7273C628.806 29.9432 629.088 30.2519 629.308 30.6534C629.527 31.0511 629.637 31.5682 629.637 32.2045V38H627.978V36.8068H627.91C627.8 37.0265 627.635 37.2424 627.415 37.4545C627.196 37.6667 626.914 37.8428 626.569 37.983C626.224 38.1231 625.811 38.1932 625.33 38.1932ZM625.7 36.8295C626.169 36.8295 626.571 36.7367 626.904 36.5511C627.241 36.3655 627.497 36.1231 627.671 35.8239C627.849 35.5208 627.938 35.197 627.938 34.8523V33.7273C627.878 33.7879 627.76 33.8447 627.586 33.8977C627.415 33.947 627.22 33.9905 627.001 34.0284C626.781 34.0625 626.567 34.0947 626.359 34.125C626.15 34.1515 625.976 34.1742 625.836 34.1932C625.506 34.2348 625.205 34.3049 624.933 34.4034C624.664 34.5019 624.448 34.6439 624.285 34.8295C624.126 35.0114 624.046 35.2538 624.046 35.5568C624.046 35.9773 624.201 36.2955 624.512 36.5114C624.823 36.7235 625.219 36.8295 625.7 36.8295ZM634.917 38.1705C634.212 38.1705 633.584 37.9905 633.031 37.6307C632.481 37.267 632.049 36.75 631.735 36.0795C631.424 35.4053 631.269 34.5966 631.269 33.6534C631.269 32.7102 631.426 31.9034 631.741 31.233C632.059 30.5625 632.495 30.0492 633.048 29.6932C633.601 29.3371 634.228 29.1591 634.928 29.1591C635.47 29.1591 635.906 29.25 636.235 29.4318C636.568 29.6098 636.826 29.8182 637.008 30.0568C637.193 30.2955 637.337 30.5057 637.44 30.6875H637.542V26.3636H639.241V38H637.582V36.642H637.44C637.337 36.8277 637.19 37.0398 636.996 37.2784C636.807 37.517 636.546 37.7254 636.212 37.9034C635.879 38.0814 635.447 38.1705 634.917 38.1705ZM635.292 36.7216C635.781 36.7216 636.193 36.5928 636.531 36.3352C636.871 36.0739 637.129 35.7121 637.303 35.25C637.481 34.7879 637.57 34.25 637.57 33.6364C637.57 33.0303 637.483 32.5 637.309 32.0455C637.135 31.5909 636.879 31.2367 636.542 30.983C636.205 30.7292 635.788 30.6023 635.292 30.6023C634.781 30.6023 634.354 30.7348 634.013 31C633.673 31.2652 633.415 31.6269 633.241 32.0852C633.07 32.5436 632.985 33.0606 632.985 33.6364C632.985 34.2197 633.072 34.7443 633.246 35.2102C633.421 35.6761 633.678 36.0455 634.019 36.3182C634.364 36.5871 634.788 36.7216 635.292 36.7216ZM645.177 38.1761C644.317 38.1761 643.576 37.9924 642.955 37.625C642.338 37.2538 641.861 36.733 641.523 36.0625C641.19 35.3883 641.023 34.5985 641.023 33.6932C641.023 32.7992 641.19 32.0114 641.523 31.3295C641.861 30.6477 642.33 30.1155 642.933 29.733C643.539 29.3504 644.247 29.1591 645.058 29.1591C645.55 29.1591 646.027 29.2405 646.489 29.4034C646.951 29.5663 647.366 29.822 647.734 30.1705C648.101 30.5189 648.391 30.9716 648.603 31.5284C648.815 32.0814 648.921 32.7538 648.921 33.5455V34.1477H641.984V32.875H647.256C647.256 32.428 647.165 32.0322 646.984 31.6875C646.802 31.339 646.546 31.0644 646.217 30.8636C645.891 30.6629 645.508 30.5625 645.069 30.5625C644.592 30.5625 644.175 30.6799 643.819 30.9148C643.467 31.1458 643.194 31.4489 643.001 31.8239C642.811 32.1951 642.717 32.5985 642.717 33.0341V34.0284C642.717 34.6117 642.819 35.108 643.023 35.517C643.232 35.9261 643.522 36.2386 643.893 36.4545C644.264 36.6667 644.698 36.7727 645.194 36.7727C645.516 36.7727 645.809 36.7273 646.075 36.6364C646.34 36.5417 646.569 36.4015 646.762 36.2159C646.955 36.0303 647.103 35.8011 647.205 35.5284L648.813 35.8182C648.684 36.2917 648.453 36.7064 648.12 37.0625C647.79 37.4148 647.376 37.6894 646.876 37.8864C646.379 38.0795 645.813 38.1761 645.177 38.1761ZM654.677 38V26.3636H656.376V30.6875H656.478C656.576 30.5057 656.719 30.2955 656.904 30.0568C657.09 29.8182 657.347 29.6098 657.677 29.4318C658.006 29.25 658.442 29.1591 658.984 29.1591C659.688 29.1591 660.317 29.3371 660.87 29.6932C661.423 30.0492 661.857 30.5625 662.171 31.233C662.489 31.9034 662.648 32.7102 662.648 33.6534C662.648 34.5966 662.491 35.4053 662.177 36.0795C661.862 36.75 661.431 37.267 660.881 37.6307C660.332 37.9905 659.705 38.1705 659.001 38.1705C658.47 38.1705 658.037 38.0814 657.7 37.9034C657.366 37.7254 657.105 37.517 656.915 37.2784C656.726 37.0398 656.58 36.8277 656.478 36.642H656.336V38H654.677ZM656.342 33.6364C656.342 34.25 656.431 34.7879 656.609 35.25C656.787 35.7121 657.044 36.0739 657.381 36.3352C657.719 36.5928 658.131 36.7216 658.62 36.7216C659.128 36.7216 659.552 36.5871 659.893 36.3182C660.234 36.0455 660.491 35.6761 660.665 35.2102C660.844 34.7443 660.933 34.2197 660.933 33.6364C660.933 33.0606 660.845 32.5436 660.671 32.0852C660.501 31.6269 660.243 31.2652 659.898 31C659.558 30.7348 659.131 30.6023 658.62 30.6023C658.128 30.6023 657.711 30.7292 657.37 30.983C657.033 31.2367 656.777 31.5909 656.603 32.0455C656.429 32.5 656.342 33.0303 656.342 33.6364ZM665.083 41.2727C664.829 41.2727 664.598 41.2519 664.39 41.2102C664.182 41.1723 664.026 41.1307 663.924 41.0852L664.333 39.6932C664.644 39.7765 664.92 39.8125 665.163 39.8011C665.405 39.7898 665.619 39.6989 665.805 39.5284C665.994 39.358 666.161 39.0795 666.305 38.6932L666.515 38.1136L663.322 29.2727H665.14L667.35 36.0455H667.441L669.651 29.2727H671.475L667.879 39.1648C667.712 39.6193 667.5 40.0038 667.242 40.3182C666.985 40.6364 666.678 40.875 666.322 41.0341C665.966 41.1932 665.553 41.2727 665.083 41.2727ZM686.335 26.3636V38H684.721L678.806 29.4659H678.698V38H676.942V26.3636H678.567L684.488 34.9091H684.596V26.3636H686.335ZM688.646 38V26.3636H690.344V30.6875H690.447C690.545 30.5057 690.687 30.2955 690.873 30.0568C691.058 29.8182 691.316 29.6098 691.646 29.4318C691.975 29.25 692.411 29.1591 692.952 29.1591C693.657 29.1591 694.286 29.3371 694.839 29.6932C695.392 30.0492 695.826 30.5625 696.14 31.233C696.458 31.9034 696.617 32.7102 696.617 33.6534C696.617 34.5966 696.46 35.4053 696.146 36.0795C695.831 36.75 695.399 37.267 694.85 37.6307C694.301 37.9905 693.674 38.1705 692.969 38.1705C692.439 38.1705 692.005 38.0814 691.668 37.9034C691.335 37.7254 691.074 37.517 690.884 37.2784C690.695 37.0398 690.549 36.8277 690.447 36.642H690.305V38H688.646ZM690.31 33.6364C690.31 34.25 690.399 34.7879 690.577 35.25C690.755 35.7121 691.013 36.0739 691.35 36.3352C691.687 36.5928 692.1 36.7216 692.589 36.7216C693.096 36.7216 693.521 36.5871 693.862 36.3182C694.202 36.0455 694.46 35.6761 694.634 35.2102C694.812 34.7443 694.901 34.2197 694.901 33.6364C694.901 33.0606 694.814 32.5436 694.64 32.0852C694.469 31.6269 694.212 31.2652 693.867 31C693.526 30.7348 693.1 30.6023 692.589 30.6023C692.096 30.6023 691.68 30.7292 691.339 30.983C691.002 31.2367 690.746 31.5909 690.572 32.0455C690.397 32.5 690.31 33.0303 690.31 33.6364ZM700.815 38.1932C700.262 38.1932 699.762 38.0909 699.315 37.8864C698.868 37.678 698.513 37.3769 698.252 36.983C697.995 36.589 697.866 36.1061 697.866 35.5341C697.866 35.0417 697.96 34.6364 698.15 34.3182C698.339 34 698.595 33.7481 698.917 33.5625C699.239 33.3769 699.599 33.2367 699.996 33.142C700.394 33.0473 700.799 32.9754 701.212 32.9261C701.735 32.8655 702.159 32.8163 702.485 32.7784C702.811 32.7367 703.048 32.6705 703.195 32.5795C703.343 32.4886 703.417 32.3409 703.417 32.1364V32.0966C703.417 31.6004 703.277 31.2159 702.996 30.9432C702.72 30.6705 702.307 30.5341 701.758 30.5341C701.186 30.5341 700.735 30.661 700.406 30.9148C700.08 31.1648 699.854 31.4432 699.729 31.75L698.133 31.3864C698.322 30.8561 698.599 30.428 698.962 30.1023C699.33 29.7727 699.752 29.5341 700.229 29.3864C700.707 29.2348 701.209 29.1591 701.735 29.1591C702.084 29.1591 702.453 29.2008 702.843 29.2841C703.237 29.3636 703.604 29.5114 703.945 29.7273C704.29 29.9432 704.572 30.2519 704.792 30.6534C705.012 31.0511 705.121 31.5682 705.121 32.2045V38H703.462V36.8068H703.394C703.284 37.0265 703.12 37.2424 702.9 37.4545C702.68 37.6667 702.398 37.8428 702.053 37.983C701.709 38.1231 701.296 38.1932 700.815 38.1932ZM701.184 36.8295C701.654 36.8295 702.055 36.7367 702.388 36.5511C702.726 36.3655 702.981 36.1231 703.156 35.8239C703.334 35.5208 703.423 35.197 703.423 34.8523V33.7273C703.362 33.7879 703.245 33.8447 703.07 33.8977C702.9 33.947 702.705 33.9905 702.485 34.0284C702.265 34.0625 702.051 34.0947 701.843 34.125C701.635 34.1515 701.46 34.1742 701.32 34.1932C700.991 34.2348 700.69 34.3049 700.417 34.4034C700.148 34.5019 699.932 34.6439 699.769 34.8295C699.61 35.0114 699.531 35.2538 699.531 35.5568C699.531 35.9773 699.686 36.2955 699.996 36.5114C700.307 36.7235 700.703 36.8295 701.184 36.8295ZM708.833 32.8182V38H707.134V29.2727H708.765V30.6932H708.873C709.074 30.2311 709.388 29.8598 709.816 29.5795C710.248 29.2992 710.791 29.1591 711.447 29.1591C712.041 29.1591 712.562 29.2841 713.009 29.5341C713.456 29.7803 713.803 30.1477 714.049 30.6364C714.295 31.125 714.418 31.7292 714.418 32.4489V38H712.719V32.6534C712.719 32.0208 712.555 31.5265 712.225 31.1705C711.896 30.8106 711.443 30.6307 710.867 30.6307C710.473 30.6307 710.123 30.7159 709.816 30.8864C709.513 31.0568 709.272 31.3068 709.094 31.6364C708.92 31.9621 708.833 32.3561 708.833 32.8182ZM718.009 35.0398L717.998 32.9659H718.293L721.771 29.2727H723.805L719.839 33.4773H719.572L718.009 35.0398ZM716.447 38V26.3636H718.146V38H716.447ZM721.958 38L718.833 33.8523L720.004 32.6648L724.043 38H721.958ZM728.505 38.1761C727.645 38.1761 726.905 37.9924 726.283 37.625C725.666 37.2538 725.189 36.733 724.852 36.0625C724.518 35.3883 724.352 34.5985 724.352 33.6932C724.352 32.7992 724.518 32.0114 724.852 31.3295C725.189 30.6477 725.658 30.1155 726.261 29.733C726.867 29.3504 727.575 29.1591 728.386 29.1591C728.878 29.1591 729.355 29.2405 729.817 29.4034C730.28 29.5663 730.694 29.822 731.062 30.1705C731.429 30.5189 731.719 30.9716 731.931 31.5284C732.143 32.0814 732.249 32.7538 732.249 33.5455V34.1477H725.312V32.875H730.585C730.585 32.428 730.494 32.0322 730.312 31.6875C730.13 31.339 729.874 31.0644 729.545 30.8636C729.219 30.6629 728.836 30.5625 728.397 30.5625C727.92 30.5625 727.503 30.6799 727.147 30.9148C726.795 31.1458 726.522 31.4489 726.329 31.8239C726.139 32.1951 726.045 32.5985 726.045 33.0341V34.0284C726.045 34.6117 726.147 35.108 726.352 35.517C726.56 35.9261 726.85 36.2386 727.221 36.4545C727.592 36.6667 728.026 36.7727 728.522 36.7727C728.844 36.7727 729.138 36.7273 729.403 36.6364C729.668 36.5417 729.897 36.4015 730.09 36.2159C730.283 36.0303 730.431 35.8011 730.533 35.5284L732.141 35.8182C732.013 36.2917 731.781 36.7064 731.448 37.0625C731.119 37.4148 730.704 37.6894 730.204 37.8864C729.708 38.0795 729.141 38.1761 728.505 38.1761ZM733.884 38V29.2727H735.526V30.6591H735.617C735.776 30.1894 736.057 29.8201 736.458 29.5511C736.863 29.2784 737.322 29.142 737.833 29.142C737.939 29.142 738.064 29.1458 738.208 29.1534C738.356 29.161 738.471 29.1705 738.555 29.1818V30.8068C738.487 30.7879 738.365 30.767 738.191 30.7443C738.017 30.7178 737.843 30.7045 737.668 30.7045C737.267 30.7045 736.909 30.7898 736.594 30.9602C736.284 31.1269 736.038 31.3598 735.856 31.6591C735.674 31.9545 735.583 32.2917 735.583 32.6705V38H733.884Z" fill="url(#paint2_linear_1163_12259)"/>
<g filter="url(#filter1_f_1163_12259)">
<mask id="mask0_1163_12259" style="mask-type:alpha" maskUnits="userSpaceOnUse" x="48" y="142" width="1088" height="267">
<rect x="48" y="142" width="1088" height="266.381" fill="url(#paint3_linear_1163_12259)"/>
</mask>
<g mask="url(#mask0_1163_12259)">
<path d="M48 364.087C157.933 364.087 192.311 366.095 251.244 354.244C294.689 343.785 304.511 338.249 348.333 304.413C379.689 283.188 391.778 281.958 418.222 277.959C433.079 275.713 441.644 266.108 454.489 266.415C466.076 266.415 472.728 272.668 488.929 277.562C495.074 279.418 501.694 279.99 507.68 277.674C520.542 272.697 532.884 261.553 544.4 261.801C556.626 261.801 571.593 275.466 586.032 280.089C590.869 281.638 596.106 281.283 600.881 279.555C616.228 274.003 625.495 262.026 638.844 261.801C648.154 261.644 654.984 268.666 667.799 274.484C678.499 279.342 690.756 280.308 701.464 275.467C710.913 271.195 720.794 265.507 730.644 266.108C744.264 266.938 753.504 269.918 761.168 272.884C768.52 275.729 776.1 277.903 783.838 279.411C800.966 282.75 809.65 285.02 829.244 293.954C862.111 308.94 865.889 321.946 909.333 343.17C959.2 368.393 1051.76 363.779 1136 363.779" stroke="#FFB7C5" stroke-width="4"/>
<path d="M48 317.639C159.067 317.639 257.289 317.639 282.222 309.027C310.933 302.567 344.556 290.571 356.267 285.341C375.911 278.267 369.867 279.95 409.911 273.182C421.244 271.64 443.156 270.229 451.844 271.644C466.956 274.105 467.711 278.104 483.2 278.412C495.289 278.412 513.422 261.801 526.267 262.109C537.921 262.109 547.356 272.728 564.555 278.863C570.601 281.02 577.25 281.528 583.232 279.201C596.203 274.156 608.805 262.787 620.333 263.035C632.52 263.035 645.796 276.115 659.699 280.631C664.529 282.2 669.757 281.798 674.58 280.208C689.907 275.153 699.171 265.106 712.511 264.881C716.989 264.806 723.339 266.774 730.047 269.204C750.417 276.585 772.228 275.577 793.885 276.221C820.314 277.006 832.439 282.901 846.244 286.572C880.805 298.647 891.578 307.307 939.933 312.555C998.111 318.87 1014.36 317.332 1136 317.947" stroke="#FFDDB7" stroke-width="4"/>
<path d="M48 275.966C159.444 276.171 270.511 275.804 335.489 275.804C352.22 276.447 364.04 276.666 373.555 276.669C407.461 276.682 441.52 270.507 475.163 274.724C477.414 275.006 479.834 275.363 482.444 275.804C492.267 277.463 513.422 280.705 522.111 279.29C537.222 276.829 545.911 266.883 562.156 266.883C577.267 266.883 595.778 285.339 608.622 285.032C620.26 285.032 628.578 274.22 645.413 268.016C651.436 265.797 658.066 265.343 664.125 267.464C677.401 272.112 690.765 282.512 702.311 282.263C714.86 282.263 729.431 273.566 744.003 270.761C748.144 269.964 752.41 270.25 756.578 270.893C778.658 274.301 781.506 276.181 795.622 276.419C808.316 276.633 831.133 275.496 845.489 275.496C890.067 275.496 871.933 275.496 897.244 275.496C937.667 275.496 938.792 276.214 985.644 276.214C1043.44 276.214 1010.96 275.086 1136 275.496" stroke="#FFB1CE" stroke-width="4"/>
<path d="M48 225.974C161.711 225.974 245.2 225.863 292.422 237.048C313.2 241.97 340.791 253.967 367.977 260.426C386.013 264.71 404.622 266.107 415.955 268.568C428.638 271.322 429.177 274.15 443.155 275.335C461.289 276.873 474.748 264.569 489.622 264.569C504.733 264.569 520.977 281.692 533.822 281.385C545.482 281.385 555.476 271.285 572.851 265.302C578.92 263.213 585.582 262.659 591.508 265.125C604.166 270.393 616.005 282.248 627.511 282C639.697 282 652.973 268.92 666.876 264.404C671.706 262.835 676.919 263.269 681.782 264.731C697.435 269.437 707.846 278.186 721.199 278.411C733.893 278.625 745.377 266.415 775.599 267.953C829.622 267.953 839.444 259.306 857.199 252.428C896.11 237.356 911.014 234.815 943.333 230.896C996.599 224.436 1025.69 226.282 1135.62 226.282" stroke="#4F78FF" stroke-width="4"/>
<path d="M48.376 180.142C157.771 179.126 195.331 178.604 248.598 188.755C291.287 196.89 349.602 237.663 358.531 243.815C368.443 250.644 393.007 258.618 422.559 265.38C424.698 265.87 426.797 266.515 428.856 267.273C439.196 271.077 456.974 276.676 464.687 276.873C479.798 276.873 493.776 263.031 510.02 263.031C525.131 263.031 540.998 281.795 553.842 281.487C565.496 281.487 574.931 270.871 592.131 264.737C598.176 262.58 604.837 262.063 610.784 264.479C623.763 269.752 636.373 281.736 647.909 281.487C660.109 281.487 674.219 269.491 688.383 265.322C693.255 263.888 698.442 264.32 703.343 265.65C718.378 269.73 726.778 276.034 740.087 276.258C752.78 276.472 754.064 270.106 778.998 264.877C812.242 258.272 809.22 259.81 825.842 251.505C856.064 235.203 857.953 227.169 900.642 204.443C939.931 183.526 1011.33 177.911 1135.24 180.142" stroke="#2C07FF" stroke-width="4"/>
</g>
</g>
<defs>
<filter id="filter0_dd_1163_12259" x="507.692" y="137.578" width="163.616" height="163.616" filterUnits="userSpaceOnUse" color-interpolation-filters="sRGB">
<feFlood flood-opacity="0" result="BackgroundImageFix"/>
<feColorMatrix in="SourceAlpha" type="matrix" values="0 0 0 0 0 0 0 0 0 0 0 0 0 0 0 0 0 0 127 0" result="hardAlpha"/>
<feMorphology radius="6.63308" operator="erode" in="SourceAlpha" result="effect1_dropShadow_1163_12259"/>
<feOffset dy="22.1103"/>
<feGaussianBlur stdDeviation="16.5827"/>
<feComposite in2="hardAlpha" operator="out"/>
<feColorMatrix type="matrix" values="0 0 0 0 0 0 0 0 0 0 0 0 0 0 0 0 0 0 0.1 0"/>
<feBlend mode="normal" in2="BackgroundImageFix" result="effect1_dropShadow_1163_12259"/>
<feColorMatrix in="SourceAlpha" type="matrix" values="0 0 0 0 0 0 0 0 0 0 0 0 0 0 0 0 0 0 127 0" result="hardAlpha"/>
<feMorphology radius="8.8441" operator="erode" in="SourceAlpha" result="effect2_dropShadow_1163_12259"/>
<feOffset dy="8.8441"/>
<feGaussianBlur stdDeviation="6.63308"/>
<feComposite in2="hardAlpha" operator="out"/>
<feColorMatrix type="matrix" values="0 0 0 0 0 0 0 0 0 0 0 0 0 0 0 0 0 0 0.1 0"/>
<feBlend mode="normal" in2="effect1_dropShadow_1163_12259" result="effect2_dropShadow_1163_12259"/>
<feBlend mode="normal" in="SourceGraphic" in2="effect2_dropShadow_1163_12259" result="shape"/>
</filter>
<filter id="filter1_f_1163_12259" x="46" y="175.627" width="1092" height="192.589" filterUnits="userSpaceOnUse" color-interpolation-filters="sRGB">
<feFlood flood-opacity="0" result="BackgroundImageFix"/>
<feBlend mode="normal" in="SourceGraphic" in2="BackgroundImageFix" result="shape"/>
<feGaussianBlur stdDeviation="1" result="effect1_foregroundBlur_1163_12259"/>
</filter>
<linearGradient id="paint0_linear_1163_12259" x1="529.908" y1="154.544" x2="635.928" y2="172.923" gradientUnits="userSpaceOnUse">
<stop stop-color="#ED1522"/>
<stop offset="1" stop-color="#E66E48"/>
</linearGradient>
<linearGradient id="paint1_linear_1163_12259" x1="1344.96" y1="85.3004" x2="1338.78" y2="-6.77738" gradientUnits="userSpaceOnUse">
<stop stop-color="#FDA4AF"/>
<stop offset="0.477764" stop-color="#E11D48"/>
<stop offset="1" stop-color="#BE123C"/>
</linearGradient>
<linearGradient id="paint2_linear_1163_12259" x1="439" y1="43.0866" x2="716.166" y2="43.0866" gradientUnits="userSpaceOnUse">
<stop stop-color="#991B1B"/>
<stop offset="1" stop-color="#E11D48"/>
</linearGradient>
<linearGradient id="paint3_linear_1163_12259" x1="1136" y1="275.498" x2="48" y2="275.498" gradientUnits="userSpaceOnUse">
<stop stop-color="#D9D9D9"/>
<stop offset="0.333333" stop-color="#D9D9D9" stop-opacity="0.15"/>
<stop offset="0.640625" stop-color="#D9D9D9" stop-opacity="0.15"/>
<stop offset="1" stop-color="#D9D9D9"/>
</linearGradient>
</defs>
</svg>
