<svg width="94" height="94" viewBox="0 0 94 94" fill="none" xmlns="http://www.w3.org/2000/svg">
<circle cx="47" cy="47" r="47" fill="url(#paint0_linear_1684_3960)"/>
<path d="M51.6574 19.1756C52.2982 19.5241 52.8023 20.106 53.1134 20.8836L53.2742 21.1758V64.1523H55.3255L55.3228 35.3092L67.724 43.4229C68.1892 43.6268 68.5752 43.977 68.8233 44.4204C69.129 44.9405 69.2684 45.5465 69.2684 46.056V64.155H70.9791C71.1782 64.1465 71.3769 64.1776 71.5638 64.2467C71.7507 64.3157 71.922 64.4213 72.0677 64.5572C72.2044 64.7025 72.3106 64.8737 72.3801 65.0606C72.4496 65.2476 72.4811 65.4465 72.4726 65.6458C72.4797 65.8446 72.447 66.0428 72.3766 66.2288C72.3061 66.4148 72.1993 66.5849 72.0624 66.7291C71.9184 66.8665 71.7484 66.9738 71.5624 67.0447C71.3763 67.1156 71.1781 67.1487 70.9791 67.142H23.0207C22.8217 67.1487 22.6235 67.1156 22.4374 67.0447C22.2514 66.9738 22.0814 66.8665 21.9374 66.7291C21.8005 66.5849 21.6937 66.4148 21.6232 66.2288C21.5528 66.0428 21.5201 65.8446 21.5272 65.6458C21.5272 65.2517 21.6881 64.8629 21.9723 64.5813C22.1098 64.4438 22.2733 64.335 22.4533 64.2613C22.6333 64.1877 22.8262 64.1506 23.0207 64.1523H24.7314V28.6809C24.7314 27.9972 24.9566 27.3429 25.3374 26.804C25.7262 26.2516 26.2758 25.8119 26.906 25.5786L49.4131 18.8645C50.255 18.7144 51.0219 18.8297 51.6574 19.1756ZM43.7957 53.7514H34.2099C34.0112 53.7444 33.813 53.777 33.627 53.8474C33.441 53.9179 33.2709 54.0247 33.1267 54.1617C32.9897 54.3059 32.8829 54.476 32.8124 54.662C32.742 54.848 32.7094 55.0462 32.7164 55.2449C32.7164 55.6927 32.8639 56.0654 33.1267 56.3282C33.3358 56.54 33.6173 56.6768 33.9498 56.7223L34.2099 56.7411H43.7957C43.9947 56.7478 44.1929 56.7147 44.379 56.6438C44.565 56.5729 44.7349 56.4656 44.879 56.3282C45.0159 56.1839 45.1227 56.0139 45.1932 55.8279C45.2636 55.6419 45.2963 55.4437 45.2892 55.2449C45.2977 55.0463 45.2665 54.8479 45.1974 54.6615C45.1284 54.475 45.0228 54.3042 44.887 54.159C44.7414 54.0218 44.5699 53.915 44.3825 53.845C44.1951 53.7751 43.9956 53.7432 43.7957 53.7514ZM63.9057 53.7514H60.7042C60.5093 53.7493 60.3159 53.7862 60.1354 53.8599C59.9549 53.9336 59.7909 54.0425 59.6531 54.1804C59.3707 54.463 59.2108 54.8454 59.208 55.2449C59.208 55.6927 59.3582 56.0654 59.621 56.3282C59.8301 56.54 60.1116 56.6768 60.4441 56.7223L60.7042 56.7411H63.9084C64.1074 56.7478 64.3057 56.7147 64.4917 56.6438C64.6777 56.5729 64.8477 56.4656 64.9917 56.3282C65.1286 56.1839 65.2354 56.0139 65.3059 55.8279C65.3763 55.6419 65.409 55.4437 65.4019 55.2449C65.409 55.0462 65.3763 54.848 65.3059 54.662C65.2354 54.476 65.1286 54.3059 64.9917 54.1617C64.8475 54.0247 64.6774 53.9179 64.4914 53.8474C64.3054 53.777 64.1072 53.7444 63.9084 53.7514H63.9057ZM43.7957 44.1656H34.2099C34.0112 44.1586 33.813 44.1912 33.627 44.2617C33.441 44.3321 33.2709 44.4389 33.1267 44.5759C32.9897 44.7201 32.8829 44.8902 32.8124 45.0762C32.742 45.2622 32.7094 45.4604 32.7164 45.6591C32.7164 46.1069 32.8639 46.4796 33.1267 46.7424C33.3358 46.9542 33.6173 47.091 33.9498 47.1365L34.2099 47.1553H43.7957C43.9947 47.162 44.1929 47.1289 44.379 47.058C44.565 46.9871 44.7349 46.8798 44.879 46.7424C45.0159 46.5982 45.1227 46.4281 45.1932 46.2421C45.2636 46.0561 45.2963 45.8579 45.2892 45.6591C45.2963 45.4604 45.2636 45.2622 45.1932 45.0762C45.1227 44.8902 45.0159 44.7201 44.879 44.5759C44.7347 44.4389 44.5646 44.3321 44.3786 44.2617C44.1926 44.1912 43.9945 44.1586 43.7957 44.1656ZM43.7957 34.5798H34.2099C34.0161 34.5787 33.824 34.6164 33.6449 34.6905C33.4657 34.7646 33.3032 34.8738 33.1669 35.0115C32.8838 35.2931 32.7221 35.6742 32.7164 36.0733C32.7164 36.5211 32.8639 36.8938 33.1267 37.1566C33.3358 37.3684 33.6173 37.5052 33.9498 37.5508L34.2099 37.5695H43.7957C43.9947 37.5762 44.1929 37.5432 44.379 37.4723C44.565 37.4013 44.7349 37.294 44.879 37.1566C45.0159 37.0124 45.1227 36.8423 45.1932 36.6563C45.2636 36.4703 45.2963 36.2721 45.2892 36.0733C45.2977 35.8747 45.2665 35.6763 45.1974 35.4899C45.1284 35.3034 45.0228 35.1326 44.887 34.9874C44.7414 34.8502 44.5699 34.7435 44.3825 34.6735C44.1951 34.6035 43.9956 34.5717 43.7957 34.5798Z" fill="white"/>
<defs>
<linearGradient id="paint0_linear_1684_3960" x1="-55.2227" y1="26.5068" x2="102.741" y2="8.24675" gradientUnits="userSpaceOnUse">
<stop stop-color="#ED1522"/>
<stop offset="1" stop-color="#E66E48"/>
</linearGradient>
</defs>
</svg>
