<svg width="16" height="17" viewBox="0 0 16 17" fill="none" xmlns="http://www.w3.org/2000/svg">
<g id="funnel/mini">
<path id="Vector" d="M13.5192 5.12149L13.5192 5.12145C13.7628 4.87785 13.8998 4.54751 13.9 4.203C13.9 4.20293 13.9 4.20286 13.9 4.20279V2.37261C13.9 2.34891 13.8916 2.32598 13.8762 2.30791C13.8609 2.28986 13.8397 2.27784 13.8164 2.27396L13.5192 5.12149ZM13.5192 5.12149L9.77364 8.86785C9.34256 9.29894 9.10026 9.88354 9.1 10.4932V10.4934M13.5192 5.12149L9.1 10.4934M9.1 10.4934V12.923C9.1 13.3186 8.92083 13.6916 8.61254 13.9381L8.6124 13.9382M9.1 10.4934L8.6124 13.9382M8.6124 13.9382L7.0628 15.1782L7.06253 15.1784M8.6124 13.9382L7.06253 15.1784M7.06253 15.1784C7.04782 15.1902 7.03008 15.1976 7.01134 15.1997C6.99262 15.2019 6.97367 15.1987 6.95667 15.1905C6.93968 15.1823 6.92534 15.1695 6.91532 15.1536C6.90529 15.1376 6.89998 15.1191 6.9 15.1003V15.0998M7.06253 15.1784L6.9 15.0998M6.9 15.0998V10.4942C6.9 10.1922 6.84051 9.89308 6.72493 9.61403C6.60934 9.33498 6.43993 9.08143 6.22635 8.86785L5.92058 9.17363M6.9 15.0998L5.92058 9.17363M5.92058 9.17363L6.22635 8.86785L2.48075 5.12225C2.48075 5.12225 2.48075 5.12225 2.48075 5.12225C2.36004 5.00153 2.26428 4.85822 2.19895 4.7005C2.13362 4.54278 2.1 4.37373 2.1 4.20301V4.203M5.92058 9.17363L2.1 4.203M2.1 4.203V2.37181C2.1 2.37181 2.1 2.37181 2.1 2.3718C2.1 2.34811 2.10842 2.32518 2.12375 2.30711C2.13795 2.29038 2.1586 2.27809 2.18373 2.27395C4.07706 1.96234 6.01946 1.7998 8 1.7998M2.1 4.203L8 1.7998M8 1.7998C9.98056 1.7998 11.9238 1.96235 13.8163 2.27395L8 1.7998Z" fill="#111827" stroke="#18181B"/>
</g>
</svg>
