<svg width="30" height="31" viewBox="0 0 30 31" fill="none" xmlns="http://www.w3.org/2000/svg">
<g id="social-media">
<path id="Vector" opacity="0.15" d="M19.2118 10.0464C19.0582 10.0335 18.9047 10.0335 18.75 10.0335C17.4014 10.0334 16.0724 10.3565 14.8744 10.9759C13.6764 11.5953 12.6444 12.4928 11.8647 13.5932C11.0851 14.6937 10.5806 15.9649 10.3935 17.3005C10.2064 18.6361 10.3422 19.9971 10.7895 21.2694C9.55962 21.2039 8.35929 20.8682 7.27387 20.2862L4.02075 21.2424C3.85921 21.2899 3.68789 21.2929 3.52476 21.2513C3.36163 21.2097 3.21272 21.1249 3.09368 21.0058C2.97463 20.8868 2.88984 20.7379 2.84821 20.5748C2.80658 20.4116 2.80964 20.2403 2.85708 20.0788L3.80864 16.8303C3.26587 15.8058 2.94007 14.6805 2.85157 13.5245C2.76307 12.3684 2.91376 11.2066 3.29424 10.1114C3.67473 9.01621 4.27684 8.01119 5.06301 7.15905C5.84917 6.30691 6.80252 5.62594 7.86357 5.15862C8.92462 4.69131 10.0706 4.44768 11.23 4.44294C12.3894 4.4382 13.5373 4.67246 14.6021 5.13109C15.6669 5.58971 16.6258 6.26287 17.4189 7.10856C18.212 7.95425 18.8223 8.95432 19.2118 10.0464Z" fill="#7F1D1D"/>
<path id="Vector_2" d="M16.8751 17.0646C16.8751 17.3428 16.7926 17.6146 16.6381 17.8459C16.4836 18.0772 16.2639 18.2574 16.007 18.3638C15.75 18.4703 15.4673 18.4981 15.1945 18.4439C14.9217 18.3896 14.6711 18.2557 14.4745 18.059C14.2778 17.8623 14.1439 17.6118 14.0896 17.339C14.0354 17.0662 14.0632 16.7834 14.1696 16.5265C14.2761 16.2695 14.4563 16.0499 14.6876 15.8954C14.9188 15.7409 15.1907 15.6584 15.4688 15.6584C15.8418 15.6584 16.1995 15.8065 16.4632 16.0703C16.7269 16.334 16.8751 16.6917 16.8751 17.0646ZM22.0313 15.6584C21.7532 15.6584 21.4813 15.7409 21.2501 15.8954C21.0188 16.0499 20.8386 16.2695 20.7321 16.5265C20.6257 16.7834 20.5979 17.0662 20.6521 17.339C20.7064 17.6118 20.8403 17.8623 21.037 18.059C21.2336 18.2557 21.4842 18.3896 21.757 18.4439C22.0298 18.4981 22.3125 18.4703 22.5695 18.3638C22.8264 18.2574 23.0461 18.0772 23.2006 17.8459C23.3551 17.6146 23.4376 17.3428 23.4376 17.0646C23.4376 16.6917 23.2894 16.334 23.0257 16.0703C22.762 15.8065 22.4043 15.6584 22.0313 15.6584ZM28.0477 25.44C28.143 25.7633 28.1494 26.1062 28.0662 26.4328C27.983 26.7594 27.8133 27.0575 27.575 27.2958C27.3367 27.5341 27.0386 27.7038 26.712 27.787C26.3855 27.8702 26.0425 27.8638 25.7192 27.7685L22.8235 26.9166C21.682 27.4672 20.4406 27.7805 19.1745 27.8378C17.9084 27.8951 16.6439 27.695 15.4573 27.2498C14.2707 26.8045 13.1867 26.1233 12.2708 25.2472C11.3549 24.3712 10.6262 23.3185 10.1286 22.1529C9.10349 22.0324 8.10574 21.7412 7.17665 21.2916L4.28095 22.1435C3.95769 22.2388 3.61473 22.2452 3.28815 22.162C2.96157 22.0788 2.66345 21.9091 2.42515 21.6708C2.18685 21.4325 2.01718 21.1344 1.934 20.8078C1.85081 20.4812 1.85718 20.1383 1.95243 19.815L2.80439 16.9193C2.27007 15.7951 1.96498 14.5757 1.90692 13.3323C1.84886 12.0889 2.03899 10.8464 2.46621 9.6773C2.89344 8.50817 3.54921 7.43582 4.39526 6.52281C5.24132 5.60981 6.26072 4.87443 7.39399 4.35957C8.52727 3.84472 9.75172 3.56069 10.9959 3.52408C12.2401 3.48746 13.4792 3.69898 14.6408 4.1463C15.8024 4.59362 16.8632 5.26777 17.7615 6.12944C18.6598 6.99111 19.3775 8.02304 19.8727 9.16502C21.3535 9.34346 22.7704 9.87264 24.0056 10.7086C25.2408 11.5445 26.2588 12.6631 26.9749 13.9715C27.691 15.2798 28.0846 16.7402 28.123 18.2312C28.1614 19.7222 27.8436 21.2008 27.1958 22.5443L28.0477 25.44ZM9.52744 20.1467C9.29556 18.8767 9.32869 17.5724 9.62474 16.3158C9.9208 15.0592 10.4734 13.8774 11.2478 12.8445C12.0223 11.8115 13.0019 10.9498 14.1251 10.3134C15.2483 9.67704 16.491 9.27967 17.7751 9.14627C17.2999 8.28347 16.6594 7.52272 15.8901 6.90746C15.1209 6.29219 14.238 5.83446 13.2919 5.5604C11.3811 5.00691 9.32873 5.23515 7.58622 6.1949C5.84372 7.15466 4.55385 8.76731 4.00036 10.6781C3.44687 12.5889 3.6751 14.6413 4.63486 16.3838C4.75028 16.5995 4.77678 16.8519 4.70868 17.0869L3.75009 20.3459L7.00322 19.3885C7.23824 19.3204 7.49058 19.3469 7.70634 19.4623C8.28078 19.7692 8.89305 19.9993 9.52744 20.1467ZM25.3653 22.0088C26.2134 20.4227 26.4633 18.5847 26.0694 16.8299C25.6756 15.075 24.6642 13.5201 23.2197 12.4486C21.7752 11.3771 19.9937 10.8603 18.2 10.9926C16.4064 11.1248 14.7199 11.8972 13.4482 13.169C12.1764 14.4407 11.404 16.1271 11.2718 17.9208C11.1395 19.7145 11.6563 21.496 12.7278 22.9405C13.7993 24.385 15.3542 25.3964 17.1091 25.7902C18.864 26.1841 20.7019 25.9342 22.288 25.0861C22.5037 24.9707 22.7561 24.9442 22.9911 25.0123L26.2501 25.9709L25.2927 22.7178C25.2226 22.4811 25.2487 22.2263 25.3653 22.0088Z" fill="#7F1D1D"/>
</g>
</svg>
