<svg width="30" height="31" viewBox="0 0 30 31" fill="none" xmlns="http://www.w3.org/2000/svg">
<g id="social-media">
<path id="Vector" opacity="0.15" d="M20.625 4.40845H9.375C7.88316 4.40845 6.45242 5.00108 5.39752 6.05597C4.34263 7.11086 3.75 8.5416 3.75 10.0334V21.2834C3.75 22.7753 4.34263 24.206 5.39752 25.2609C6.45242 26.3158 7.88316 26.9084 9.375 26.9084H20.625C22.1168 26.9084 23.5476 26.3158 24.6025 25.2609C25.6574 24.206 26.25 22.7753 26.25 21.2834V10.0334C26.25 8.5416 25.6574 7.11086 24.6025 6.05597C23.5476 5.00108 22.1168 4.40845 20.625 4.40845ZM15 20.3459C14.0729 20.3459 13.1666 20.071 12.3958 19.556C11.6249 19.0409 11.0241 18.3088 10.6693 17.4523C10.3145 16.5957 10.2217 15.6532 10.4026 14.744C10.5834 13.8347 11.0299 12.9994 11.6854 12.3439C12.341 11.6883 13.1762 11.2419 14.0855 11.061C14.9948 10.8801 15.9373 10.973 16.7938 11.3278C17.6504 11.6825 18.3824 12.2834 18.8975 13.0542C19.4126 13.8251 19.6875 14.7313 19.6875 15.6584C19.6875 16.9016 19.1936 18.0939 18.3146 18.973C17.4355 19.8521 16.2432 20.3459 15 20.3459Z" fill="#7F1D1D"/>
<path id="Vector_2" d="M20.625 3.47095H9.375C7.63509 3.47281 5.96697 4.16481 4.73667 5.39511C3.50636 6.62542 2.81436 8.29354 2.8125 10.0334V21.2834C2.81436 23.0234 3.50636 24.6915 4.73667 25.9218C5.96697 27.1521 7.63509 27.8441 9.375 27.8459H20.625C22.3649 27.8441 24.033 27.1521 25.2633 25.9218C26.4936 24.6915 27.1856 23.0234 27.1875 21.2834V10.0334C27.1856 8.29354 26.4936 6.62542 25.2633 5.39511C24.033 4.16481 22.3649 3.47281 20.625 3.47095ZM25.3125 21.2834C25.3125 22.5266 24.8186 23.7189 23.9396 24.598C23.0605 25.4771 21.8682 25.9709 20.625 25.9709H9.375C8.1318 25.9709 6.93951 25.4771 6.06044 24.598C5.18136 23.7189 4.6875 22.5266 4.6875 21.2834V10.0334C4.6875 8.79024 5.18136 7.59796 6.06044 6.71888C6.93951 5.83981 8.1318 5.34595 9.375 5.34595H20.625C21.8682 5.34595 23.0605 5.83981 23.9396 6.71888C24.8186 7.59796 25.3125 8.79024 25.3125 10.0334V21.2834ZM15 10.0334C13.8875 10.0334 12.7999 10.3633 11.8749 10.9814C10.9499 11.5995 10.2289 12.478 9.80318 13.5059C9.37744 14.5337 9.26604 15.6647 9.48308 16.7558C9.70013 17.847 10.2359 18.8493 11.0225 19.6359C11.8092 20.4226 12.8115 20.9583 13.9026 21.1754C14.9938 21.3924 16.1248 21.281 17.1526 20.8553C18.1804 20.4295 19.0589 19.7086 19.677 18.7835C20.2951 17.8585 20.625 16.771 20.625 15.6584C20.6234 14.1671 20.0303 12.7372 18.9758 11.6827C17.9212 10.6281 16.4914 10.035 15 10.0334ZM15 19.4084C14.2583 19.4084 13.5333 19.1885 12.9166 18.7765C12.2999 18.3644 11.8193 17.7787 11.5355 17.0935C11.2516 16.4083 11.1774 15.6543 11.3221 14.9269C11.4667 14.1994 11.8239 13.5312 12.3483 13.0068C12.8728 12.4823 13.541 12.1252 14.2684 11.9805C14.9958 11.8358 15.7498 11.9101 16.4351 12.1939C17.1203 12.4777 17.706 12.9584 18.118 13.5751C18.5301 14.1917 18.75 14.9168 18.75 15.6584C18.75 16.653 18.3549 17.6068 17.6516 18.3101C16.9484 19.0134 15.9946 19.4084 15 19.4084ZM22.5 9.5647C22.5 9.84283 22.4175 10.1147 22.263 10.346C22.1085 10.5772 21.8889 10.7575 21.6319 10.8639C21.3749 10.9703 21.0922 10.9982 20.8194 10.9439C20.5466 10.8897 20.296 10.7557 20.0994 10.5591C19.9027 10.3624 19.7688 10.1118 19.7145 9.83904C19.6603 9.56626 19.6881 9.28351 19.7945 9.02655C19.901 8.76959 20.0812 8.54996 20.3125 8.39544C20.5437 8.24092 20.8156 8.15845 21.0938 8.15845C21.4667 8.15845 21.8244 8.30661 22.0881 8.57033C22.3518 8.83405 22.5 9.19174 22.5 9.5647Z" fill="#7F1D1D"/>
</g>
</svg>
