<svg width="30" height="31" viewBox="0 0 30 31" fill="none" xmlns="http://www.w3.org/2000/svg">
<g id="social-media">
<path id="Vector" opacity="0.15" d="M26.25 5.34595V25.9709C26.25 26.2196 26.1512 26.458 25.9754 26.6339C25.7996 26.8097 25.5611 26.9084 25.3125 26.9084H4.6875C4.43886 26.9084 4.2004 26.8097 4.02459 26.6339C3.84877 26.458 3.75 26.2196 3.75 25.9709V5.34595C3.75 5.09731 3.84877 4.85885 4.02459 4.68303C4.2004 4.50722 4.43886 4.40845 4.6875 4.40845H25.3125C25.5611 4.40845 25.7996 4.50722 25.9754 4.68303C26.1512 4.85885 26.25 5.09731 26.25 5.34595Z" fill="#7F1D1D"/>
<path id="Vector_2" d="M25.3125 3.47095H4.6875C4.19022 3.47095 3.71331 3.66849 3.36167 4.02012C3.01004 4.37175 2.8125 4.84867 2.8125 5.34595V25.9709C2.8125 26.4682 3.01004 26.9451 3.36167 27.2968C3.71331 27.6484 4.19022 27.8459 4.6875 27.8459H25.3125C25.8098 27.8459 26.2867 27.6484 26.6383 27.2968C26.99 26.9451 27.1875 26.4682 27.1875 25.9709V5.34595C27.1875 4.84867 26.99 4.37175 26.6383 4.02012C26.2867 3.66849 25.8098 3.47095 25.3125 3.47095ZM25.3125 25.9709H4.6875V5.34595H25.3125V25.9709ZM11.25 13.7834V21.2834C11.25 21.5321 11.1512 21.7705 10.9754 21.9464C10.7996 22.1222 10.5611 22.2209 10.3125 22.2209C10.0639 22.2209 9.8254 22.1222 9.64959 21.9464C9.47377 21.7705 9.375 21.5321 9.375 21.2834V13.7834C9.375 13.5348 9.47377 13.2964 9.64959 13.1205C9.8254 12.9447 10.0639 12.8459 10.3125 12.8459C10.5611 12.8459 10.7996 12.9447 10.9754 13.1205C11.1512 13.2964 11.25 13.5348 11.25 13.7834ZM21.5625 17.0647V21.2834C21.5625 21.5321 21.4637 21.7705 21.2879 21.9464C21.1121 22.1222 20.8736 22.2209 20.625 22.2209C20.3764 22.2209 20.1379 22.1222 19.9621 21.9464C19.7863 21.7705 19.6875 21.5321 19.6875 21.2834V17.0647C19.6875 16.4431 19.4406 15.847 19.001 15.4074C18.5615 14.9679 17.9654 14.7209 17.3438 14.7209C16.7221 14.7209 16.126 14.9679 15.6865 15.4074C15.2469 15.847 15 16.4431 15 17.0647V21.2834C15 21.5321 14.9012 21.7705 14.7254 21.9464C14.5496 22.1222 14.3111 22.2209 14.0625 22.2209C13.8139 22.2209 13.5754 22.1222 13.3996 21.9464C13.2238 21.7705 13.125 21.5321 13.125 21.2834V13.7834C13.1262 13.5538 13.2116 13.3326 13.365 13.1617C13.5185 12.9909 13.7293 12.8823 13.9575 12.8566C14.1857 12.8309 14.4154 12.8898 14.603 13.0222C14.7906 13.1546 14.9231 13.3512 14.9754 13.5749C15.6096 13.1446 16.349 12.8953 17.1142 12.8536C17.8795 12.8119 18.6416 12.9794 19.3188 13.3382C19.996 13.697 20.5626 14.2334 20.9579 14.89C21.3532 15.5465 21.5622 16.2983 21.5625 17.0647ZM11.7188 10.5022C11.7187 10.7803 11.6363 11.0522 11.4818 11.2835C11.3272 11.5147 11.1076 11.695 10.8506 11.8014C10.5937 11.9078 10.3109 11.9357 10.0382 11.8814C9.76537 11.8272 9.5148 11.6932 9.31813 11.4966C9.12146 11.2999 8.98753 11.0493 8.93327 10.7765C8.87901 10.5038 8.90686 10.221 9.01329 9.96405C9.11973 9.70709 9.29997 9.48746 9.53123 9.33294C9.76249 9.17842 10.0344 9.09595 10.3125 9.09595C10.6855 9.09595 11.0431 9.24411 11.3069 9.50783C11.5706 9.77155 11.7187 10.1292 11.7188 10.5022Z" fill="#7F1D1D"/>
</g>
</svg>
