<svg width="46" height="61" viewBox="0 0 46 61" fill="none" xmlns="http://www.w3.org/2000/svg">
<path d="M43.8381 17.782L27.5554 1.25757C27.2998 0.997533 27.0138 0.769512 26.7037 0.578482L26.4532 0.452725H26.2778C25.7405 0.17937 25.1511 0.0249841 24.5493 1.0075e-08L4.28361 1.0075e-08C3.15615 -7.74183e-05 2.07412 0.446139 1.27222 1.24186C0.470309 2.03759 0.0131866 3.11866 0 4.25059V56.1127C0.0131866 57.2447 0.470309 58.3257 1.27222 59.1215C2.07412 59.9172 3.15615 60.3634 4.28361 60.3633H40.8571C41.4149 60.3701 41.9684 60.2647 42.4851 60.0535C43.0018 59.8423 43.4712 59.5295 43.8656 59.1334C44.2601 58.7374 44.5717 58.2661 44.782 57.7473C44.9924 57.2286 45.0973 56.6728 45.0906 56.1127V20.775C45.0887 20.2179 44.977 19.6666 44.7621 19.1529C44.5471 18.6393 44.2331 18.1734 43.8381 17.782ZM12.0993 41.4998H10.7967V45.2725H8.09126V33.9544H12.0242C14.5292 33.9544 16.5332 34.8347 16.5332 37.6265C16.5332 40.4183 14.4791 41.4998 12.0993 41.4998ZM21.8439 45.2725H18.437V33.9544H21.6936C22.4572 33.8437 23.2359 33.9116 23.9691 34.1527C24.7023 34.3939 25.3701 34.8018 25.9204 35.3446C26.4708 35.8875 26.8889 36.5506 27.142 37.2823C27.3952 38.0141 27.4767 38.7946 27.38 39.5631C27.4886 40.3251 27.4216 41.1019 27.1841 41.8338C26.9466 42.5657 26.545 43.2331 26.0102 43.7846C25.4754 44.3362 24.8217 44.7571 24.0994 45.0151C23.3771 45.273 22.6054 45.3611 21.8439 45.2725ZM36.6236 36.1928H32.1646V38.708H35.9723V40.9465H32.1646V45.2725H29.4842V33.9544H36.6486L36.6236 36.1928ZM26.6035 18.3857V6.51421L38.4022 18.4108L26.6035 18.3857Z" fill="#D81E06"/>
</svg>
