<svg width="160" height="50" viewBox="0 0 160 50" fill="none" xmlns="http://www.w3.org/2000/svg">
<path d="M147.259 0.000161134H12.7486C12.2583 0.000161134 11.7739 0.000161135 11.2849 0.00264013C10.8755 0.00511912 10.4694 0.0123206 10.0562 0.0183817C9.15832 0.028176 8.26261 0.101399 7.37678 0.237413C6.49221 0.376389 5.63534 0.638397 4.83516 1.01458C4.03596 1.39394 3.30571 1.88688 2.6709 2.47552C2.03276 3.06251 1.50082 3.74098 1.09553 4.48486C0.689129 5.22725 0.407328 6.0228 0.259861 6.84401C0.110992 7.66419 0.0308843 8.49383 0.0202567 9.32548C0.00784864 9.70551 0.0065383 10.0868 0 10.4669V39.1169C0.0065383 39.5018 0.00784864 39.8746 0.0202567 40.2596C0.0308876 41.0912 0.110995 41.9208 0.259861 42.741C0.40692 43.5627 0.688739 44.3587 1.09553 45.1013C1.50063 45.8428 2.03265 46.5185 2.6709 47.1022C3.30331 47.6935 4.03403 48.1868 4.83516 48.5632C5.63533 48.9404 6.49211 49.204 7.37678 49.3451C8.26276 49.48 9.15838 49.5533 10.0562 49.5643C10.4694 49.5727 10.8755 49.5775 11.2849 49.5775C11.7739 49.58 12.2583 49.58 12.7486 49.58H147.259C147.739 49.58 148.227 49.58 148.708 49.5775C149.115 49.5775 149.533 49.5727 149.941 49.5643C150.837 49.5539 151.731 49.4806 152.615 49.3451C153.502 49.203 154.362 48.9395 155.166 48.5632C155.967 48.1866 156.697 47.6933 157.329 47.1022C157.965 46.5162 158.498 45.841 158.908 45.1013C159.312 44.3581 159.591 43.5622 159.736 42.741C159.885 41.9207 159.968 41.0913 159.984 40.2596C159.99 39.8746 159.99 39.5018 159.99 39.1169C160 38.6666 160 38.2188 160 37.7612V11.8202C160 11.3662 160 10.916 159.99 10.4669C159.99 10.0868 159.99 9.70551 159.984 9.32543C159.968 8.49371 159.885 7.66426 159.736 6.84396C159.591 6.02322 159.312 5.22774 158.908 4.48481C158.083 2.99379 156.774 1.78011 155.166 1.01447C154.362 0.639205 153.502 0.377266 152.615 0.237302C151.731 0.100688 150.837 0.0274397 149.941 0.0182082C149.533 0.0121595 149.115 0.00489601 148.708 0.00247899C148.227 0 147.739 0.000161134 147.259 0.000161134Z" fill="#A6A6A6"/>
<path d="M11.2913 48.4953C10.884 48.4953 10.4864 48.4904 10.0822 48.482C9.24493 48.4719 8.40959 48.4043 7.58305 48.2798C6.81235 48.1568 6.06574 47.9279 5.36786 47.6007C4.67638 47.2762 4.0457 46.8508 3.49997 46.3406C2.94634 45.8365 2.48542 45.2518 2.13547 44.6097C1.78166 43.9634 1.53681 43.2707 1.40943 42.5556C1.27188 41.7872 1.19746 41.0103 1.18681 40.2315C1.17833 39.9701 1.16724 39.0998 1.16724 39.0998V10.4667C1.16724 10.4667 1.17906 9.6097 1.18688 9.35792C1.19707 8.58036 1.27106 7.80465 1.4082 7.0375C1.53581 6.32047 1.78086 5.62574 2.13485 4.97733C2.48351 4.33566 2.94188 3.75052 3.49217 3.24458C4.04185 2.73383 4.67455 2.30619 5.36721 1.97723C6.06348 1.6511 6.80868 1.42382 7.57782 1.30302C8.40707 1.17729 9.24532 1.10932 10.0855 1.09967L11.292 1.08453H148.701L149.922 1.10028C150.755 1.10945 151.585 1.17681 152.407 1.3018C153.184 1.42412 153.937 1.65299 154.641 1.98086C156.029 2.6438 157.158 3.69264 157.87 4.98036C158.219 5.62428 158.46 6.31336 158.586 7.02419C158.725 7.79763 158.802 8.57944 158.818 9.36338C158.822 9.7144 158.822 10.0915 158.822 10.4667C158.833 10.9315 158.833 11.3739 158.833 11.82V37.761C158.833 38.2113 158.833 38.6507 158.822 39.0937C158.822 39.4968 158.822 39.866 158.817 40.246C158.801 41.016 158.725 41.7838 158.588 42.5434C158.464 43.2637 158.22 43.9618 157.866 44.6134C157.514 45.2485 157.056 45.8282 156.508 46.331C155.962 46.8439 155.33 47.2718 154.637 47.5984C153.935 47.9281 153.183 48.1578 152.407 48.2798C151.581 48.405 150.745 48.4725 149.908 48.482C149.516 48.4904 149.106 48.4953 148.708 48.4953L147.259 48.4977L11.2913 48.4953Z" fill="black"/>
<path d="M33.1179 25.1626C33.1323 24.128 33.4287 23.1136 33.9796 22.2138C34.5305 21.314 35.318 20.558 36.2688 20.0161C35.6648 19.2164 34.868 18.5583 33.9416 18.0941C33.0152 17.6298 31.9849 17.3722 30.9323 17.3417C28.687 17.1232 26.5104 18.5872 25.3662 18.5872C24.1999 18.5872 22.4383 17.3634 20.5414 17.3996C19.3144 17.4363 18.1186 17.7671 17.0704 18.3596C16.0223 18.9522 15.1577 19.7863 14.5607 20.7807C11.9748 24.9311 13.9037 31.0307 16.3808 34.3855C17.6201 36.0283 19.0685 37.8633 20.9638 37.7983C22.8184 37.7269 23.511 36.7019 25.7497 36.7019C27.9676 36.7019 28.6174 37.7983 30.5511 37.7569C32.5412 37.7269 33.795 36.1068 34.9909 34.4485C35.8814 33.278 36.5666 31.9843 37.0211 30.6153C35.865 30.162 34.8783 29.4032 34.1842 28.4336C33.4901 27.4639 33.1193 26.3263 33.1179 25.1626Z" fill="white"/>
<path d="M29.4655 15.1353C30.5506 13.9278 31.0852 12.3757 30.9557 10.8087C29.298 10.9701 27.7667 11.7046 26.6669 12.8658C26.1293 13.4331 25.7174 14.093 25.455 14.8079C25.1926 15.5228 25.0848 16.2787 25.1377 17.0322C25.9669 17.0401 26.7872 16.8735 27.5368 16.545C28.2865 16.2164 28.9459 15.7344 29.4655 15.1353Z" fill="white"/>
<path d="M56.5613 33.6395H50.2324L48.7125 37.7998H46.0319L52.0265 22.4077H54.8116L60.8063 37.7998H58.0799L56.5613 33.6395ZM50.8879 31.7197H55.9046L53.4315 24.9678H53.3623L50.8879 31.7197Z" fill="white"/>
<path d="M73.7527 32.1893C73.7527 35.6766 71.7392 37.9171 68.7008 37.9171C67.9311 37.9545 67.1656 37.7901 66.492 37.4429C65.8184 37.0956 65.2639 36.5796 64.8919 35.9538H64.8344V41.5121H62.3496V26.5777H64.7548V28.4442H64.8005C65.1896 27.8214 65.7534 27.308 66.4322 26.9586C67.1109 26.6093 67.8791 26.4371 68.6551 26.4603C71.7274 26.4603 73.7527 28.7117 73.7527 32.1893ZM71.1986 32.1893C71.1986 29.9173 69.9321 28.4236 67.9996 28.4236C66.101 28.4236 64.824 29.9488 64.824 32.1893C64.824 34.4504 66.101 35.9647 67.9996 35.9647C69.9321 35.9647 71.1986 34.4819 71.1986 32.1893Z" fill="white"/>
<path d="M87.0765 32.1893C87.0765 35.6766 85.0631 37.9171 82.0246 37.9171C81.2549 37.9544 80.4894 37.7901 79.8158 37.4429C79.1422 37.0956 78.5877 36.5796 78.2158 35.9538H78.1583V41.5121H75.6735V26.5777H78.0786V28.4442H78.1243C78.5134 27.8214 79.0772 27.308 79.756 26.9586C80.4347 26.6093 81.2029 26.4371 81.9789 26.4603C85.0513 26.4603 87.0765 28.7117 87.0765 32.1893ZM84.5225 32.1893C84.5225 29.9173 83.2559 28.4236 81.3234 28.4236C79.4249 28.4236 78.1479 29.9488 78.1479 32.1893C78.1479 34.4504 79.4249 35.9647 81.3234 35.9647C83.2559 35.9647 84.5225 34.4819 84.5225 32.1893Z" fill="white"/>
<path d="M95.8825 33.5111C96.0666 35.0375 97.6661 36.0397 99.8519 36.0397C101.946 36.0397 103.453 35.0374 103.453 33.6611C103.453 32.4664 102.544 31.7511 100.393 31.2608L98.2407 30.7803C95.1918 30.0976 93.7763 28.7758 93.7763 26.6309C93.7763 23.9751 96.2729 22.151 99.818 22.151C103.326 22.151 105.732 23.9751 105.813 26.6309H103.304C103.154 25.0948 101.784 24.1676 99.7827 24.1676C97.781 24.1676 96.4113 25.1057 96.4113 26.4711C96.4113 27.5593 97.2861 28.1996 99.4262 28.6898L101.256 29.1062C104.662 29.853 106.078 31.1216 106.078 33.373C106.078 36.2526 103.603 38.0562 99.6678 38.0562C95.9856 38.0562 93.4995 36.295 93.3389 33.511L95.8825 33.5111Z" fill="white"/>
<path d="M111.44 23.922V26.5777H113.742V28.4019H111.44V34.5884C111.44 35.5495 111.901 35.9974 112.913 35.9974C113.186 35.993 113.459 35.9752 113.731 35.9441V37.7573C113.276 37.8362 112.813 37.8718 112.35 37.8639C109.9 37.8639 108.944 37.0105 108.944 34.8341V28.4019H107.184V26.5777H108.944V23.922H111.44Z" fill="white"/>
<path d="M115.076 32.1894C115.076 28.6585 117.319 26.4398 120.817 26.4398C124.327 26.4398 126.56 28.6585 126.56 32.1894C126.56 35.7299 124.338 37.939 120.817 37.939C117.297 37.939 115.076 35.7299 115.076 32.1894ZM124.028 32.1894C124.028 29.7673 122.83 28.3377 120.817 28.3377C118.803 28.3377 117.607 29.7782 117.607 32.1894C117.607 34.6212 118.803 36.0398 120.817 36.0398C122.83 36.0398 124.028 34.6212 124.028 32.1894Z" fill="white"/>
<path d="M128.608 26.5777H130.978V28.4878H131.036C131.196 27.8912 131.573 27.364 132.103 26.9948C132.633 26.6256 133.285 26.4368 133.947 26.4603C134.234 26.4593 134.519 26.4882 134.799 26.5462V28.7008C134.437 28.5984 134.06 28.5514 133.682 28.5616C133.321 28.548 132.961 28.607 132.627 28.7346C132.293 28.8621 131.993 29.0551 131.747 29.3004C131.501 29.5457 131.315 29.8374 131.202 30.1556C131.089 30.4737 131.052 30.8107 131.093 31.1435V37.7997H128.608L128.608 26.5777Z" fill="white"/>
<path d="M146.255 34.5037C145.921 36.5409 143.781 37.9389 141.043 37.9389C137.521 37.9389 135.335 35.7516 135.335 32.2426C135.335 28.7226 137.533 26.4397 140.938 26.4397C144.287 26.4397 146.394 28.5725 146.394 31.9751V32.7643H137.844V32.9035C137.804 33.3165 137.86 33.7325 138.007 34.124C138.155 34.5155 138.39 34.8734 138.698 35.1741C139.006 35.4747 139.38 35.7112 139.794 35.8677C140.208 36.0243 140.653 36.0973 141.1 36.0821C141.687 36.1331 142.277 36.007 142.78 35.7226C143.284 35.4382 143.675 35.0107 143.896 34.5037L146.255 34.5037ZM137.855 31.1544H143.908C143.93 30.783 143.869 30.4114 143.729 30.0629C143.589 29.7143 143.373 29.3963 143.094 29.1289C142.815 28.8614 142.48 28.6503 142.109 28.5087C141.738 28.3672 141.339 28.2982 140.938 28.3062C140.534 28.304 140.132 28.376 139.758 28.5183C139.384 28.6605 139.043 28.87 138.757 29.1348C138.47 29.3996 138.243 29.7144 138.088 30.0611C137.933 30.4077 137.854 30.7793 137.855 31.1544Z" fill="white"/>
<path d="M50.5765 10.8221C51.0974 10.7874 51.6202 10.8604 52.107 11.0357C52.5938 11.211 53.0327 11.4842 53.3918 11.8358C53.7509 12.1874 54.0214 12.6084 54.1837 13.0686C54.346 13.5288 54.3961 14.0166 54.3305 14.497C54.3305 16.8597 52.9529 18.2179 50.5765 18.2179H47.6947V10.8221H50.5765ZM48.9338 17.172H50.438C50.8103 17.1926 51.1828 17.136 51.5285 17.0064C51.8742 16.8767 52.1843 16.6772 52.4364 16.4224C52.6884 16.1676 52.876 15.8639 52.9854 15.5334C53.0949 15.203 53.1235 14.854 53.0691 14.512C53.1195 14.1714 53.088 13.8246 52.9769 13.4966C52.8658 13.1685 52.6777 12.8673 52.4263 12.6145C52.1748 12.3618 51.8662 12.1637 51.5224 12.0345C51.1787 11.9053 50.8084 11.8482 50.438 11.8672H48.9338V17.172Z" fill="white"/>
<path d="M55.7302 15.4247C55.6924 15.058 55.7376 14.6879 55.8631 14.3383C55.9886 13.9886 56.1915 13.6672 56.4588 13.3945C56.7262 13.1218 57.052 12.904 57.4155 12.7549C57.779 12.6058 58.1721 12.5288 58.5696 12.5288C58.967 12.5288 59.3601 12.6058 59.7236 12.7549C60.0871 12.904 60.4129 13.1218 60.6803 13.3945C60.9476 13.6672 61.1505 13.9886 61.276 14.3383C61.4015 14.6879 61.4467 15.058 61.4089 15.4247C61.4475 15.7919 61.4027 16.1625 61.2776 16.5127C61.1525 16.8629 60.9497 17.1849 60.6823 17.4581C60.4149 17.7313 60.0887 17.9496 59.7249 18.099C59.361 18.2484 58.9675 18.3256 58.5696 18.3256C58.1716 18.3256 57.7781 18.2484 57.4142 18.099C57.0504 17.9496 56.7243 17.7313 56.4569 17.4581C56.1895 17.1849 55.9867 16.8629 55.8615 16.5127C55.7364 16.1625 55.6917 15.7919 55.7302 15.4247ZM60.1867 15.4247C60.1867 14.2149 59.6004 13.5074 58.5715 13.5074C57.5387 13.5074 56.9577 14.2149 56.9577 15.4248C56.9577 16.6443 57.5387 17.3463 58.5715 17.3463C59.6004 17.3463 60.1867 16.6394 60.1867 15.4247Z" fill="white"/>
<path d="M68.9573 18.2178H67.7247L66.4803 14.1071H66.3863L65.1472 18.2178H63.9263L62.2667 12.6364H63.4719L64.5505 16.8953H64.6393L65.8771 12.6364H67.017L68.2548 16.8953H68.3489L69.4222 12.6364H70.6104L68.9573 18.2178Z" fill="white"/>
<path d="M72.0062 12.6365H73.1501V13.5231H73.2388C73.3895 13.2047 73.6435 12.9377 73.9656 12.7595C74.2877 12.5812 74.6617 12.5006 75.0355 12.5287C75.3285 12.5083 75.6227 12.5493 75.8962 12.6486C76.1698 12.7478 76.4157 12.9029 76.6159 13.1023C76.816 13.3016 76.9652 13.5402 77.0524 13.8003C77.1396 14.0603 77.1625 14.3353 77.1195 14.6047V18.2178H75.9313V14.8813C75.9313 13.9843 75.5108 13.5383 74.6321 13.5383C74.4332 13.5297 74.2346 13.5611 74.05 13.6303C73.8654 13.6995 73.6992 13.8049 73.5626 13.9392C73.4261 14.0735 73.3225 14.2337 73.2589 14.4086C73.1954 14.5835 73.1734 14.7691 73.1944 14.9527V18.2178H72.0062L72.0062 12.6365Z" fill="white"/>
<path d="M79.0129 10.4576H80.2011V18.2178H79.0129V10.4576Z" fill="white"/>
<path d="M81.8529 15.4248C81.8151 15.058 81.8603 14.6879 81.9858 14.3382C82.1113 13.9886 82.3143 13.6671 82.5817 13.3945C82.849 13.1218 83.1749 12.9039 83.5384 12.7548C83.9019 12.6058 84.295 12.5287 84.6925 12.5287C85.09 12.5287 85.4831 12.6058 85.8467 12.7548C86.2102 12.9039 86.536 13.1218 86.8034 13.3945C87.0708 13.6671 87.2737 13.9886 87.3992 14.3382C87.5247 14.6879 87.57 15.058 87.5322 15.4248C87.5707 15.792 87.5259 16.1626 87.4008 16.5127C87.2756 16.8629 87.0728 17.185 86.8053 17.4582C86.5379 17.7314 86.2118 17.9497 85.8479 18.0991C85.484 18.2485 85.0905 18.3256 84.6925 18.3256C84.2946 18.3256 83.901 18.2485 83.5372 18.0991C83.1733 17.9497 82.8472 17.7314 82.5797 17.4582C82.3123 17.185 82.1095 16.8629 81.9843 16.5127C81.8591 16.1626 81.8144 15.792 81.8529 15.4248ZM86.3094 15.4248C86.3094 14.2149 85.7231 13.5074 84.6942 13.5074C83.6613 13.5074 83.0803 14.2149 83.0803 15.4248C83.0803 16.6443 83.6614 17.3464 84.6942 17.3464C85.7231 17.3464 86.3094 16.6395 86.3094 15.4248Z" fill="white"/>
<path d="M88.7831 16.6394C88.7831 15.6347 89.59 15.0555 91.0224 14.9732L92.6533 14.8861V14.4043C92.6533 13.8148 92.2328 13.482 91.4207 13.482C90.7574 13.482 90.2977 13.7077 90.1659 14.1023H89.0155C89.1369 13.1436 90.1097 12.5287 91.4755 12.5287C92.985 12.5287 93.8363 13.2253 93.8363 14.4043V18.2178H92.6925V17.4335H92.5984C92.4076 17.7148 92.1397 17.9442 91.822 18.0982C91.5042 18.2521 91.1481 18.3251 90.79 18.3098C90.5372 18.3342 90.2818 18.3092 90.0401 18.2364C89.7984 18.1637 89.5758 18.0448 89.3868 17.8874C89.1977 17.73 89.0463 17.5376 88.9423 17.3227C88.8383 17.1077 88.7841 16.875 88.7831 16.6394ZM92.6533 16.1625V15.6959L91.183 15.783C90.3539 15.8345 89.9778 16.0959 89.9778 16.588C89.9778 17.0903 90.4479 17.3826 91.0943 17.3826C91.2837 17.4004 91.475 17.3827 91.6568 17.3305C91.8387 17.2783 92.0074 17.1928 92.1528 17.0789C92.2983 16.9651 92.4175 16.8253 92.5035 16.6679C92.5895 16.5104 92.6404 16.3386 92.6533 16.1625Z" fill="white"/>
<path d="M95.3979 15.4247C95.3979 13.6611 96.3759 12.5439 97.897 12.5439C98.2733 12.5278 98.6468 12.6113 98.9737 12.7847C99.3007 12.9581 99.5676 13.2142 99.7434 13.5231H99.8322V10.4576H101.02V18.2178H99.8818V17.336H99.7878C99.5984 17.6428 99.3222 17.8957 98.9889 18.0673C98.6556 18.2389 98.278 18.3228 97.8971 18.3098C96.3654 18.3098 95.3979 17.1926 95.3979 15.4247ZM96.6253 15.4247C96.6253 16.6085 97.2272 17.3209 98.234 17.3209C99.2354 17.3209 99.8544 16.5983 99.8544 15.4296C99.8544 14.2663 99.2289 13.5334 98.234 13.5334C97.2337 13.5334 96.6253 14.2506 96.6253 15.4247Z" fill="white"/>
<path d="M105.937 15.4247C105.899 15.058 105.944 14.6879 106.069 14.3383C106.195 13.9886 106.398 13.6672 106.665 13.3945C106.932 13.1218 107.258 12.904 107.622 12.7549C107.985 12.6058 108.378 12.5288 108.776 12.5288C109.173 12.5288 109.566 12.6058 109.93 12.7549C110.293 12.904 110.619 13.1218 110.887 13.3945C111.154 13.6672 111.357 13.9886 111.482 14.3383C111.608 14.6879 111.653 15.058 111.615 15.4247C111.654 15.7919 111.609 16.1625 111.484 16.5127C111.359 16.8629 111.156 17.1849 110.889 17.4581C110.621 17.7313 110.295 17.9496 109.931 18.099C109.567 18.2484 109.174 18.3256 108.776 18.3256C108.378 18.3256 107.984 18.2484 107.621 18.099C107.257 17.9496 106.931 17.7313 106.663 17.4581C106.396 17.1849 106.193 16.8629 106.068 16.5127C105.943 16.1625 105.898 15.7919 105.937 15.4247ZM110.393 15.4247C110.393 14.2149 109.807 13.5074 108.778 13.5074C107.745 13.5074 107.164 14.2149 107.164 15.4248C107.164 16.6443 107.745 17.3463 108.778 17.3463C109.807 17.3463 110.393 16.6394 110.393 15.4247Z" fill="white"/>
<path d="M113.209 12.6365H114.353V13.5231H114.442C114.593 13.2047 114.847 12.9377 115.169 12.7595C115.491 12.5812 115.865 12.5006 116.239 12.5287C116.532 12.5083 116.826 12.5493 117.099 12.6486C117.373 12.7478 117.619 12.9029 117.819 13.1023C118.019 13.3016 118.168 13.5402 118.256 13.8003C118.343 14.0603 118.366 14.3353 118.323 14.6047V18.2178H117.135V14.8813C117.135 13.9843 116.714 13.5383 115.835 13.5383C115.636 13.5297 115.438 13.5611 115.253 13.6303C115.069 13.6995 114.902 13.8049 114.766 13.9392C114.629 14.0735 114.526 14.2337 114.462 14.4086C114.399 14.5835 114.377 14.7691 114.398 14.9527V18.2178H113.209V12.6365Z" fill="white"/>
<path d="M125.037 11.2468V12.6618H126.341V13.5896H125.037V16.4596C125.037 17.0443 125.297 17.3003 125.888 17.3003C126.04 17.2998 126.191 17.2913 126.341 17.2748V18.1924C126.128 18.2277 125.912 18.2466 125.695 18.2486C124.374 18.2486 123.847 17.8177 123.847 16.7416V13.5896H122.892V12.6618H123.847V11.2468H125.037Z" fill="white"/>
<path d="M127.964 10.4576H129.142V13.5334H129.236C129.394 13.212 129.655 12.9435 129.984 12.7646C130.312 12.5857 130.692 12.505 131.072 12.5336C131.363 12.5189 131.655 12.564 131.925 12.6657C132.196 12.7673 132.439 12.9231 132.637 13.1219C132.835 13.3206 132.983 13.5574 133.071 13.8154C133.159 14.0734 133.184 14.3462 133.145 14.6143V18.2178H131.956V14.8861C131.956 13.9946 131.508 13.5431 130.669 13.5431C130.464 13.5275 130.259 13.5536 130.067 13.6193C129.874 13.6851 129.7 13.789 129.556 13.9238C129.411 14.0585 129.3 14.2209 129.231 14.3996C129.161 14.5783 129.134 14.7689 129.153 14.9581V18.2178H127.964L127.964 10.4576Z" fill="white"/>
<path d="M140.074 16.7108C139.912 17.2209 139.563 17.6621 139.086 17.9573C138.609 18.2525 138.035 18.3829 137.465 18.3255C137.068 18.3352 136.674 18.2648 136.31 18.1191C135.945 17.9735 135.62 17.756 135.355 17.4819C135.09 17.2078 134.893 16.8836 134.777 16.5318C134.661 16.18 134.63 15.8091 134.684 15.4447C134.631 15.0792 134.663 14.7074 134.779 14.3546C134.895 14.0017 135.091 13.676 135.354 13.3995C135.617 13.123 135.941 12.9022 136.305 12.7519C136.668 12.6017 137.062 12.5256 137.46 12.5287C139.135 12.5287 140.146 13.5897 140.146 15.3424V15.7267H135.894V15.7885C135.876 15.9933 135.903 16.1994 135.976 16.3937C136.048 16.588 136.163 16.7662 136.314 16.9167C136.465 17.0672 136.649 17.1869 136.852 17.2679C137.056 17.349 137.276 17.3897 137.498 17.3874C137.782 17.419 138.07 17.3716 138.325 17.2511C138.58 17.1306 138.791 16.9425 138.93 16.7108L140.074 16.7108ZM135.894 14.9121H138.935C138.95 14.7248 138.923 14.5366 138.855 14.3597C138.786 14.1828 138.679 14.0211 138.54 13.8849C138.4 13.7487 138.231 13.6411 138.044 13.569C137.857 13.4969 137.656 13.4619 137.453 13.4662C137.248 13.4638 137.044 13.4996 136.853 13.5714C136.663 13.6432 136.49 13.7497 136.345 13.8844C136.2 14.0192 136.085 14.1795 136.007 14.356C135.93 14.5325 135.891 14.7216 135.894 14.9121Z" fill="white"/>
</svg>
