<svg width="30" height="30" viewBox="0 0 30 30" fill="none" xmlns="http://www.w3.org/2000/svg">
<path d="M22.1344 10.3656C22.2506 10.4817 22.3428 10.6196 22.4057 10.7713C22.4686 10.9231 22.501 11.0857 22.501 11.25C22.501 11.4143 22.4686 11.5769 22.4057 11.7287C22.3428 11.8804 22.2506 12.0183 22.1344 12.1344L13.3844 20.8844C13.2683 21.0006 13.1304 21.0928 12.9787 21.1557C12.8269 21.2186 12.6643 21.251 12.5 21.251C12.3357 21.251 12.1731 21.2186 12.0213 21.1557C11.8696 21.0928 11.7317 21.0006 11.6156 20.8844L7.86562 17.1344C7.63107 16.8998 7.4993 16.5817 7.4993 16.25C7.4993 15.9183 7.63107 15.6002 7.86562 15.3656C8.10017 15.1311 8.41829 14.9993 8.75 14.9993C9.08171 14.9993 9.39983 15.1311 9.63438 15.3656L12.5 18.2328L20.3656 10.3656C20.4817 10.2494 20.6196 10.1572 20.7713 10.0943C20.9231 10.0314 21.0857 9.99902 21.25 9.99902C21.4143 9.99902 21.5769 10.0314 21.7287 10.0943C21.8804 10.1572 22.0183 10.2494 22.1344 10.3656ZM30 2.5V27.5C30 28.163 29.7366 28.7989 29.2678 29.2678C28.7989 29.7366 28.163 30 27.5 30H2.5C1.83696 30 1.20107 29.7366 0.732233 29.2678C0.263392 28.7989 0 28.163 0 27.5V2.5C0 1.83696 0.263392 1.20107 0.732233 0.732233C1.20107 0.263392 1.83696 0 2.5 0H27.5C28.163 0 28.7989 0.263392 29.2678 0.732233C29.7366 1.20107 30 1.83696 30 2.5ZM27.5 27.5V2.5H2.5V27.5H27.5Z" fill="#D92121"/>
</svg>
