<svg width="16" height="16" viewBox="0 0 16 16" fill="none" xmlns="http://www.w3.org/2000/svg">
<path d="M8.58652 3.68762C8.59987 3.68757 8.61326 3.69029 8.62558 3.69543C8.63793 3.7006 8.64942 3.70833 8.65878 3.7179L8.6705 3.72961L13.068 7.92786H13.0689C13.0786 7.93718 13.0861 7.94869 13.0914 7.96106C13.0966 7.97342 13.0992 7.98669 13.0992 8.00012C13.0992 8.01353 13.0966 8.02684 13.0914 8.03918C13.0862 8.05139 13.0785 8.06217 13.0689 8.07141L8.6705 12.2706L8.65878 12.2823C8.64942 12.2919 8.63793 12.2996 8.62558 12.3048C8.61327 12.3099 8.59985 12.3127 8.58652 12.3126C8.5732 12.3125 8.5597 12.31 8.54745 12.3048C8.5352 12.2995 8.52448 12.291 8.51523 12.2814C8.50601 12.2718 8.49851 12.2606 8.49374 12.2482C8.48898 12.2357 8.48646 12.2224 8.48691 12.2091C8.48736 12.1957 8.49105 12.1822 8.49667 12.17C8.50227 12.1581 8.51036 12.1477 8.52011 12.1388L8.5289 12.13L11.8551 8.96204L12.7603 8.09973H2.9996C2.97322 8.09963 2.94795 8.0891 2.92929 8.07043C2.91065 8.05172 2.90002 8.02654 2.89999 8.00012C2.89999 7.9736 2.91054 7.94759 2.92929 7.92883C2.94793 7.91033 2.97334 7.90062 2.9996 7.90051H12.7603L11.8551 7.03821L8.5289 3.87024L8.52011 3.86145L8.49667 3.82922C8.49114 3.81719 8.48737 3.80437 8.48691 3.79114C8.48646 3.77785 8.48901 3.7645 8.49374 3.75208C8.49854 3.73958 8.50595 3.72754 8.51523 3.7179C8.52441 3.70843 8.53534 3.70065 8.54745 3.69543C8.5597 3.6902 8.5732 3.6877 8.58652 3.68762Z" fill="#111827" stroke="#18181B"/>
</svg>
