<svg width="21" height="21" viewBox="0 0 21 21" fill="none" xmlns="http://www.w3.org/2000/svg">
<path fill-rule="evenodd" clip-rule="evenodd" d="M10.5001 2.5C10.699 2.5 10.8897 2.57902 11.0304 2.71967C11.171 2.86032 11.2501 3.05109 11.2501 3.25V15.84L13.2001 13.74C13.3353 13.5941 13.523 13.508 13.7218 13.5005C13.8202 13.4968 13.9184 13.5125 14.0108 13.5467C14.1031 13.5809 14.1878 13.633 14.2601 13.7C14.3323 13.767 14.3906 13.8475 14.4317 13.937C14.4728 14.0266 14.4959 14.1233 14.4996 14.2217C14.5033 14.3201 14.4876 14.4183 14.4534 14.5107C14.4191 14.6031 14.367 14.6878 14.3001 14.76L11.0501 18.26C10.9799 18.3357 10.8948 18.3961 10.8001 18.4375C10.7055 18.4788 10.6033 18.5001 10.5001 18.5001C10.3968 18.5001 10.2946 18.4788 10.2 18.4375C10.1054 18.3961 10.0203 18.3357 9.95007 18.26L6.70007 14.76C6.56481 14.6141 6.49303 14.4205 6.50053 14.2217C6.50804 14.0229 6.5942 13.8353 6.74007 13.7C6.88594 13.5647 7.07956 13.493 7.27835 13.5005C7.47714 13.508 7.66481 13.5941 7.80007 13.74L9.75007 15.84V3.25C9.75007 3.05109 9.82909 2.86032 9.96974 2.71967C10.1104 2.57902 10.3012 2.5 10.5001 2.5Z" fill="#111827"/>
</svg>
