<svg width="25" height="24" viewBox="0 0 25 24" fill="none" xmlns="http://www.w3.org/2000/svg">
<path fill-rule="evenodd" clip-rule="evenodd" d="M8.16709 12.5302C8.02664 12.3895 7.94775 12.1989 7.94775 12.0002C7.94775 11.8014 8.02664 11.6108 8.16709 11.4702L15.6671 3.97015C15.7358 3.89647 15.8186 3.83736 15.9106 3.79637C16.0026 3.75538 16.1019 3.73334 16.2026 3.73156C16.3033 3.72979 16.4033 3.74831 16.4967 3.78603C16.5901 3.82375 16.6749 3.8799 16.7461 3.95112C16.8174 4.02233 16.8735 4.10717 16.9112 4.20056C16.9489 4.29394 16.9675 4.39397 16.9657 4.49468C16.9639 4.59538 16.9419 4.69469 16.9009 4.78669C16.8599 4.87869 16.8008 4.96149 16.7271 5.03015L9.75709 12.0002L16.7271 18.9702C16.8008 19.0388 16.8599 19.1216 16.9009 19.2136C16.9419 19.3056 16.9639 19.4049 16.9657 19.5056C16.9675 19.6063 16.9489 19.7064 16.9112 19.7998C16.8735 19.8931 16.8174 19.978 16.7461 20.0492C16.6749 20.1204 16.5901 20.1766 16.4967 20.2143C16.4033 20.252 16.3033 20.2705 16.2026 20.2687C16.1019 20.267 16.0026 20.2449 15.9106 20.2039C15.8186 20.1629 15.7358 20.1038 15.6671 20.0302L8.16709 12.5302Z" fill="#111827"/>
</svg>
