<svg width="25" height="24" viewBox="0 0 25 24" fill="none" xmlns="http://www.w3.org/2000/svg">
<path fill-rule="evenodd" clip-rule="evenodd" d="M16.8326 11.4698C16.973 11.6105 17.0519 11.8011 17.0519 11.9998C17.0519 12.1986 16.973 12.3892 16.8326 12.5298L9.33258 20.0298C9.19041 20.1623 9.00236 20.2344 8.80806 20.231C8.61376 20.2276 8.42837 20.1489 8.29096 20.0115C8.15355 19.8741 8.07483 19.6887 8.07141 19.4944C8.06798 19.3001 8.1401 19.112 8.27258 18.9698L15.2426 11.9998L8.27258 5.02985C8.1401 4.88767 8.06798 4.69963 8.07141 4.50532C8.07483 4.31102 8.15355 4.12564 8.29096 3.98822C8.42837 3.85081 8.61376 3.7721 8.80806 3.76867C9.00236 3.76524 9.19041 3.83737 9.33258 3.96985L16.8326 11.4698Z" fill="#111827"/>
</svg>
