<?xml version="1.0" standalone="no"?><!DOCTYPE svg PUBLIC "-//W3C//DTD SVG 1.1//EN" "http://www.w3.org/Graphics/SVG/1.1/DTD/svg11.dtd"><svg t="1754413647815" class="icon" viewBox="0 0 1024 1024" version="1.1" xmlns="http://www.w3.org/2000/svg" p-id="5192" xmlns:xlink="http://www.w3.org/1999/xlink" width="200" height="200"><path d="M512.855 521.476A228.745 228.745 0 0 0 723.35 379.467 228.741 228.741 0 0 0 423.888 81.523 228.736 228.736 0 0 0 282.95 292.737a229.321 229.321 0 0 0 229.905 228.739zM556.63 531.12l-31.895 32.531 65.048 212.299-78.057 92.882-78.065-92.889 65.048-212.299-31.895-32.531C265.481 552.793 106.25 718.436 90.109 925.259a32.095 32.095 0 0 0 31.666 34.74h779.936a32.096 32.096 0 0 0 23.403-10.472 32.105 32.105 0 0 0 8.271-24.268C917.194 718.444 757.963 552.801 556.63 531.12z" fill="#5F90FF" p-id="5193"></path></svg>