<svg width="16" height="16" viewBox="0 0 16 16" fill="none" xmlns="http://www.w3.org/2000/svg">
<g id="arrow-left/mini">
<path id="Vector" d="M7.41309 3.6875L7.45215 3.69531L7.48535 3.71777L7.50586 3.75195L7.5127 3.79102L7.50391 3.8291C7.49834 3.84111 7.49023 3.8524 7.48047 3.86133L7.81641 4.23145L7.47949 3.86133L7.4707 3.87012L4.14453 7.03809L3.23926 7.90039H13C13.0132 7.90039 13.0261 7.90232 13.0381 7.90723L13.0703 7.92871C13.0891 7.94746 13.0996 7.97348 13.0996 8C13.0996 8.02649 13.089 8.05158 13.0703 8.07031C13.0516 8.08904 13.0265 8.09961 13 8.09961H3.23926L4.14453 8.96191L7.4707 12.1299L7.48047 12.1387L7.50391 12.1699L7.5127 12.209L7.50586 12.248L7.48535 12.2812L7.45215 12.3047C7.4399 12.3099 7.42639 12.3124 7.41309 12.3125L7.37402 12.3047C7.36183 12.2996 7.35107 12.2917 7.3418 12.2822L7.33496 12.2764L7.3291 12.2705L2.92969 8.07031L2.9082 8.03906C2.90296 8.02673 2.9004 8.0134 2.90039 8L2.9082 7.96094C2.91318 7.94924 2.92074 7.9387 2.92969 7.92969L7.3291 3.72949L7.33496 3.72363L7.3418 3.71777L7.37402 3.69531L7.41309 3.6875Z" fill="#111827" stroke="#18181B"/>
</g>
</svg>
