<svg xmlns="http://www.w3.org/2000/svg" width="16" height="17" viewBox="0 0 16 17" fill="none">
  <path d="M8 1.7998C9.98031 1.79983 11.9232 1.96287 13.8154 2.27441C13.8388 2.27826 13.8606 2.28961 13.876 2.30762C13.8913 2.32569 13.8994 2.34934 13.8994 2.37305V4.20312C13.8992 4.54757 13.7621 4.87752 13.5186 5.12109L9.77344 8.86816C9.3424 9.29924 9.09988 9.88356 9.09961 10.4932V12.9229C9.09961 13.3184 8.92059 13.692 8.6123 13.9385L7.0625 15.1777V15.1787C7.04779 15.1905 7.02947 15.1981 7.01074 15.2002C6.9921 15.2023 6.97297 15.1986 6.95605 15.1904C6.93916 15.1823 6.92502 15.1692 6.91504 15.1533C6.90512 15.1375 6.89945 15.1193 6.89941 15.1006V10.4941C6.89941 10.1922 6.84013 9.89323 6.72461 9.61426C6.60903 9.33521 6.43916 9.08174 6.22559 8.86816L2.48047 5.12207C2.35977 5.00136 2.26357 4.8579 2.19824 4.7002C2.13303 4.54261 2.09962 4.37367 2.09961 4.20312V2.37207C2.09961 2.34837 2.10771 2.32471 2.12305 2.30664C2.13724 2.28997 2.15851 2.27855 2.18359 2.27441C4.07687 1.96283 6.01952 1.7998 8 1.7998Z" fill="#111827" stroke="#18181B"/>
</svg>