<svg xmlns="http://www.w3.org/2000/svg" width="25" height="24" viewBox="0 0 25 24" fill="none">
  <path fill-rule="evenodd" clip-rule="evenodd" d="M8.66709 12.5302C8.52664 12.3895 8.44775 12.1989 8.44775 12.0002C8.44775 11.8014 8.52664 11.6108 8.66709 11.4702L16.1671 3.97015C16.2358 3.89647 16.3186 3.83736 16.4106 3.79637C16.5026 3.75538 16.6019 3.73334 16.7026 3.73156C16.8033 3.72979 16.9033 3.74831 16.9967 3.78603C17.0901 3.82375 17.1749 3.8799 17.2461 3.95112C17.3174 4.02233 17.3735 4.10717 17.4112 4.20056C17.4489 4.29394 17.4675 4.39397 17.4657 4.49468C17.4639 4.59538 17.4419 4.69469 17.4009 4.78669C17.3599 4.87869 17.3008 4.96149 17.2271 5.03015L10.2571 12.0002L17.2271 18.9702C17.3008 19.0388 17.3599 19.1216 17.4009 19.2136C17.4419 19.3056 17.4639 19.4049 17.4657 19.5056C17.4675 19.6063 17.4489 19.7064 17.4112 19.7998C17.3735 19.8931 17.3174 19.978 17.2461 20.0492C17.1749 20.1204 17.0901 20.1766 16.9967 20.2143C16.9033 20.252 16.8033 20.2705 16.7026 20.2687C16.6019 20.267 16.5026 20.2449 16.4106 20.2039C16.3186 20.1629 16.2358 20.1038 16.1671 20.0302L8.66709 12.5302Z" fill="#111827"/>
</svg>