<svg xmlns="http://www.w3.org/2000/svg" width="25" height="24" viewBox="0 0 25 24" fill="none">
  <path fill-rule="evenodd" clip-rule="evenodd" d="M16.3326 11.4698C16.473 11.6105 16.5519 11.8011 16.5519 11.9998C16.5519 12.1986 16.473 12.3892 16.3326 12.5298L8.83258 20.0298C8.69041 20.1623 8.50236 20.2344 8.30806 20.231C8.11376 20.2276 7.92837 20.1489 7.79096 20.0115C7.65355 19.8741 7.57483 19.6887 7.57141 19.4944C7.56798 19.3001 7.6401 19.112 7.77258 18.9698L14.7426 11.9998L7.77258 5.02985C7.6401 4.88767 7.56798 4.69963 7.57141 4.50532C7.57483 4.31102 7.65355 4.12564 7.79096 3.98822C7.92837 3.85081 8.11376 3.7721 8.30806 3.76867C8.50236 3.76524 8.69041 3.83737 8.83258 3.96985L16.3326 11.4698Z" fill="#111827"/>
</svg>