<svg xmlns="http://www.w3.org/2000/svg" width="23" height="24" viewBox="0 0 23 24" fill="none">
<g clip-path="url(#clip0_2455_6514)">
<path d="M11.522 7.13L12.4077 9.42L12.8368 10.53L13.9325 10.63L16.1877 10.84L14.4712 12.47L13.6403 13.26L13.8868 14.44L14.3981 16.85L12.4625 15.57L11.522 14.93L10.5816 15.55L8.64595 16.83L9.15725 14.42L9.40378 13.24L8.57291 12.45L6.85638 10.82L9.1116 10.61L10.2073 10.51L10.6364 9.4L11.522 7.13ZM11.522 2L8.95638 8.63L2.3916 9.24L7.37682 13.97L5.87943 21L11.522 17.27L17.1646 21L15.6673 13.97L20.6525 9.24L14.0877 8.63L11.522 2Z" fill="#680D18"/>
</g>
<defs>
<clipPath id="clip0_2455_6514">
<rect width="21.913" height="24" fill="white" transform="translate(0.56543)"/>
</clipPath>
</defs>
</svg>