<svg width="16" height="16" viewBox="0 0 16 16" fill="none" xmlns="http://www.w3.org/2000/svg">
<path d="M13.5999 2.19998C13.5999 2.04085 13.5367 1.88823 13.4242 1.77571C13.3116 1.66319 13.159 1.59998 12.9999 1.59998C12.8408 1.59998 12.6882 1.66319 12.5756 1.77571C12.4631 1.88823 12.3999 2.04085 12.3999 2.19998V6.59998C12.3999 6.75911 12.4631 6.91172 12.5756 7.02424C12.6882 7.13676 12.8408 7.19998 12.9999 7.19998C13.159 7.19998 13.3116 7.13676 13.4242 7.02424C13.5367 6.91172 13.5999 6.75911 13.5999 6.59998V2.19998ZM13.5999 12.6C13.5999 12.4408 13.5367 12.2882 13.4242 12.1757C13.3116 12.0632 13.159 12 12.9999 12C12.8408 12 12.6882 12.0632 12.5756 12.1757C12.4631 12.2882 12.3999 12.4408 12.3999 12.6V13.8C12.3999 13.9591 12.4631 14.1117 12.5756 14.2242C12.6882 14.3368 12.8408 14.4 12.9999 14.4C13.159 14.4 13.3116 14.3368 13.4242 14.2242C13.5367 14.1117 13.5999 13.9591 13.5999 13.8V12.6ZM2.9999 12C3.15903 12 3.31164 12.0632 3.42417 12.1757C3.53669 12.2882 3.5999 12.4408 3.5999 12.6V13.8C3.5999 13.9591 3.53669 14.1117 3.42417 14.2242C3.31164 14.3368 3.15903 14.4 2.9999 14.4C2.84077 14.4 2.68816 14.3368 2.57564 14.2242C2.46312 14.1117 2.3999 13.9591 2.3999 13.8V12.6C2.3999 12.4408 2.46312 12.2882 2.57564 12.1757C2.68816 12.0632 2.84077 12 2.9999 12ZM3.5999 2.19998C3.5999 2.04085 3.53669 1.88823 3.42417 1.77571C3.31164 1.66319 3.15903 1.59998 2.9999 1.59998C2.84077 1.59998 2.68816 1.66319 2.57564 1.77571C2.46312 1.88823 2.3999 2.04085 2.3999 2.19998V6.59998C2.3999 6.75911 2.46312 6.91172 2.57564 7.02424C2.68816 7.13676 2.84077 7.19998 2.9999 7.19998C3.15903 7.19998 3.31164 7.13676 3.42417 7.02424C3.53669 6.91172 3.5999 6.75911 3.5999 6.59998V2.19998ZM7.9999 8.79998C8.15903 8.79998 8.31164 8.86319 8.42417 8.97571C8.53669 9.08823 8.5999 9.24085 8.5999 9.39998V13.8C8.5999 13.9591 8.53669 14.1117 8.42417 14.2242C8.31164 14.3368 8.15903 14.4 7.9999 14.4C7.84077 14.4 7.68816 14.3368 7.57564 14.2242C7.46312 14.1117 7.3999 13.9591 7.3999 13.8V9.39998C7.3999 9.24085 7.46312 9.08823 7.57564 8.97571C7.68816 8.86319 7.84077 8.79998 7.9999 8.79998ZM8.5999 2.19998C8.5999 2.04085 8.53669 1.88823 8.42417 1.77571C8.31164 1.66319 8.15903 1.59998 7.9999 1.59998C7.84077 1.59998 7.68816 1.66319 7.57564 1.77571C7.46312 1.88823 7.3999 2.04085 7.3999 2.19998V3.39998C7.3999 3.55911 7.46312 3.71172 7.57564 3.82424C7.68816 3.93676 7.84077 3.99998 7.9999 3.99998C8.15903 3.99998 8.31164 3.93676 8.42417 3.82424C8.53669 3.71172 8.5999 3.55911 8.5999 3.39998V2.19998ZM7.9999 4.79998C7.57556 4.79998 7.16859 4.96855 6.86853 5.2686C6.56847 5.56866 6.3999 5.97563 6.3999 6.39998C6.3999 6.82432 6.56847 7.23129 6.86853 7.53135C7.16859 7.8314 7.57556 7.99998 7.9999 7.99998C8.42425 7.99998 8.83122 7.8314 9.13127 7.53135C9.43133 7.23129 9.5999 6.82432 9.5999 6.39998C9.5999 5.97563 9.43133 5.56866 9.13127 5.2686C8.83122 4.96855 8.42425 4.79998 7.9999 4.79998ZM2.9999 7.99998C2.57556 7.99998 2.16859 8.16855 1.86853 8.4686C1.56847 8.76866 1.3999 9.17563 1.3999 9.59998C1.3999 10.0243 1.56847 10.4313 1.86853 10.7313C2.16859 11.0314 2.57556 11.2 2.9999 11.2C3.42425 11.2 3.83122 11.0314 4.13127 10.7313C4.43133 10.4313 4.5999 10.0243 4.5999 9.59998C4.5999 9.17563 4.43133 8.76866 4.13127 8.4686C3.83122 8.16855 3.42425 7.99998 2.9999 7.99998ZM12.9999 7.99998C12.5756 7.99998 12.1686 8.16855 11.8685 8.4686C11.5685 8.76866 11.3999 9.17563 11.3999 9.59998C11.3999 10.0243 11.5685 10.4313 11.8685 10.7313C12.1686 11.0314 12.5756 11.2 12.9999 11.2C13.4242 11.2 13.8312 11.0314 14.1313 10.7313C14.4313 10.4313 14.5999 10.0243 14.5999 9.59998C14.5999 9.17563 14.4313 8.76866 14.1313 8.4686C13.8312 8.16855 13.4242 7.99998 12.9999 7.99998Z" fill="#111827"/>
</svg>
