<svg width="16" height="16" viewBox="0 0 16 16" fill="none" xmlns="http://www.w3.org/2000/svg">
<path fill-rule="evenodd" clip-rule="evenodd" d="M1.6001 3.00002C1.6001 2.84089 1.66331 2.68828 1.77583 2.57576C1.88836 2.46324 2.04097 2.40002 2.2001 2.40002H11.4001C11.5592 2.40002 11.7118 2.46324 11.8244 2.57576C11.9369 2.68828 12.0001 2.84089 12.0001 3.00002C12.0001 3.15915 11.9369 3.31177 11.8244 3.42429C11.7118 3.53681 11.5592 3.60002 11.4001 3.60002H2.2001C2.04097 3.60002 1.88836 3.53681 1.77583 3.42429C1.66331 3.31177 1.6001 3.15915 1.6001 3.00002ZM1.6001 6.00002C1.6001 5.84089 1.66331 5.68828 1.77583 5.57576C1.88836 5.46324 2.04097 5.40002 2.2001 5.40002H8.2065C8.36563 5.40002 8.51824 5.46324 8.63076 5.57576C8.74328 5.68828 8.8065 5.84089 8.8065 6.00002C8.8065 6.15915 8.74328 6.31177 8.63076 6.42429C8.51824 6.53681 8.36563 6.60002 8.2065 6.60002H2.2001C2.04097 6.60002 1.88836 6.53681 1.77583 6.42429C1.66331 6.31177 1.6001 6.15915 1.6001 6.00002ZM11.2001 5.60002C11.3592 5.60002 11.5118 5.66324 11.6244 5.77576C11.7369 5.88828 11.8001 6.04089 11.8001 6.20002V11.472L13.3601 9.79202C13.4683 9.67533 13.6184 9.6064 13.7775 9.6004C13.9365 9.5944 14.0914 9.65182 14.2081 9.76002C14.3248 9.86823 14.3937 10.0184 14.3997 10.1774C14.4057 10.3364 14.3483 10.4913 14.2401 10.608L11.6401 13.408C11.5839 13.4686 11.5159 13.5169 11.4401 13.55C11.3644 13.583 11.2827 13.6001 11.2001 13.6001C11.1175 13.6001 11.0358 13.583 10.96 13.55C10.8843 13.5169 10.8163 13.4686 10.7601 13.408L8.1601 10.608C8.10652 10.5502 8.06484 10.4825 8.03746 10.4086C8.01007 10.3347 7.9975 10.2561 8.00047 10.1774C8.00344 10.0987 8.02189 10.0213 8.05477 9.94965C8.08765 9.87804 8.13432 9.8136 8.1921 9.76002C8.24988 9.70644 8.31765 9.66477 8.39153 9.63738C8.46542 9.60999 8.54398 9.59743 8.62272 9.6004C8.70147 9.60337 8.77886 9.62182 8.85047 9.6547C8.92208 9.68758 8.98652 9.73424 9.0401 9.79202L10.6001 11.472V6.20002C10.6001 6.04089 10.6633 5.88828 10.7758 5.77576C10.8884 5.66324 11.041 5.60002 11.2001 5.60002ZM1.6001 9.00002C1.6001 8.84089 1.66331 8.68828 1.77583 8.57576C1.88836 8.46324 2.04097 8.40002 2.2001 8.40002H5.8497C6.00883 8.40002 6.16144 8.46324 6.27396 8.57576C6.38648 8.68828 6.4497 8.84089 6.4497 9.00002C6.4497 9.15915 6.38648 9.31177 6.27396 9.42429C6.16144 9.53681 6.00883 9.60002 5.8497 9.60002H2.2001C2.04097 9.60002 1.88836 9.53681 1.77583 9.42429C1.66331 9.31177 1.6001 9.15915 1.6001 9.00002Z" fill="#111827"/>
</svg>
