<svg width="17" height="16" viewBox="0 0 17 16" fill="none" xmlns="http://www.w3.org/2000/svg">
<g opacity="0.5">
<path fill-rule="evenodd" clip-rule="evenodd" d="M5.59421 5.79388C5.40675 5.98134 5.40675 6.28525 5.59421 6.47271C5.78166 6.66015 6.08558 6.66015 6.27303 6.47271L8.33362 4.41211L10.3942 6.47271C10.5817 6.66015 10.8856 6.66015 11.073 6.47271C11.2605 6.28525 11.2605 5.98134 11.073 5.79388L8.67303 3.39388C8.58301 3.30387 8.46091 3.2533 8.33362 3.2533C8.20631 3.2533 8.08422 3.30387 7.99421 3.39388L5.59421 5.79388ZM11.073 10.206C11.2605 10.0186 11.2605 9.71467 11.073 9.52722C10.8856 9.33977 10.5817 9.33977 10.3942 9.52722L8.33362 11.5878L6.27303 9.52722C6.08558 9.33977 5.78166 9.33977 5.59421 9.52722C5.40675 9.71467 5.40675 10.0186 5.59421 10.206L7.99421 12.6061C8.18166 12.7935 8.48558 12.7935 8.67303 12.6061L11.073 10.206Z" fill="#09090B"/>
</g>
</svg>
